{
.appVersion = "3258";
.formatVersion = 3;
axes = (
{
name = Weight;
tag = wght;
}
);
customParameters = (
{
name = "Use Typo Metrics";
value = 1;
}
);
date = "2024-02-26 13:56:12 +0000";
familyName = "Ring Link";
featurePrefixes = (
{
automatic = 1;
code = "languagesystem DFLT dflt;

languagesystem cyrl dflt;
languagesystem cyrl BGR;

languagesystem latn dflt;
languagesystem latn NLD;
";
name = Languagesystems;
}
);
features = (
{
automatic = 1;
code = "feature locl;
feature sups;
feature ordn;
";
tag = aalt;
},
{
automatic = 1;
code = "lookup ccmp_Other_1 {
	@CombiningTopAccents = [acutecomb circumflexcomb dieresiscomb dotaccentcomb gravecomb ringcomb tildecomb];
	@CombiningNonTopAccents = [cedillacomb];
	sub [i j]' @CombiningTopAccents by [idotless jdotless];
	sub [i j]' @CombiningNonTopAccents @CombiningTopAccents by [idotless jdotless];
} ccmp_Other_1;
";
tag = ccmp;
},
{
automatic = 1;
code = "sub one by onesuperior;
sub two by twosuperior;
sub three by threesuperior;
";
tag = sups;
},
{
automatic = 1;
code = "sub [zero one two three four five six seven eight nine] [A a]' by ordfeminine;
sub [zero one two three four five six seven eight nine] [O o]' by ordmasculine;
";
tag = ordn;
}
);
fontMaster = (
{
customParameters = (
{
name = hheaAscender;
value = 1980;
},
{
name = hheaDescender;
value = -490;
},
{
name = hheaLineGap;
value = 310;
},
{
name = typoAscender;
value = 1980;
},
{
name = typoDescender;
value = -490;
},
{
name = typoLineGap;
value = 310;
},
{
name = winDescent;
value = 490;
}
);
id = "2138459E-7720-4001-9A22-A006F68CB051";
metricValues = (
{
pos = 1589;
},
{
pos = 1462;
},
{
pos = 984;
},
{
},
{
pos = -459;
}
);
name = Medium;
}
);
glyphs = (
{
glyphname = A;
kernLeft = "20";
kernRight = "20";
lastChange = "2024-04-18 14:55:36 +0000";
layers = (
{
anchors = (
{
name = top;
pos = (316,1546);
}
);
hints = (
{
name = _corner.serif;
origin = (1,3);
type = Corner;
},
{
name = _corner.serif;
options = 1;
origin = (3,0);
scale = (-1,1);
type = Corner;
}
);
layerId = "2138459E-7720-4001-9A22-A006F68CB051";
shapes = (
{
closed = 1;
nodes = (
(199,366,l),
(199,429,o),
(251,481,o),
(317,481,cs),
(379,481,o),
(432,429,o),
(432,366,c),
(552,366,l),
(552,495,o),
(446,601,o),
(317,601,cs),
(185,601,o),
(79,495,o),
(79,366,c)
);
},
{
closed = 1;
nodes = (
(199,0,l),
(199,1226,l),
(79,1226,l),
(79,0,l)
);
},
{
closed = 1;
nodes = (
(199,1226,l),
(199,1289,o),
(251,1341,o),
(317,1341,cs),
(379,1341,o),
(432,1289,o),
(432,1226,c),
(552,1226,l),
(552,1355,o),
(446,1461,o),
(317,1461,cs),
(185,1461,o),
(79,1355,o),
(79,1226,c)
);
},
{
closed = 1;
nodes = (
(552,0,l),
(552,1226,l),
(432,1226,l),
(432,0,l)
);
}
);
width = 631;
}
);
unicode = 65;
},
{
glyphname = AE;
kernLeft = "20";
kernRight = "20";
lastChange = "2024-04-18 14:55:36 +0000";
layers = (
{
hints = (
{
name = _corner.serif;
origin = (0,42);
type = Corner;
}
);
layerId = "2138459E-7720-4001-9A22-A006F68CB051";
shapes = (
{
closed = 1;
nodes = (
(199,0,l),
(199,366,ls),
(199,429,o),
(251,481,o),
(317,481,cs),
(379,481,o),
(432,429,o),
(432,366,cs),
(432,0,l),
(669,0,ls),
(799,0,o),
(904,106,o),
(904,235,c),
(784,235,l),
(784,172,o),
(732,120,o),
(669,120,cs),
(552,120,l),
(552,672,l),
(704,672,l),
(704,791,l),
(552,791,l),
(552,1226,ls),
(552,1289,o),
(604,1341,o),
(669,1341,cs),
(732,1341,o),
(784,1289,o),
(784,1226,c),
(904,1226,l),
(904,1355,o),
(799,1461,o),
(669,1461,cs),
(597,1461,o),
(533,1427,o),
(492,1377,c),
(451,1427,o),
(387,1461,o),
(317,1461,cs),
(185,1461,o),
(79,1355,o),
(79,1226,cs),
(79,0,l)
);
},
{
closed = 1;
nodes = (
(199,1226,ls),
(199,1289,o),
(251,1341,o),
(317,1341,cs),
(379,1341,o),
(432,1289,o),
(432,1226,cs),
(432,562,l),
(400,585,o),
(360,601,o),
(317,601,cs),
(271,601,o),
(231,585,o),
(199,562,c)
);
}
);
width = 942;
}
);
unicode = 198;
},
{
glyphname = B;
kernLeft = "20";
kernRight = "20";
lastChange = "2024-04-18 14:55:36 +0000";
layers = (
{
hints = (
{
name = _corner.serif;
origin = (0,17);
type = Corner;
}
);
layerId = "2138459E-7720-4001-9A22-A006F68CB051";
shapes = (
{
closed = 1;
nodes = (
(317,0,ls),
(446,0,o),
(552,106,o),
(552,235,cs),
(552,877,ls),
(552,947,o),
(518,1010,o),
(468,1052,c),
(518,1093,o),
(552,1157,o),
(552,1226,cs),
(552,1355,o),
(446,1461,o),
(317,1461,cs),
(185,1461,o),
(79,1355,o),
(79,1226,cs),
(79,0,l)
);
},
{
closed = 1;
nodes = (
(199,1226,ls),
(199,1289,o),
(251,1341,o),
(317,1341,cs),
(379,1341,o),
(432,1289,o),
(432,1226,cs),
(432,1164,o),
(379,1111,o),
(317,1111,c),
(317,991,l),
(379,991,o),
(432,939,o),
(432,877,cs),
(432,235,ls),
(432,172,o),
(379,120,o),
(317,120,cs),
(199,120,l)
);
}
);
width = 589;
}
);
unicode = 66;
},
{
glyphname = C;
kernLeft = "20";
kernRight = "20";
lastChange = "2024-04-18 14:55:36 +0000";
layers = (
{
anchors = (
{
name = bottom;
pos = (348,30);
}
);
hints = (
{
name = _corner.serif;
origin = (0,23);
type = Corner;
}
);
layerId = "2138459E-7720-4001-9A22-A006F68CB051";
shapes = (
{
closed = 1;
nodes = (
(317,0,ls),
(446,0,o),
(552,106,o),
(552,235,c),
(432,235,l),
(432,172,o),
(379,120,o),
(317,120,cs),
(199,120,l),
(199,1226,ls),
(199,1289,o),
(251,1341,o),
(317,1341,cs),
(379,1341,o),
(432,1289,o),
(432,1226,c),
(552,1226,l),
(552,1355,o),
(446,1461,o),
(317,1461,cs),
(185,1461,o),
(79,1355,o),
(79,1226,cs),
(79,0,l)
);
}
);
width = 589;
}
);
unicode = 67;
},
{
glyphname = D;
kernLeft = "20";
kernRight = "20";
lastChange = "2024-04-18 14:55:36 +0000";
layers = (
{
hints = (
{
name = _corner.serif;
origin = (0,23);
type = Corner;
}
);
layerId = "2138459E-7720-4001-9A22-A006F68CB051";
shapes = (
{
closed = 1;
nodes = (
(199,0,l),
(199,1226,ls),
(199,1289,o),
(251,1341,o),
(317,1341,cs),
(379,1341,o),
(432,1289,o),
(432,1226,cs),
(432,235,ls),
(432,172,o),
(379,120,o),
(317,120,c),
(317,0,l),
(446,0,o),
(552,106,o),
(552,235,cs),
(552,1226,ls),
(552,1355,o),
(446,1461,o),
(317,1461,cs),
(185,1461,o),
(79,1355,o),
(79,1226,cs),
(79,0,l)
);
}
);
width = 589;
}
);
unicode = 68;
},
{
glyphname = Eth;
lastChange = "2024-04-18 14:55:36 +0000";
layers = (
{
hints = (
{
horizontal = 1;
origin = (0,31);
target = (0,15);
type = Stem;
},
{
horizontal = 1;
origin = (0,29);
target = (0,28);
type = Stem;
},
{
horizontal = 1;
origin = (0,23);
target = (0,8);
type = Stem;
},
{
origin = (0,31);
target = (0,0);
type = Stem;
},
{
origin = (0,12);
target = (0,19);
type = Stem;
},
{
name = _corner.serif;
origin = (0,31);
type = Corner;
}
);
layerId = "2138459E-7720-4001-9A22-A006F68CB051";
shapes = (
{
closed = 1;
nodes = (
(264,0,l),
(264,672,l),
(366,672,l),
(366,791,l),
(264,791,l),
(264,1226,ls),
(264,1289,o),
(316,1341,o),
(381,1341,cs),
(445,1341,o),
(496,1289,o),
(496,1226,cs),
(496,235,ls),
(496,172,o),
(445,120,o),
(381,120,c),
(381,0,l),
(511,0,o),
(617,106,o),
(617,235,cs),
(617,1226,ls),
(617,1355,o),
(511,1461,o),
(381,1461,cs),
(250,1461,o),
(144,1355,o),
(144,1226,cs),
(144,791,l),
(38,791,l),
(38,672,l),
(144,672,l),
(144,0,l)
);
}
);
width = 655;
}
);
unicode = 208;
},
{
glyphname = E;
kernLeft = "20";
kernRight = "20";
lastChange = "2024-04-18 14:55:36 +0000";
layers = (
{
anchors = (
{
name = top;
pos = (316,1546);
}
);
hints = (
{
name = _corner.serif;
origin = (0,27);
type = Corner;
}
);
layerId = "2138459E-7720-4001-9A22-A006F68CB051";
shapes = (
{
closed = 1;
nodes = (
(317,0,ls),
(446,0,o),
(552,106,o),
(552,235,c),
(432,235,l),
(432,172,o),
(379,120,o),
(317,120,cs),
(199,120,l),
(199,672,l),
(351,672,l),
(351,791,l),
(199,791,l),
(199,1226,ls),
(199,1289,o),
(251,1341,o),
(317,1341,cs),
(379,1341,o),
(432,1289,o),
(432,1226,c),
(552,1226,l),
(552,1355,o),
(446,1461,o),
(317,1461,cs),
(185,1461,o),
(79,1355,o),
(79,1226,cs),
(79,0,l)
);
}
);
width = 589;
}
);
unicode = 69;
},
{
glyphname = F;
kernLeft = "20";
kernRight = "20";
lastChange = "2024-04-18 14:55:36 +0000";
layers = (
{
hints = (
{
name = _corner.serif;
origin = (0,19);
type = Corner;
}
);
layerId = "2138459E-7720-4001-9A22-A006F68CB051";
shapes = (
{
closed = 1;
nodes = (
(199,0,l),
(199,433,l),
(317,433,l),
(317,553,l),
(199,553,l),
(199,1226,ls),
(199,1289,o),
(251,1341,o),
(317,1341,cs),
(379,1341,o),
(432,1289,o),
(432,1226,c),
(552,1226,l),
(552,1355,o),
(446,1461,o),
(317,1461,cs),
(185,1461,o),
(79,1355,o),
(79,1226,cs),
(79,0,l)
);
}
);
width = 589;
}
);
unicode = 70;
userData = {
KernOnName = F;
};
},
{
glyphname = G;
kernLeft = "20";
kernRight = "20";
lastChange = "2024-04-18 14:55:36 +0000";
layers = (
{
hints = (
{
name = _corner.serif;
origin = (0,29);
type = Corner;
}
);
layerId = "2138459E-7720-4001-9A22-A006F68CB051";
shapes = (
{
closed = 1;
nodes = (
(317,0,ls),
(362,0,o),
(400,13,o),
(432,40,c),
(432,0,l),
(552,0,l),
(552,612,l),
(317,612,l),
(317,492,l),
(432,492,l),
(432,235,ls),
(432,172,o),
(379,120,o),
(317,120,cs),
(199,120,l),
(199,1226,ls),
(199,1289,o),
(251,1341,o),
(317,1341,cs),
(379,1341,o),
(432,1289,o),
(432,1226,c),
(552,1226,l),
(552,1355,o),
(446,1461,o),
(317,1461,cs),
(185,1461,o),
(79,1355,o),
(79,1226,cs),
(79,0,l)
);
}
);
width = 589;
}
);
unicode = 71;
},
{
glyphname = H;
kernLeft = "20";
kernRight = "20";
lastChange = "2024-04-18 14:55:36 +0000";
layers = (
{
hints = (
{
name = _corner.serif;
origin = (0,12);
type = Corner;
},
{
name = _corner.serif;
options = 1;
origin = (0,0);
scale = (-1,1);
type = Corner;
}
);
layerId = "2138459E-7720-4001-9A22-A006F68CB051";
shapes = (
{
closed = 1;
nodes = (
(552,0,l),
(552,1461,l),
(432,1461,l),
(432,561,l),
(401,585,o),
(360,601,o),
(317,601,cs),
(272,601,o),
(230,585,o),
(199,561,c),
(199,1461,l),
(79,1461,l),
(79,0,l),
(199,0,l),
(199,366,ls),
(199,429,o),
(251,481,o),
(317,481,cs),
(379,481,o),
(432,429,o),
(432,366,cs),
(432,0,l)
);
}
);
width = 631;
}
);
unicode = 72;
userData = {
KernOnName = H;
};
},
{
glyphname = I;
kernLeft = "20";
kernRight = "20";
lastChange = "2024-04-18 14:55:36 +0000";
layers = (
{
anchors = (
{
name = top;
pos = (138,1546);
}
);
hints = (
{
name = _corner.serif;
options = 1;
origin = (0,0);
scale = (-1,1);
type = Corner;
},
{
name = _corner.serif;
options = 2;
origin = (0,1);
type = Corner;
},
{
name = _corner.serif;
options = 1;
origin = (0,2);
scale = (-1,1);
type = Corner;
},
{
name = _corner.serif;
options = 2;
origin = (0,3);
type = Corner;
}
);
layerId = "2138459E-7720-4001-9A22-A006F68CB051";
shapes = (
{
closed = 1;
nodes = (
(199,0,l),
(199,1461,l),
(79,1461,l),
(79,0,l)
);
}
);
width = 278;
}
);
unicode = 73;
userData = {
KernOnName = I;
};
},
{
glyphname = IJ;
lastChange = "2024-04-18 14:55:36 +0000";
layers = (
{
hints = (
{
name = _corner.serif;
options = 1;
origin = (0,2);
scale = (-1,1);
type = Corner;
},
{
name = _corner.serif;
origin = (1,1);
type = Corner;
}
);
layerId = "2138459E-7720-4001-9A22-A006F68CB051";
shapes = (
{
closed = 1;
nodes = (
(199,646,l),
(199,1461,l),
(79,1461,l),
(79,646,l)
);
},
{
closed = 1;
nodes = (
(551,235,l),
(551,1461,l),
(431,1461,l),
(431,235,l)
);
},
{
closed = 1;
nodes = (
(315,120,l),
(251,120,o),
(199,172,o),
(199,235,c),
(79,235,l),
(79,106,o),
(185,0,o),
(315,0,c)
);
},
{
closed = 1;
nodes = (
(445,0,o),
(551,106,o),
(551,235,c),
(431,235,l),
(431,172,o),
(379,120,o),
(315,120,c),
(315,0,l)
);
}
);
width = 630;
}
);
unicode = 306;
},
{
glyphname = J;
kernLeft = "20";
kernRight = "20";
lastChange = "2024-04-18 14:55:36 +0000";
layers = (
{
anchors = (
{
name = top;
pos = (326,1546);
}
);
hints = (
{
name = _corner.serif;
origin = (0,1);
type = Corner;
}
);
layerId = "2138459E-7720-4001-9A22-A006F68CB051";
shapes = (
{
closed = 1;
nodes = (
(510,235,l),
(510,1461,l),
(390,1461,l),
(390,235,l)
);
},
{
closed = 1;
nodes = (
(274,120,l),
(210,120,o),
(158,172,o),
(158,235,c),
(38,235,l),
(38,106,o),
(143,0,o),
(274,0,c)
);
},
{
closed = 1;
nodes = (
(404,0,o),
(510,106,o),
(510,235,c),
(390,235,l),
(390,172,o),
(337,120,o),
(274,120,c),
(274,0,l)
);
}
);
width = 589;
}
);
unicode = 74;
},
{
glyphname = K;
kernLeft = "20";
kernRight = "20";
lastChange = "2024-04-18 14:55:36 +0000";
layers = (
{
hints = (
{
name = _corner.serif;
origin = (0,28);
type = Corner;
},
{
name = _corner.serif;
options = 1;
origin = (0,9);
scale = (-1,1);
type = Corner;
}
);
layerId = "2138459E-7720-4001-9A22-A006F68CB051";
shapes = (
{
closed = 1;
nodes = (
(199,0,l),
(199,366,ls),
(199,429,o),
(251,481,o),
(317,481,cs),
(379,481,o),
(432,429,o),
(432,366,cs),
(432,0,l),
(552,0,l),
(552,366,ls),
(552,437,o),
(518,500,o),
(467,541,c),
(518,581,o),
(552,644,o),
(552,716,cs),
(552,1461,l),
(432,1461,l),
(432,716,ls),
(432,653,o),
(379,601,o),
(317,601,cs),
(272,601,o),
(230,585,o),
(199,561,c),
(199,1461,l),
(79,1461,l),
(79,0,l)
);
}
);
width = 631;
}
);
unicode = 75;
},
{
glyphname = L;
kernLeft = "20";
kernRight = "20";
lastChange = "2024-04-18 14:55:36 +0000";
layers = (
{
hints = (
{
name = _corner.serif;
origin = (0,3);
type = Corner;
}
);
layerId = "2138459E-7720-4001-9A22-A006F68CB051";
shapes = (
{
closed = 1;
nodes = (
(199,0,l),
(199,1461,l),
(79,1461,l),
(79,0,l)
);
},
{
closed = 1;
nodes = (
(482,0,l),
(482,120,l),
(100,120,l),
(100,0,l)
);
}
);
width = 520;
}
);
unicode = 76;
},
{
glyphname = M;
kernLeft = "20";
kernRight = "20";
lastChange = "2024-04-18 14:55:36 +0000";
layers = (
{
hints = (
{
name = _corner.serif;
origin = (0,32);
type = Corner;
},
{
name = _corner.serif;
options = 1;
origin = (0,18);
scale = (-1,1);
type = Corner;
}
);
layerId = "2138459E-7720-4001-9A22-A006F68CB051";
shapes = (
{
closed = 1;
nodes = (
(199,0,l),
(199,1226,ls),
(199,1289,o),
(251,1341,o),
(317,1341,cs),
(379,1341,o),
(432,1289,o),
(432,1226,cs),
(432,0,l),
(552,0,l),
(552,1226,ls),
(552,1289,o),
(604,1341,o),
(669,1341,cs),
(732,1341,o),
(784,1289,o),
(784,1226,cs),
(784,0,l),
(904,0,l),
(904,1226,ls),
(904,1355,o),
(799,1461,o),
(669,1461,cs),
(597,1461,o),
(533,1427,o),
(492,1377,c),
(451,1427,o),
(387,1461,o),
(317,1461,cs),
(185,1461,o),
(79,1355,o),
(79,1226,cs),
(79,0,l)
);
}
);
width = 983;
}
);
unicode = 77;
},
{
glyphname = N;
kernLeft = "20";
kernRight = "20";
lastChange = "2024-04-18 14:55:36 +0000";
layers = (
{
anchors = (
{
name = top;
pos = (314,1546);
}
);
hints = (
{
name = _corner.serif;
origin = (0,17);
type = Corner;
},
{
name = _corner.serif;
options = 1;
origin = (0,9);
scale = (-1,1);
type = Corner;
}
);
layerId = "2138459E-7720-4001-9A22-A006F68CB051";
shapes = (
{
closed = 1;
nodes = (
(199,0,l),
(199,1226,ls),
(199,1289,o),
(251,1341,o),
(317,1341,cs),
(379,1341,o),
(432,1289,o),
(432,1226,cs),
(432,0,l),
(552,0,l),
(552,1226,ls),
(552,1355,o),
(446,1461,o),
(317,1461,cs),
(185,1461,o),
(79,1355,o),
(79,1226,cs),
(79,0,l)
);
}
);
width = 631;
}
);
unicode = 78;
},
{
glyphname = O;
kernLeft = "20";
kernRight = "20";
lastChange = "2024-04-18 14:55:36 +0000";
layers = (
{
anchors = (
{
name = top;
pos = (272,1546);
}
);
layerId = "2138459E-7720-4001-9A22-A006F68CB051";
shapes = (
{
closed = 1;
nodes = (
(158,1226,l),
(158,1289,o),
(210,1341,o),
(275,1341,cs),
(338,1341,o),
(390,1289,o),
(390,1226,c),
(510,1226,l),
(510,1355,o),
(405,1461,o),
(275,1461,cs),
(143,1461,o),
(38,1355,o),
(38,1226,c)
);
},
{
closed = 1;
nodes = (
(405,0,o),
(510,106,o),
(510,235,c),
(390,235,l),
(390,172,o),
(338,120,o),
(275,120,cs),
(210,120,o),
(158,172,o),
(158,235,c),
(38,235,l),
(38,106,o),
(143,0,o),
(275,0,cs)
);
},
{
closed = 1;
nodes = (
(158,235,l),
(158,1226,l),
(38,1226,l),
(38,235,l)
);
},
{
closed = 1;
nodes = (
(510,235,l),
(510,1226,l),
(390,1226,l),
(390,235,l)
);
}
);
width = 548;
}
);
unicode = 79;
userData = {
KernOnName = O;
};
},
{
glyphname = Oslash;
kernLeft = "20";
kernRight = "20";
lastChange = "2024-04-18 14:55:36 +0000";
layers = (
{
layerId = "2138459E-7720-4001-9A22-A006F68CB051";
shapes = (
{
closed = 1;
nodes = (
(160,0,l),
(167,32,l),
(197,12,o),
(234,0,o),
(275,0,cs),
(405,0,o),
(510,106,o),
(510,235,cs),
(510,1226,ls),
(510,1269,o),
(498,1310,o),
(478,1344,c),
(510,1461,l),
(388,1461,l),
(382,1429,l),
(351,1449,o),
(314,1461,o),
(275,1461,cs),
(143,1461,o),
(38,1355,o),
(38,1226,cs),
(38,235,ls),
(38,191,o),
(51,151,o),
(69,116,c),
(38,0,l)
);
},
{
closed = 1;
nodes = (
(247,120,o),
(221,133,o),
(206,154,c),
(390,1073,l),
(390,235,ls),
(390,172,o),
(338,120,o),
(275,120,cs)
);
},
{
closed = 1;
nodes = (
(158,1226,ls),
(158,1289,o),
(210,1341,o),
(275,1341,cs),
(302,1341,o),
(327,1328,o),
(342,1309,c),
(158,388,l)
);
}
);
width = 548;
}
);
unicode = 216;
},
{
glyphname = OE;
kernLeft = "20";
kernRight = "20";
lastChange = "2024-04-18 14:55:36 +0000";
layers = (
{
layerId = "2138459E-7720-4001-9A22-A006F68CB051";
shapes = (
{
closed = 1;
nodes = (
(319,0,o),
(359,15,o),
(390,40,c),
(390,0,l),
(628,0,ls),
(757,0,o),
(863,106,o),
(863,235,c),
(743,235,l),
(743,172,o),
(691,120,o),
(628,120,cs),
(510,120,l),
(510,672,l),
(663,672,l),
(663,791,l),
(510,791,l),
(510,1226,ls),
(510,1289,o),
(562,1341,o),
(628,1341,cs),
(691,1341,o),
(743,1289,o),
(743,1226,c),
(863,1226,l),
(863,1355,o),
(757,1461,o),
(628,1461,cs),
(555,1461,o),
(492,1427,o),
(451,1377,c),
(409,1427,o),
(346,1461,o),
(275,1461,cs),
(143,1461,o),
(38,1355,o),
(38,1226,cs),
(38,235,ls),
(38,106,o),
(143,0,o),
(275,0,cs)
);
},
{
closed = 1;
nodes = (
(210,120,o),
(158,172,o),
(158,235,cs),
(158,1226,ls),
(158,1289,o),
(210,1341,o),
(275,1341,cs),
(338,1341,o),
(390,1289,o),
(390,1226,cs),
(390,235,ls),
(390,172,o),
(338,120,o),
(275,120,cs)
);
}
);
width = 901;
}
);
unicode = 338;
},
{
glyphname = P;
kernLeft = "20";
kernRight = "20";
lastChange = "2024-04-18 14:55:36 +0000";
layers = (
{
hints = (
{
name = _corner.serif;
origin = (0,15);
type = Corner;
}
);
layerId = "2138459E-7720-4001-9A22-A006F68CB051";
shapes = (
{
closed = 1;
nodes = (
(199,0,l),
(199,521,l),
(231,497,o),
(271,481,o),
(317,481,cs),
(446,481,o),
(552,586,o),
(552,716,cs),
(552,1226,ls),
(552,1355,o),
(446,1461,o),
(317,1461,cs),
(185,1461,o),
(79,1355,o),
(79,1226,cs),
(79,0,l)
);
},
{
closed = 1;
nodes = (
(251,601,o),
(199,653,o),
(199,716,cs),
(199,1226,ls),
(199,1289,o),
(251,1341,o),
(317,1341,cs),
(379,1341,o),
(432,1289,o),
(432,1226,cs),
(432,716,ls),
(432,653,o),
(379,601,o),
(317,601,cs)
);
}
);
width = 589;
}
);
unicode = 80;
},
{
glyphname = Thorn;
lastChange = "2024-04-18 14:55:36 +0000";
layers = (
{
hints = (
{
name = _corner.serif;
options = 1;
origin = (0,16);
scale = (-1,1);
type = Corner;
},
{
name = _corner.serif;
options = 2;
origin = (0,17);
type = Corner;
}
);
layerId = "2138459E-7720-4001-9A22-A006F68CB051";
shapes = (
{
closed = 1;
nodes = (
(199,0,l),
(199,521,l),
(231,497,o),
(271,481,o),
(317,481,cs),
(446,481,o),
(552,586,o),
(552,716,cs),
(552,1226,ls),
(552,1355,o),
(446,1461,o),
(317,1461,cs),
(271,1461,o),
(231,1446,o),
(199,1422,c),
(199,1461,l),
(79,1461,l),
(79,0,l)
);
},
{
closed = 1;
nodes = (
(251,601,o),
(199,653,o),
(199,716,cs),
(199,1226,ls),
(199,1289,o),
(251,1341,o),
(317,1341,cs),
(379,1341,o),
(432,1289,o),
(432,1226,cs),
(432,716,ls),
(432,653,o),
(379,601,o),
(317,601,cs)
);
}
);
width = 589;
}
);
unicode = 222;
},
{
glyphname = Q;
kernLeft = "20";
kernRight = "20";
lastChange = "2024-04-18 14:55:36 +0000";
layers = (
{
layerId = "2138459E-7720-4001-9A22-A006F68CB051";
shapes = (
{
closed = 1;
nodes = (
(158,1226,l),
(158,1289,o),
(210,1341,o),
(275,1341,cs),
(338,1341,o),
(390,1289,o),
(390,1226,c),
(510,1226,l),
(510,1355,o),
(405,1461,o),
(275,1461,cs),
(143,1461,o),
(38,1355,o),
(38,1226,c)
);
},
{
closed = 1;
nodes = (
(405,0,o),
(510,106,o),
(510,235,c),
(390,235,l),
(390,172,o),
(338,120,o),
(275,120,cs),
(210,120,o),
(158,172,o),
(158,235,c),
(38,235,l),
(38,106,o),
(143,0,o),
(275,0,cs)
);
},
{
closed = 1;
nodes = (
(510,5,l),
(445,5,o),
(392,57,o),
(392,120,c),
(272,120,l),
(272,-9,o),
(378,-115,o),
(510,-115,c)
);
},
{
closed = 1;
nodes = (
(158,235,l),
(158,1226,l),
(38,1226,l),
(38,235,l)
);
},
{
closed = 1;
nodes = (
(510,235,l),
(510,1226,l),
(390,1226,l),
(390,235,l)
);
}
);
width = 548;
}
);
unicode = 81;
},
{
glyphname = R;
kernLeft = "20";
kernRight = "20";
lastChange = "2024-04-18 14:55:36 +0000";
layers = (
{
hints = (
{
name = _corner.serif;
origin = (0,32);
type = Corner;
},
{
name = _corner.serif;
options = 1;
origin = (0,17);
scale = (-1,1);
type = Corner;
}
);
layerId = "2138459E-7720-4001-9A22-A006F68CB051";
shapes = (
{
closed = 1;
nodes = (
(199,0,l),
(199,1226,ls),
(199,1289,o),
(251,1341,o),
(317,1341,cs),
(379,1341,o),
(432,1289,o),
(432,1226,cs),
(432,716,ls),
(432,653,o),
(379,601,o),
(317,601,c),
(317,481,l),
(379,481,o),
(432,429,o),
(432,366,cs),
(432,0,l),
(552,0,l),
(552,366,ls),
(552,436,o),
(518,500,o),
(468,541,c),
(518,582,o),
(552,645,o),
(552,716,cs),
(552,1226,ls),
(552,1355,o),
(446,1461,o),
(317,1461,cs),
(185,1461,o),
(79,1355,o),
(79,1226,cs),
(79,0,l)
);
}
);
width = 631;
}
);
unicode = 82;
userData = {
KernOnName = R;
};
},
{
glyphname = S;
kernLeft = "20";
kernRight = "20";
lastChange = "2024-04-18 14:55:36 +0000";
layers = (
{
anchors = (
{
name = top;
pos = (272,1546);
}
);
hints = (
{
name = _corner.serif;
origin = (0,36);
type = Corner;
}
);
layerId = "2138459E-7720-4001-9A22-A006F68CB051";
shapes = (
{
closed = 1;
nodes = (
(405,0,o),
(510,106,o),
(510,235,cs),
(510,877,ls),
(510,1006,o),
(405,1111,o),
(275,1111,cs),
(210,1111,o),
(158,1164,o),
(158,1226,cs),
(158,1289,o),
(210,1341,o),
(275,1341,cs),
(338,1341,o),
(390,1289,o),
(390,1226,c),
(510,1226,l),
(510,1355,o),
(405,1461,o),
(275,1461,cs),
(143,1461,o),
(38,1355,o),
(38,1226,cs),
(38,1097,o),
(143,991,o),
(275,991,cs),
(338,991,o),
(390,939,o),
(390,877,cs),
(390,235,ls),
(390,172,o),
(338,120,o),
(275,120,cs),
(210,120,o),
(158,172,o),
(158,235,cs),
(158,877,l),
(38,877,l),
(38,235,ls),
(38,106,o),
(143,0,o),
(275,0,cs)
);
}
);
width = 548;
}
);
unicode = 83;
},
{
glyphname = Germandbls;
lastChange = "2024-04-18 14:55:36 +0000";
layers = (
{
hints = (
{
name = _corner.serif;
options = 1;
origin = (0,2);
scale = (-1,1);
type = Corner;
},
{
name = _corner.serif;
origin = (0,3);
type = Corner;
}
);
layerId = "2138459E-7720-4001-9A22-A006F68CB051";
shapes = (
{
closed = 1;
nodes = (
(199,0,l),
(199,1461,l),
(79,1461,l),
(79,0,l)
);
},
{
closed = 1;
nodes = (
(446,0,o),
(552,106,o),
(552,235,c),
(432,235,l),
(432,172,o),
(379,120,o),
(317,120,c),
(317,0,l)
);
},
{
closed = 1;
nodes = (
(552,235,l),
(552,877,l),
(432,877,l),
(432,235,l)
);
},
{
closed = 1;
nodes = (
(552,877,l),
(552,1006,o),
(446,1111,o),
(317,1111,c),
(317,991,l),
(379,991,o),
(432,939,o),
(432,877,c)
);
},
{
closed = 1;
nodes = (
(446,991,o),
(552,1097,o),
(552,1226,c),
(432,1226,l),
(432,1164,o),
(379,1111,o),
(317,1111,c),
(317,991,l)
);
},
{
closed = 1;
nodes = (
(550,1341,l),
(550,1461,l),
(97,1461,l),
(97,1341,l)
);
},
{
closed = 1;
nodes = (
(552,1226,l),
(552,1461,l),
(432,1461,l),
(432,1226,l)
);
}
);
width = 589;
}
);
unicode = 7838;
},
{
glyphname = T;
kernLeft = "20";
kernRight = "20";
lastChange = "2024-04-18 14:55:36 +0000";
layers = (
{
hints = (
{
name = _corner.serif;
options = 1;
origin = (0,8);
scale = (-1,1);
type = Corner;
},
{
name = _corner.serif;
options = 1;
origin = (0,0);
scale = (-1,1);
type = Corner;
},
{
name = _corner.serif;
origin = (0,13);
type = Corner;
}
);
layerId = "2138459E-7720-4001-9A22-A006F68CB051";
shapes = (
{
closed = 1;
nodes = (
(395,0,l),
(395,1226,ls),
(395,1289,o),
(447,1341,o),
(512,1341,cs),
(622,1341,l),
(622,1461,l),
(38,1461,l),
(38,1341,l),
(315,1341,l),
(290,1310,o),
(275,1270,o),
(275,1226,cs),
(275,0,l)
);
}
);
width = 660;
}
);
unicode = 84;
},
{
glyphname = U;
kernLeft = "20";
kernRight = "20";
lastChange = "2024-04-18 14:55:36 +0000";
layers = (
{
anchors = (
{
name = top;
pos = (314,1546);
}
);
hints = (
{
name = _corner.serif;
options = 1;
origin = (2,2);
scale = (-1,1);
type = Corner;
},
{
name = _corner.serif;
origin = (0,1);
type = Corner;
}
);
layerId = "2138459E-7720-4001-9A22-A006F68CB051";
shapes = (
{
closed = 1;
nodes = (
(552,235,l),
(552,1461,l),
(432,1461,l),
(432,235,l)
);
},
{
closed = 1;
nodes = (
(446,0,o),
(552,106,o),
(552,235,c),
(432,235,l),
(432,172,o),
(379,120,o),
(317,120,cs),
(251,120,o),
(199,172,o),
(199,235,c),
(79,235,l),
(79,106,o),
(185,0,o),
(317,0,cs)
);
},
{
closed = 1;
nodes = (
(199,235,l),
(199,1461,l),
(79,1461,l),
(79,235,l)
);
}
);
width = 631;
}
);
unicode = 85;
},
{
glyphname = V;
kernLeft = "20";
kernRight = "20";
lastChange = "2024-04-18 14:55:36 +0000";
layers = (
{
hints = (
{
name = _corner.serif;
options = 1;
origin = (0,10);
scale = (-1,1);
type = Corner;
},
{
name = _corner.serif;
origin = (0,3);
type = Corner;
}
);
layerId = "2138459E-7720-4001-9A22-A006F68CB051";
shapes = (
{
closed = 1;
nodes = (
(177,-57,o),
(428,-57,o),
(445,129,cs),
(537,1461,l),
(417,1461,l),
(330,157,ls),
(329,107,o),
(277,107,o),
(275,157,cs),
(186,1461,l),
(66,1461,l),
(161,129,ls)
);
}
);
width = 603;
}
);
unicode = 86;
},
{
glyphname = W;
kernLeft = "20";
kernRight = "20";
lastChange = "2024-04-18 14:55:36 +0000";
layers = (
{
anchors = (
{
name = top;
pos = (491,1546);
}
);
hints = (
{
name = _corner.serif;
options = 1;
origin = (0,28);
scale = (-1,1);
type = Corner;
},
{
name = _corner.serif;
origin = (0,9);
type = Corner;
}
);
layerId = "2138459E-7720-4001-9A22-A006F68CB051";
shapes = (
{
closed = 1;
nodes = (
(387,0,o),
(451,34,o),
(492,84,c),
(533,34,o),
(597,0,o),
(669,0,cs),
(799,0,o),
(904,106,o),
(904,235,cs),
(904,1461,l),
(784,1461,l),
(784,235,ls),
(784,172,o),
(732,120,o),
(669,120,cs),
(604,120,o),
(552,172,o),
(552,235,cs),
(552,1461,l),
(432,1461,l),
(432,235,ls),
(432,172,o),
(379,120,o),
(317,120,cs),
(251,120,o),
(199,172,o),
(199,235,cs),
(199,1461,l),
(79,1461,l),
(79,235,ls),
(79,106,o),
(185,0,o),
(317,0,cs)
);
}
);
width = 983;
}
);
unicode = 87;
},
{
glyphname = X;
kernLeft = "20";
kernRight = "20";
lastChange = "2024-04-18 14:55:36 +0000";
layers = (
{
hints = (
{
name = _corner.serif;
options = 1;
origin = (5,1);
scale = (-1,1);
type = Corner;
},
{
name = _corner.serif;
origin = (4,0);
type = Corner;
}
);
layerId = "2138459E-7720-4001-9A22-A006F68CB051";
shapes = (
{
closed = 1;
nodes = (
(185,980,o),
(79,875,o),
(79,745,c),
(199,745,l),
(199,808,o),
(251,860,o),
(317,860,cs),
(379,860,o),
(432,808,o),
(432,745,c),
(552,745,l),
(552,875,o),
(446,980,o),
(317,980,cs)
);
},
{
closed = 1;
nodes = (
(79,1095,l),
(199,1095,l),
(199,1461,l),
(79,1461,l)
);
},
{
closed = 1;
nodes = (
(432,1095,l),
(552,1095,l),
(552,1461,l),
(432,1461,l)
);
},
{
closed = 1;
nodes = (
(79,966,o),
(185,860,o),
(317,860,cs),
(446,860,o),
(552,966,o),
(552,1095,c),
(432,1095,l),
(432,1032,o),
(379,980,o),
(317,980,cs),
(251,980,o),
(199,1032,o),
(199,1095,c),
(79,1095,l)
);
},
{
closed = 1;
nodes = (
(79,0,l),
(199,0,l),
(199,745,l),
(79,745,l)
);
},
{
closed = 1;
nodes = (
(432,0,l),
(552,0,l),
(552,745,l),
(432,745,l)
);
}
);
width = 631;
}
);
unicode = 88;
},
{
glyphname = Y;
kernLeft = "20";
kernRight = "20";
lastChange = "2024-04-18 14:55:36 +0000";
layers = (
{
anchors = (
{
name = top;
pos = (314,1546);
}
);
hints = (
{
name = _corner.serif;
options = 1;
origin = (2,2);
scale = (-1,1);
type = Corner;
},
{
name = _corner.serif;
origin = (3,1);
type = Corner;
},
{
name = _corner.serif;
options = 1;
origin = (1,0);
scale = (-1,1);
type = Corner;
},
{
name = _corner.serif;
origin = (1,3);
type = Corner;
}
);
layerId = "2138459E-7720-4001-9A22-A006F68CB051";
shapes = (
{
closed = 1;
nodes = (
(446,481,o),
(552,586,o),
(552,716,c),
(432,716,l),
(432,653,o),
(379,601,o),
(317,601,cs),
(251,601,o),
(199,653,o),
(199,716,c),
(79,716,l),
(79,586,o),
(185,481,o),
(317,481,cs)
);
},
{
closed = 1;
nodes = (
(374,0,l),
(374,546,l),
(254,546,l),
(254,0,l)
);
},
{
closed = 1;
nodes = (
(199,716,l),
(199,1461,l),
(79,1461,l),
(79,716,l)
);
},
{
closed = 1;
nodes = (
(552,716,l),
(552,1461,l),
(432,1461,l),
(432,716,l)
);
}
);
width = 631;
}
);
unicode = 89;
},
{
glyphname = Z;
kernLeft = "20";
kernRight = "20";
lastChange = "2024-04-18 14:55:36 +0000";
layers = (
{
anchors = (
{
name = top;
pos = (276,1546);
}
);
hints = (
{
name = _corner.serif;
options = 1;
origin = (0,7);
scale = (-1,1);
type = Corner;
}
);
layerId = "2138459E-7720-4001-9A22-A006F68CB051";
shapes = (
{
closed = 1;
nodes = (
(510,0,l),
(510,120,l),
(158,120,l),
(158,206,l),
(510,1214,l),
(510,1461,l),
(38,1461,l),
(38,1341,l),
(390,1341,l),
(390,1255,l),
(38,247,l),
(38,0,l)
);
}
);
width = 548;
}
);
unicode = 90;
},
{
glyphname = a;
kernLeft = "20";
kernRight = "20";
lastChange = "2024-04-18 14:55:36 +0000";
layers = (
{
anchors = (
{
name = top;
pos = (256,1068);
}
);
hints = (
{
name = _corner.serif;
options = 1;
origin = (3,0);
scale = (-1,1);
type = Corner;
}
);
layerId = "2138459E-7720-4001-9A22-A006F68CB051";
shapes = (
{
closed = 1;
nodes = (
(158,767,l),
(158,819,o),
(202,863,o),
(256,863,cs),
(308,863,o),
(353,819,o),
(353,767,c),
(473,767,l),
(473,886,o),
(375,984,o),
(256,984,cs),
(135,984,o),
(38,886,o),
(38,767,c)
);
},
{
closed = 1;
nodes = (
(256,120,l),
(202,120,o),
(158,165,o),
(158,216,c),
(38,216,l),
(38,97,o),
(135,0,o),
(256,0,c)
);
},
{
closed = 1;
nodes = (
(158,216,l),
(158,767,l),
(38,767,l),
(38,216,l)
);
},
{
closed = 1;
nodes = (
(473,0,l),
(473,767,l),
(353,767,l),
(353,0,l)
);
}
);
width = 552;
}
);
unicode = 97;
},
{
glyphname = ae;
kernLeft = "20";
kernRight = "20";
lastChange = "2024-04-18 14:55:36 +0000";
layers = (
{
layerId = "2138459E-7720-4001-9A22-A006F68CB051";
shapes = (
{
closed = 1;
nodes = (
(256,120,l),
(202,120,o),
(158,165,o),
(158,216,cs),
(158,767,ls),
(158,819,o),
(202,863,o),
(256,863,cs),
(308,863,o),
(353,819,o),
(353,767,cs),
(353,0,l),
(473,0,l),
(473,36,l),
(499,13,o),
(532,0,o),
(571,0,c),
(571,120,l),
(517,120,o),
(473,165,o),
(473,216,cs),
(473,767,ls),
(473,819,o),
(517,863,o),
(571,863,cs),
(622,863,o),
(667,819,o),
(667,767,c),
(574,767,l),
(574,647,l),
(787,647,l),
(787,767,ls),
(787,886,o),
(690,984,o),
(571,984,cs),
(507,984,o),
(450,954,o),
(413,909,c),
(376,954,o),
(319,984,o),
(256,984,cs),
(135,984,o),
(38,886,o),
(38,767,cs),
(38,216,ls),
(38,97,o),
(135,0,o),
(256,0,c)
);
}
);
width = 825;
}
);
unicode = 230;
},
{
glyphname = b;
kernLeft = "20";
kernRight = "20";
lastChange = "2024-04-18 14:55:36 +0000";
layers = (
{
hints = (
{
name = _corner.serif;
options = 1;
origin = (0,2);
scale = (-1,1);
type = Corner;
}
);
layerId = "2138459E-7720-4001-9A22-A006F68CB051";
shapes = (
{
closed = 1;
nodes = (
(199,216,l),
(199,1461,l),
(79,1461,l),
(79,216,l)
);
},
{
closed = 1;
nodes = (
(417,0,o),
(514,97,o),
(514,216,c),
(394,216,l),
(394,165,o),
(349,120,o),
(295,120,cs),
(244,120,o),
(199,165,o),
(199,216,c),
(79,216,l),
(79,97,o),
(176,0,o),
(295,0,cs)
);
},
{
closed = 1;
nodes = (
(514,216,l),
(514,767,l),
(394,767,l),
(394,216,l)
);
},
{
closed = 1;
nodes = (
(514,767,l),
(514,886,o),
(417,984,o),
(295,984,c),
(295,863,l),
(349,863,o),
(394,819,o),
(394,767,c)
);
}
);
width = 552;
}
);
unicode = 98;
userData = {
KernOnName = b;
};
},
{
glyphname = c;
kernLeft = "20";
kernRight = "20";
lastChange = "2024-04-18 14:55:36 +0000";
layers = (
{
anchors = (
{
name = bottom;
pos = (329,42);
}
);
layerId = "2138459E-7720-4001-9A22-A006F68CB051";
shapes = (
{
closed = 1;
nodes = (
(158,767,l),
(158,819,o),
(202,863,o),
(256,863,cs),
(308,863,o),
(353,819,o),
(353,767,c),
(473,767,l),
(473,886,o),
(375,984,o),
(256,984,cs),
(135,984,o),
(38,886,o),
(38,767,c)
);
},
{
closed = 1;
nodes = (
(375,0,o),
(473,97,o),
(473,216,c),
(353,216,l),
(353,165,o),
(308,120,o),
(256,120,cs),
(202,120,o),
(158,165,o),
(158,216,c),
(38,216,l),
(38,97,o),
(135,0,o),
(256,0,cs)
);
},
{
closed = 1;
nodes = (
(158,216,l),
(158,767,l),
(38,767,l),
(38,216,l)
);
}
);
width = 510;
}
);
unicode = 99;
},
{
glyphname = d;
kernLeft = "20";
kernRight = "20";
lastChange = "2024-04-18 14:55:36 +0000";
layers = (
{
hints = (
{
name = _corner.serif;
origin = (0,1);
type = Corner;
}
);
layerId = "2138459E-7720-4001-9A22-A006F68CB051";
shapes = (
{
closed = 1;
nodes = (
(473,216,l),
(473,1461,l),
(353,1461,l),
(353,216,l)
);
},
{
closed = 1;
nodes = (
(375,0,o),
(473,97,o),
(473,216,c),
(353,216,l),
(353,165,o),
(308,120,o),
(256,120,cs),
(202,120,o),
(158,165,o),
(158,216,c),
(38,216,l),
(38,97,o),
(135,0,o),
(256,0,cs)
);
},
{
closed = 1;
nodes = (
(158,216,l),
(158,767,l),
(38,767,l),
(38,216,l)
);
},
{
closed = 1;
nodes = (
(158,767,l),
(158,819,o),
(202,863,o),
(256,863,c),
(256,984,l),
(135,984,o),
(38,886,o),
(38,767,c)
);
}
);
width = 552;
}
);
unicode = 100;
},
{
glyphname = eth;
lastChange = "2024-04-18 14:55:36 +0000";
layers = (
{
layerId = "2138459E-7720-4001-9A22-A006F68CB051";
shapes = (
{
closed = 1;
nodes = (
(473,216,l),
(473,1461,l),
(353,1461,l),
(353,216,l)
);
},
{
closed = 1;
nodes = (
(375,0,o),
(473,97,o),
(473,216,c),
(353,216,l),
(353,165,o),
(308,120,o),
(256,120,cs),
(202,120,o),
(158,165,o),
(158,216,c),
(38,216,l),
(38,97,o),
(135,0,o),
(256,0,cs)
);
},
{
closed = 1;
nodes = (
(158,216,l),
(158,767,l),
(38,767,l),
(38,216,l)
);
},
{
closed = 1;
nodes = (
(158,767,l),
(158,819,o),
(202,863,o),
(256,863,c),
(256,984,l),
(135,984,o),
(38,886,o),
(38,767,c)
);
},
{
closed = 1;
nodes = (
(597,1057,l),
(597,1176,l),
(354,1176,l),
(354,1057,l)
);
}
);
width = 635;
}
);
unicode = 240;
},
{
glyphname = e;
kernLeft = "20";
kernRight = "20";
lastChange = "2024-04-18 14:55:36 +0000";
layers = (
{
anchors = (
{
name = top;
pos = (256,1068);
}
);
layerId = "2138459E-7720-4001-9A22-A006F68CB051";
shapes = (
{
closed = 1;
nodes = (
(158,767,l),
(158,819,o),
(202,863,o),
(256,863,cs),
(308,863,o),
(353,819,o),
(353,767,c),
(473,767,l),
(473,886,o),
(375,984,o),
(256,984,cs),
(135,984,o),
(38,886,o),
(38,767,c)
);
},
{
closed = 1;
nodes = (
(256,120,l),
(202,120,o),
(158,165,o),
(158,216,c),
(38,216,l),
(38,97,o),
(135,0,o),
(256,0,c)
);
},
{
closed = 1;
nodes = (
(158,216,l),
(158,767,l),
(38,767,l),
(38,216,l)
);
},
{
closed = 1;
nodes = (
(473,647,l),
(473,767,l),
(259,767,l),
(259,647,l)
);
}
);
width = 510;
}
);
unicode = 101;
userData = {
KernOnName = e;
};
},
{
glyphname = f;
kernLeft = "20";
kernRight = "20";
lastChange = "2024-04-18 14:55:36 +0000";
layers = (
{
hints = (
{
name = _corner.serif;
origin = (0,3);
type = Corner;
}
);
layerId = "2138459E-7720-4001-9A22-A006F68CB051";
shapes = (
{
closed = 1;
nodes = (
(199,0,l),
(199,1245,l),
(79,1245,l),
(79,0,l)
);
},
{
closed = 1;
nodes = (
(297,435,l),
(297,555,l),
(91,555,l),
(91,435,l)
);
},
{
closed = 1;
nodes = (
(199,1245,l),
(199,1296,o),
(244,1341,o),
(297,1341,c),
(297,1461,l),
(176,1461,o),
(79,1364,o),
(79,1245,c)
);
}
);
width = 335;
}
);
unicode = 102;
},
{
glyphname = g;
kernLeft = "0";
kernRight = "0";
lastChange = "2024-04-18 14:55:36 +0000";
layers = (
{
layerId = "2138459E-7720-4001-9A22-A006F68CB051";
shapes = (
{
closed = 1;
nodes = (
(375,-481,o),
(473,-384,o),
(473,-264,cs),
(473,216,l),
(353,216,l),
(353,165,o),
(308,120,o),
(256,120,cs),
(202,120,o),
(158,165,o),
(158,216,cs),
(158,767,ls),
(158,819,o),
(202,863,o),
(256,863,c),
(256,984,l),
(135,984,o),
(38,886,o),
(38,767,cs),
(38,216,ls),
(38,97,o),
(135,0,o),
(256,0,cs),
(293,0,o),
(326,13,o),
(353,36,c),
(353,-264,ls),
(353,-316,o),
(308,-361,o),
(254,-361,c),
(254,-481,l)
);
}
);
width = 510;
}
);
unicode = 103;
},
{
glyphname = h;
kernLeft = "20";
kernRight = "20";
lastChange = "2024-04-18 14:55:36 +0000";
layers = (
{
hints = (
{
name = _corner.serif;
origin = (0,19);
type = Corner;
},
{
name = _corner.serif;
options = 1;
origin = (0,9);
scale = (-1,1);
type = Corner;
},
{
name = _corner.serif;
options = 1;
origin = (0,18);
scale = (-1,1);
type = Corner;
}
);
layerId = "2138459E-7720-4001-9A22-A006F68CB051";
shapes = (
{
closed = 1;
nodes = (
(199,0,l),
(199,767,ls),
(199,819,o),
(244,863,o),
(297,863,cs),
(349,863,o),
(394,819,o),
(394,767,cs),
(394,0,l),
(514,0,l),
(514,767,ls),
(514,886,o),
(417,984,o),
(297,984,cs),
(259,984,o),
(226,971,o),
(199,948,c),
(199,1461,l),
(79,1461,l),
(79,0,l)
);
}
);
width = 593;
}
);
unicode = 104;
},
{
glyphname = i;
kernLeft = "20";
kernRight = "20";
lastChange = "2024-04-18 14:55:36 +0000";
layers = (
{
hints = (
{
name = _corner.serif;
options = 1;
origin = (0,2);
scale = (-1,1);
type = Corner;
},
{
name = _corner.serif;
options = 2;
origin = (0,3);
type = Corner;
}
);
layerId = "2138459E-7720-4001-9A22-A006F68CB051";
shapes = (
{
closed = 1;
nodes = (
(199,0,l),
(199,984,l),
(79,984,l),
(79,0,l)
);
},
{
closed = 1;
nodes = (
(171,1267,o),
(199,1292,o),
(199,1325,cs),
(199,1360,o),
(171,1387,o),
(137,1387,cs),
(104,1387,o),
(79,1360,o),
(79,1325,cs),
(79,1292,o),
(104,1267,o),
(137,1267,c)
);
}
);
width = 237;
}
);
unicode = 105;
userData = {
KernOnName = i;
};
},
{
glyphname = idotless;
kernLeft = "20";
kernRight = "20";
lastChange = "2024-04-18 14:55:36 +0000";
layers = (
{
anchors = (
{
name = top;
pos = (138,1068);
}
);
hints = (
{
name = _corner.serif;
options = 1;
origin = (0,2);
scale = (-1,1);
type = Corner;
},
{
name = _corner.serif;
options = 2;
origin = (0,3);
type = Corner;
}
);
layerId = "2138459E-7720-4001-9A22-A006F68CB051";
shapes = (
{
closed = 1;
nodes = (
(199,0,l),
(199,984,l),
(79,984,l),
(79,0,l)
);
}
);
width = 237;
}
);
unicode = 305;
},
{
glyphname = ij;
lastChange = "2024-04-18 14:55:36 +0000";
layers = (
{
hints = (
{
name = _corner.serif;
options = 1;
origin = (2,2);
scale = (-1,1);
type = Corner;
},
{
name = _corner.serif;
options = 2;
origin = (2,3);
type = Corner;
},
{
name = _corner.serif;
origin = (0,1);
type = Corner;
}
);
layerId = "2138459E-7720-4001-9A22-A006F68CB051";
shapes = (
{
closed = 1;
nodes = (
(417,-264,l),
(417,984,l),
(297,984,l),
(297,-264,l)
);
},
{
closed = 1;
nodes = (
(320,-481,o),
(417,-384,o),
(417,-264,c),
(297,-264,l),
(297,-316,o),
(253,-361,o),
(199,-361,c),
(199,-481,l)
);
},
{
closed = 1;
nodes = (
(199,0,l),
(199,984,l),
(79,984,l),
(79,0,l)
);
},
{
closed = 1;
nodes = (
(171,1267,o),
(199,1292,o),
(199,1325,cs),
(199,1360,o),
(171,1387,o),
(137,1387,cs),
(104,1387,o),
(79,1360,o),
(79,1325,cs),
(79,1292,o),
(104,1267,o),
(137,1267,c)
);
},
{
closed = 1;
nodes = (
(391,1268,o),
(417,1295,o),
(417,1328,cs),
(417,1363,o),
(391,1388,o),
(357,1388,cs),
(324,1388,o),
(297,1363,o),
(297,1328,cs),
(297,1295,o),
(324,1268,o),
(357,1268,c)
);
}
);
width = 496;
}
);
unicode = 307;
},
{
glyphname = j;
kernRight = "20";
lastChange = "2024-04-18 14:55:36 +0000";
layers = (
{
anchors = (
{
name = top;
pos = (238,1598);
}
);
hints = (
{
name = _corner.serif;
origin = (0,1);
type = Corner;
}
);
layerId = "2138459E-7720-4001-9A22-A006F68CB051";
shapes = (
{
closed = 1;
nodes = (
(256,-264,l),
(256,984,l),
(136,984,l),
(136,-264,l)
);
},
{
closed = 1;
nodes = (
(159,-481,o),
(256,-384,o),
(256,-264,c),
(136,-264,l),
(136,-316,o),
(91,-361,o),
(38,-361,c),
(38,-481,l)
);
},
{
closed = 1;
nodes = (
(229,1268,o),
(256,1295,o),
(256,1328,cs),
(256,1363,o),
(229,1388,o),
(196,1388,cs),
(163,1388,o),
(136,1363,o),
(136,1328,cs),
(136,1295,o),
(163,1268,o),
(196,1268,c)
);
}
);
width = 335;
}
);
unicode = 106;
userData = {
KernOnName = j;
};
},
{
glyphname = jdotless;
lastChange = "2024-04-18 14:55:36 +0000";
layers = (
{
hints = (
{
name = _corner.serif;
origin = (0,1);
type = Corner;
}
);
layerId = "2138459E-7720-4001-9A22-A006F68CB051";
shapes = (
{
closed = 1;
nodes = (
(256,-264,l),
(256,984,l),
(136,984,l),
(136,-264,l)
);
},
{
closed = 1;
nodes = (
(159,-481,o),
(256,-384,o),
(256,-264,c),
(136,-264,l),
(136,-316,o),
(91,-361,o),
(38,-361,c),
(38,-481,l)
);
}
);
width = 335;
}
);
unicode = 567;
},
{
glyphname = k;
kernLeft = "20";
kernRight = "20";
lastChange = "2024-04-18 14:55:36 +0000";
layers = (
{
hints = (
{
name = _corner.serif;
options = 1;
origin = (0,25);
scale = (-1,1);
type = Corner;
},
{
name = _corner.serif;
options = 2;
origin = (0,26);
type = Corner;
}
);
layerId = "2138459E-7720-4001-9A22-A006F68CB051";
shapes = (
{
closed = 1;
nodes = (
(199,0,l),
(199,134,l),
(226,111,o),
(259,98,o),
(297,98,cs),
(349,98,o),
(394,54,o),
(394,0,c),
(514,0,l),
(514,64,o),
(484,121,o),
(440,159,c),
(484,195,o),
(514,252,o),
(514,315,cs),
(514,984,l),
(394,984,l),
(394,315,ls),
(394,263,o),
(349,218,o),
(297,218,cs),
(244,218,o),
(199,263,o),
(199,315,cs),
(199,1461,l),
(79,1461,l),
(79,0,l)
);
}
);
width = 552;
}
);
unicode = 107;
userData = {
KernOnName = k;
};
},
{
glyphname = l;
kernLeft = "20";
kernRight = "20";
lastChange = "2024-04-18 14:55:36 +0000";
layers = (
{
hints = (
{
name = _corner.serif;
options = 1;
origin = (0,2);
scale = (-1,1);
type = Corner;
},
{
name = _corner.serif;
options = 2;
origin = (0,3);
type = Corner;
}
);
layerId = "2138459E-7720-4001-9A22-A006F68CB051";
shapes = (
{
closed = 1;
nodes = (
(200,0,l),
(200,1461,l),
(79,1461,l),
(79,0,l)
);
}
);
width = 238;
}
);
unicode = 108;
userData = {
KernOnName = l;
};
},
{
glyphname = m;
kernLeft = "20";
kernRight = "20";
lastChange = "2024-04-18 14:55:36 +0000";
layers = (
{
hints = (
{
name = _corner.serif;
origin = (0,32);
type = Corner;
},
{
name = _corner.serif;
options = 1;
origin = (0,18);
scale = (-1,1);
type = Corner;
}
);
layerId = "2138459E-7720-4001-9A22-A006F68CB051";
shapes = (
{
closed = 1;
nodes = (
(199,0,l),
(199,767,ls),
(199,819,o),
(244,863,o),
(297,863,cs),
(349,863,o),
(394,819,o),
(394,767,cs),
(394,0,l),
(514,0,l),
(514,767,ls),
(514,819,o),
(558,863,o),
(612,863,cs),
(664,863,o),
(708,819,o),
(708,767,cs),
(708,0,l),
(828,0,l),
(828,767,ls),
(828,886,o),
(732,984,o),
(612,984,cs),
(548,984,o),
(491,954,o),
(454,909,c),
(417,954,o),
(360,984,o),
(297,984,cs),
(176,984,o),
(79,886,o),
(79,767,cs),
(79,0,l)
);
}
);
width = 907;
}
);
unicode = 109;
},
{
glyphname = n;
kernLeft = "20";
kernRight = "20";
lastChange = "2024-04-18 14:55:36 +0000";
layers = (
{
anchors = (
{
name = top;
pos = (297,1068);
}
);
hints = (
{
name = _corner.serif;
origin = (1,3);
type = Corner;
},
{
name = _corner.serif;
options = 1;
origin = (2,0);
scale = (-1,1);
type = Corner;
}
);
layerId = "2138459E-7720-4001-9A22-A006F68CB051";
shapes = (
{
closed = 1;
nodes = (
(199,767,l),
(199,819,o),
(244,863,o),
(297,863,cs),
(349,863,o),
(394,819,o),
(394,767,c),
(514,767,l),
(514,886,o),
(417,984,o),
(297,984,cs),
(176,984,o),
(79,886,o),
(79,767,c)
);
},
{
closed = 1;
nodes = (
(199,0,l),
(199,767,l),
(79,767,l),
(79,0,l)
);
},
{
closed = 1;
nodes = (
(514,0,l),
(514,767,l),
(394,767,l),
(394,0,l)
);
}
);
width = 593;
}
);
unicode = 110;
userData = {
KernOnName = n;
};
},
{
glyphname = o;
kernLeft = "20";
kernRight = "20";
lastChange = "2024-04-18 14:55:36 +0000";
layers = (
{
anchors = (
{
name = top;
pos = (256,1068);
}
);
layerId = "2138459E-7720-4001-9A22-A006F68CB051";
shapes = (
{
closed = 1;
nodes = (
(158,767,l),
(158,819,o),
(202,863,o),
(256,863,cs),
(308,863,o),
(353,819,o),
(353,767,c),
(473,767,l),
(473,886,o),
(375,984,o),
(256,984,cs),
(135,984,o),
(38,886,o),
(38,767,c)
);
},
{
closed = 1;
nodes = (
(375,0,o),
(473,97,o),
(473,216,c),
(353,216,l),
(353,165,o),
(308,120,o),
(256,120,cs),
(202,120,o),
(158,165,o),
(158,216,c),
(38,216,l),
(38,97,o),
(135,0,o),
(256,0,cs)
);
},
{
closed = 1;
nodes = (
(158,216,l),
(158,767,l),
(38,767,l),
(38,216,l)
);
},
{
closed = 1;
nodes = (
(473,216,l),
(473,767,l),
(353,767,l),
(353,216,l)
);
}
);
width = 510;
}
);
unicode = 111;
userData = {
KernOnName = o;
};
},
{
glyphname = oslash;
kernLeft = "20";
kernRight = "20";
lastChange = "2024-04-18 14:55:36 +0000";
layers = (
{
anchors = (
{
name = top;
pos = (476,565);
}
);
layerId = "2138459E-7720-4001-9A22-A006F68CB051";
shapes = (
{
closed = 1;
nodes = (
(158,767,l),
(158,819,o),
(202,863,o),
(256,863,cs),
(308,863,o),
(353,819,o),
(353,767,c),
(473,767,l),
(473,886,o),
(375,984,o),
(256,984,cs),
(135,984,o),
(38,886,o),
(38,767,c)
);
},
{
closed = 1;
nodes = (
(166,0,l),
(216,98,l),
(112,149,l),
(38,0,l)
);
},
{
closed = 1;
nodes = (
(375,0,o),
(473,97,o),
(473,216,c),
(353,216,l),
(353,165,o),
(308,120,o),
(256,120,cs),
(202,120,o),
(158,165,o),
(158,216,c),
(38,216,l),
(38,97,o),
(135,0,o),
(256,0,cs)
);
},
{
closed = 1;
nodes = (
(158,216,l),
(158,767,l),
(38,767,l),
(38,216,l)
);
},
{
closed = 1;
nodes = (
(473,216,l),
(473,767,l),
(353,767,l),
(353,216,l)
);
},
{
closed = 1;
nodes = (
(473,984,l),
(345,984,l),
(305,910,l),
(405,849,l)
);
}
);
width = 510;
}
);
unicode = 248;
},
{
glyphname = oe;
kernLeft = "20";
kernRight = "20";
lastChange = "2024-04-18 14:55:36 +0000";
layers = (
{
layerId = "2138459E-7720-4001-9A22-A006F68CB051";
shapes = (
{
closed = 1;
nodes = (
(319,0,o),
(376,30,o),
(413,74,c),
(450,30,o),
(507,0,o),
(571,0,c),
(571,120,l),
(517,120,o),
(473,165,o),
(473,216,cs),
(473,767,ls),
(473,819,o),
(517,863,o),
(571,863,cs),
(622,863,o),
(667,819,o),
(667,767,c),
(574,767,l),
(574,647,l),
(787,647,l),
(787,767,ls),
(787,886,o),
(690,984,o),
(571,984,cs),
(507,984,o),
(450,954,o),
(413,909,c),
(376,954,o),
(319,984,o),
(256,984,cs),
(135,984,o),
(38,886,o),
(38,767,cs),
(38,216,ls),
(38,97,o),
(135,0,o),
(256,0,cs)
);
},
{
closed = 1;
nodes = (
(202,120,o),
(158,165,o),
(158,216,cs),
(158,767,ls),
(158,819,o),
(202,863,o),
(256,863,cs),
(308,863,o),
(353,819,o),
(353,767,cs),
(353,216,ls),
(353,165,o),
(308,120,o),
(256,120,cs)
);
}
);
width = 825;
}
);
unicode = 339;
},
{
glyphname = p;
kernLeft = "20";
kernRight = "20";
lastChange = "2024-04-18 14:55:36 +0000";
layers = (
{
hints = (
{
name = _corner.serif;
origin = (0,3);
type = Corner;
}
);
layerId = "2138459E-7720-4001-9A22-A006F68CB051";
shapes = (
{
closed = 1;
nodes = (
(199,-478,l),
(199,767,l),
(79,767,l),
(79,-478,l)
);
},
{
closed = 1;
nodes = (
(417,0,o),
(514,97,o),
(514,216,c),
(394,216,l),
(394,165,o),
(349,120,o),
(295,120,c),
(295,0,l)
);
},
{
closed = 1;
nodes = (
(514,216,l),
(514,767,l),
(394,767,l),
(394,216,l)
);
},
{
closed = 1;
nodes = (
(199,767,l),
(199,819,o),
(244,863,o),
(295,863,cs),
(349,863,o),
(394,819,o),
(394,767,c),
(514,767,l),
(514,886,o),
(417,984,o),
(295,984,cs),
(176,984,o),
(79,886,o),
(79,767,c)
);
}
);
width = 552;
}
);
unicode = 112;
userData = {
KernOnName = p;
};
},
{
glyphname = thorn;
lastChange = "2024-04-18 14:55:36 +0000";
layers = (
{
layerId = "2138459E-7720-4001-9A22-A006F68CB051";
shapes = (
{
closed = 1;
nodes = (
(158,-478,l),
(158,1461,l),
(38,1461,l),
(38,-478,l)
);
},
{
closed = 1;
nodes = (
(375,0,o),
(473,97,o),
(473,216,c),
(353,216,l),
(353,165,o),
(308,120,o),
(254,120,c),
(254,0,l)
);
},
{
closed = 1;
nodes = (
(473,216,l),
(473,767,l),
(353,767,l),
(353,216,l)
);
},
{
closed = 1;
nodes = (
(158,767,l),
(158,819,o),
(202,863,o),
(254,863,cs),
(308,863,o),
(353,819,o),
(353,767,c),
(473,767,l),
(473,886,o),
(375,984,o),
(254,984,cs),
(135,984,o),
(38,886,o),
(38,767,c)
);
}
);
width = 510;
}
);
unicode = 254;
},
{
glyphname = q;
kernLeft = "20";
kernRight = "20";
lastChange = "2024-04-18 14:55:36 +0000";
layers = (
{
layerId = "2138459E-7720-4001-9A22-A006F68CB051";
shapes = (
{
closed = 1;
nodes = (
(473,-96,l),
(473,-34,o),
(443,23,o),
(398,61,c),
(443,97,o),
(473,154,o),
(473,216,cs),
(473,767,ls),
(473,886,o),
(375,984,o),
(256,984,cs),
(135,984,o),
(38,886,o),
(38,767,cs),
(38,216,ls),
(38,97,o),
(135,0,o),
(256,0,cs),
(308,0,o),
(353,-45,o),
(353,-96,c)
);
},
{
closed = 1;
nodes = (
(202,120,o),
(158,165,o),
(158,216,cs),
(158,767,ls),
(158,819,o),
(202,863,o),
(256,863,cs),
(308,863,o),
(353,819,o),
(353,767,cs),
(353,216,ls),
(353,165,o),
(308,120,o),
(256,120,cs)
);
}
);
width = 510;
}
);
unicode = 113;
},
{
glyphname = r;
kernLeft = "20";
kernRight = "20";
lastChange = "2024-04-18 14:55:36 +0000";
layers = (
{
hints = (
{
name = _corner.serif;
origin = (0,3);
type = Corner;
}
);
layerId = "2138459E-7720-4001-9A22-A006F68CB051";
shapes = (
{
closed = 1;
nodes = (
(199,0,l),
(199,767,l),
(79,767,l),
(79,0,l)
);
},
{
closed = 1;
nodes = (
(199,767,l),
(199,819,o),
(244,863,o),
(297,863,c),
(297,984,l),
(176,984,o),
(79,886,o),
(79,767,c)
);
}
);
width = 335;
}
);
unicode = 114;
userData = {
KernOnName = r;
};
},
{
glyphname = s;
kernLeft = "20";
kernRight = "20";
lastChange = "2024-04-18 14:55:36 +0000";
layers = (
{
anchors = (
{
name = top;
pos = (256,1068);
}
);
layerId = "2138459E-7720-4001-9A22-A006F68CB051";
shapes = (
{
closed = 1;
nodes = (
(375,0,o),
(473,97,o),
(473,216,cs),
(473,551,l),
(158,551,l),
(158,767,ls),
(158,819,o),
(202,863,o),
(256,863,cs),
(282,863,o),
(306,853,o),
(323,834,c),
(409,920,l),
(370,958,o),
(316,984,o),
(256,984,cs),
(135,984,o),
(38,886,o),
(38,767,cs),
(38,431,l),
(353,431,l),
(353,216,ls),
(353,165,o),
(308,120,o),
(254,120,cs),
(228,120,o),
(204,131,o),
(186,149,c),
(101,64,l),
(140,25,o),
(194,0,o),
(254,0,cs)
);
}
);
width = 510;
}
);
unicode = 115;
},
{
glyphname = germandbls;
kernLeft = "20";
kernRight = "20";
lastChange = "2024-04-18 14:55:36 +0000";
layers = (
{
layerId = "2138459E-7720-4001-9A22-A006F68CB051";
shapes = (
{
closed = 1;
nodes = (
(158,0,l),
(158,1245,l),
(38,1245,l),
(38,0,l)
);
},
{
closed = 1;
nodes = (
(473,0,l),
(473,433,l),
(353,433,l),
(353,0,l)
);
},
{
closed = 1;
nodes = (
(473,433,l),
(473,553,o),
(375,650,o),
(256,650,c),
(256,530,l),
(308,530,o),
(353,485,o),
(353,433,c)
);
},
{
closed = 1;
nodes = (
(375,530,o),
(473,626,o),
(473,746,c),
(353,746,l),
(353,694,o),
(308,650,o),
(256,650,c),
(256,530,l)
);
},
{
closed = 1;
nodes = (
(473,746,l),
(473,1245,l),
(353,1245,l),
(353,746,l)
);
},
{
closed = 1;
nodes = (
(158,1245,l),
(158,1296,o),
(202,1341,o),
(256,1341,cs),
(308,1341,o),
(353,1296,o),
(353,1245,c),
(473,1245,l),
(473,1364,o),
(375,1461,o),
(256,1461,cs),
(135,1461,o),
(38,1364,o),
(38,1245,c)
);
}
);
width = 510;
}
);
unicode = 223;
},
{
glyphname = t;
kernLeft = "20";
kernRight = "20";
lastChange = "2024-04-18 14:55:36 +0000";
layers = (
{
hints = (
{
name = _corner.serif;
options = 1;
origin = (0,2);
scale = (-1,1);
type = Corner;
}
);
layerId = "2138459E-7720-4001-9A22-A006F68CB051";
shapes = (
{
closed = 1;
nodes = (
(199,216,l),
(199,1461,l),
(79,1461,l),
(79,216,l)
);
},
{
closed = 1;
nodes = (
(297,120,l),
(244,120,o),
(199,165,o),
(199,216,c),
(79,216,l),
(79,97,o),
(176,0,o),
(297,0,c)
);
},
{
closed = 1;
nodes = (
(297,863,l),
(297,984,l),
(91,984,l),
(91,863,l)
);
}
);
width = 335;
}
);
unicode = 116;
},
{
glyphname = u;
kernLeft = "20";
kernRight = "20";
lastChange = "2024-04-18 14:55:36 +0000";
layers = (
{
anchors = (
{
name = top;
pos = (297,1068);
}
);
hints = (
{
name = _corner.serif;
options = 1;
origin = (1,2);
scale = (-1,1);
type = Corner;
},
{
name = _corner.serif;
origin = (2,1);
type = Corner;
}
);
layerId = "2138459E-7720-4001-9A22-A006F68CB051";
shapes = (
{
closed = 1;
nodes = (
(417,0,o),
(514,97,o),
(514,216,c),
(394,216,l),
(394,165,o),
(349,120,o),
(297,120,cs),
(244,120,o),
(199,165,o),
(199,216,c),
(79,216,l),
(79,97,o),
(176,0,o),
(297,0,cs)
);
},
{
closed = 1;
nodes = (
(199,216,l),
(199,984,l),
(79,984,l),
(79,216,l)
);
},
{
closed = 1;
nodes = (
(514,216,l),
(514,984,l),
(394,984,l),
(394,216,l)
);
}
);
width = 593;
}
);
unicode = 117;
},
{
glyphname = v;
kernLeft = "20";
kernRight = "20";
lastChange = "2024-04-18 14:55:36 +0000";
layers = (
{
hints = (
{
name = _corner.serif;
options = 1;
origin = (0,1);
scale = (-1,1);
type = Corner;
},
{
name = _corner.serif;
origin = (0,6);
type = Corner;
}
);
layerId = "2138459E-7720-4001-9A22-A006F68CB051";
shapes = (
{
closed = 1;
nodes = (
(184,984,l),
(64,984,l),
(132,141,ls),
(149,-48,o),
(415,-48,o),
(433,141,cs),
(499,984,l),
(379,984,l),
(322,159,ls),
(319,105,o),
(247,105,o),
(243,159,cs)
);
}
);
width = 563;
}
);
unicode = 118;
},
{
glyphname = w;
kernLeft = "20";
kernRight = "20";
lastChange = "2024-04-18 14:55:36 +0000";
layers = (
{
anchors = (
{
name = top;
pos = (453,1068);
}
);
hints = (
{
name = _corner.serif;
options = 1;
origin = (2,2);
scale = (-1,1);
type = Corner;
},
{
name = _corner.serif;
origin = (4,1);
type = Corner;
}
);
layerId = "2138459E-7720-4001-9A22-A006F68CB051";
shapes = (
{
closed = 1;
nodes = (
(732,0,o),
(828,97,o),
(828,216,c),
(708,216,l),
(708,165,o),
(664,120,o),
(612,120,cs),
(558,120,o),
(514,165,o),
(514,216,c),
(394,216,l),
(394,97,o),
(491,0,o),
(612,0,cs)
);
},
{
closed = 1;
nodes = (
(417,0,o),
(514,97,o),
(514,216,c),
(394,216,l),
(394,165,o),
(349,120,o),
(297,120,cs),
(244,120,o),
(199,165,o),
(199,216,c),
(79,216,l),
(79,97,o),
(176,0,o),
(297,0,cs)
);
},
{
closed = 1;
nodes = (
(199,216,l),
(199,984,l),
(79,984,l),
(79,216,l)
);
},
{
closed = 1;
nodes = (
(514,216,l),
(514,984,l),
(394,984,l),
(394,216,l)
);
},
{
closed = 1;
nodes = (
(828,216,l),
(828,984,l),
(708,984,l),
(708,216,l)
);
}
);
width = 907;
}
);
unicode = 119;
},
{
glyphname = x;
kernLeft = "20";
kernRight = "20";
lastChange = "2024-04-18 14:55:36 +0000";
layers = (
{
hints = (
{
name = _corner.serif;
options = 1;
origin = (2,2);
scale = (-1,1);
type = Corner;
},
{
name = _corner.serif;
origin = (3,1);
type = Corner;
}
);
layerId = "2138459E-7720-4001-9A22-A006F68CB051";
shapes = (
{
closed = 1;
nodes = (
(417,96,o),
(514,193,o),
(514,313,c),
(394,313,l),
(394,261,o),
(349,216,o),
(297,216,cs),
(244,216,o),
(199,261,o),
(199,313,c),
(79,313,l),
(79,193,o),
(176,96,o),
(297,96,cs)
);
},
{
closed = 1;
nodes = (
(199,0,l),
(199,52,o),
(244,96,o),
(297,96,cs),
(349,96,o),
(394,52,o),
(394,0,c),
(514,0,l),
(514,120,o),
(417,216,o),
(297,216,cs),
(176,216,o),
(79,120,o),
(79,0,c)
);
},
{
closed = 1;
nodes = (
(199,313,l),
(199,984,l),
(79,984,l),
(79,313,l)
);
},
{
closed = 1;
nodes = (
(514,313,l),
(514,984,l),
(394,984,l),
(394,313,l)
);
}
);
width = 593;
}
);
unicode = 120;
},
{
glyphname = y;
kernLeft = "20";
kernRight = "20";
lastChange = "2024-04-18 14:55:36 +0000";
layers = (
{
anchors = (
{
name = top;
pos = (297,1068);
}
);
hints = (
{
name = _corner.serif;
origin = (0,1);
type = Corner;
},
{
name = _corner.serif;
options = 1;
origin = (3,2);
scale = (-1,1);
type = Corner;
}
);
layerId = "2138459E-7720-4001-9A22-A006F68CB051";
shapes = (
{
closed = 1;
nodes = (
(514,-264,l),
(514,984,l),
(394,984,l),
(394,-264,l)
);
},
{
closed = 1;
nodes = (
(417,-481,o),
(514,-384,o),
(514,-264,c),
(394,-264,l),
(394,-316,o),
(349,-361,o),
(295,-361,c),
(295,-481,l)
);
},
{
closed = 1;
nodes = (
(417,0,o),
(514,97,o),
(514,216,c),
(394,216,l),
(394,165,o),
(349,120,o),
(297,120,cs),
(244,120,o),
(199,165,o),
(199,216,c),
(79,216,l),
(79,97,o),
(176,0,o),
(297,0,cs)
);
},
{
closed = 1;
nodes = (
(199,216,l),
(199,984,l),
(79,984,l),
(79,216,l)
);
}
);
width = 593;
}
);
unicode = 121;
},
{
glyphname = z;
kernLeft = "20";
kernRight = "20";
lastChange = "2024-04-18 14:55:36 +0000";
layers = (
{
anchors = (
{
name = top;
pos = (236,1068);
}
);
layerId = "2138459E-7720-4001-9A22-A006F68CB051";
shapes = (
{
closed = 1;
nodes = (
(162,0,l),
(429,984,l),
(304,984,l),
(38,0,l)
);
},
{
closed = 1;
nodes = (
(277,0,l),
(277,120,l),
(113,120,l),
(42,0,l)
);
},
{
closed = 1;
nodes = (
(335,0,o),
(391,25,o),
(429,63,c),
(344,149,l),
(325,130,o),
(302,120,o),
(277,120,c),
(277,0,l)
);
},
{
closed = 1;
nodes = (
(141,853,o),
(164,863,o),
(190,863,c),
(190,984,l),
(131,984,o),
(76,958,o),
(38,920,c),
(122,834,l)
);
},
{
closed = 1;
nodes = (
(352,863,l),
(425,984,l),
(190,984,l),
(190,863,l)
);
}
);
width = 466;
}
);
unicode = 122;
},
{
glyphname = ordfeminine;
kernLeft = "20";
kernRight = "20";
lastChange = "2024-04-18 14:55:36 +0000";
layers = (
{
layerId = "2138459E-7720-4001-9A22-A006F68CB051";
shapes = (
{
closed = 1;
nodes = (
(95,1441,l),
(95,1482,o),
(131,1518,o),
(174,1518,cs),
(216,1518,o),
(251,1482,o),
(251,1441,c),
(309,1441,l),
(309,1515,o),
(249,1576,o),
(174,1576,cs),
(98,1576,o),
(38,1515,o),
(38,1441,c)
);
},
{
closed = 1;
nodes = (
(174,1242,l),
(131,1242,o),
(95,1276,o),
(95,1318,c),
(38,1318,l),
(38,1243,o),
(98,1183,o),
(174,1183,c)
);
},
{
closed = 1;
nodes = (
(95,1318,l),
(95,1441,l),
(38,1441,l),
(38,1318,l)
);
},
{
closed = 1;
nodes = (
(309,1183,l),
(309,1441,l),
(251,1441,l),
(251,1183,l)
);
}
);
width = 347;
}
);
unicode = 170;
userData = {
KernOnSpecialSpacing = {
L = superiors;
R = superiors;
};
};
},
{
glyphname = ordmasculine;
kernLeft = "20";
kernRight = "20";
lastChange = "2024-04-18 14:55:36 +0000";
layers = (
{
layerId = "2138459E-7720-4001-9A22-A006F68CB051";
shapes = (
{
closed = 1;
nodes = (
(95,1437,l),
(95,1478,o),
(131,1514,o),
(174,1514,cs),
(215,1514,o),
(251,1478,o),
(251,1437,c),
(309,1437,l),
(309,1512,o),
(248,1572,o),
(174,1572,cs),
(98,1572,o),
(38,1512,o),
(38,1437,c)
);
},
{
closed = 1;
nodes = (
(248,1179,o),
(309,1241,o),
(309,1315,c),
(251,1315,l),
(251,1274,o),
(215,1238,o),
(174,1238,cs),
(131,1238,o),
(95,1274,o),
(95,1315,c),
(38,1315,l),
(38,1241,o),
(98,1179,o),
(174,1179,cs)
);
},
{
closed = 1;
nodes = (
(95,1315,l),
(95,1437,l),
(38,1437,l),
(38,1315,l)
);
},
{
closed = 1;
nodes = (
(309,1315,l),
(309,1437,l),
(251,1437,l),
(251,1315,l)
);
}
);
width = 347;
}
);
unicode = 186;
userData = {
KernOnSpecialSpacing = {
L = superiors;
R = superiors;
};
};
},
{
glyphname = "Be-cy";
lastChange = "2024-04-18 14:55:36 +0000";
layers = (
{
hints = (
{
name = _corner.serif;
origin = (0,26);
type = Corner;
}
);
layerId = "2138459E-7720-4001-9A22-A006F68CB051";
shapes = (
{
closed = 1;
nodes = (
(446,0,o),
(552,106,o),
(552,235,cs),
(552,877,ls),
(552,1006,o),
(446,1111,o),
(317,1111,c),
(317,991,l),
(379,991,o),
(432,939,o),
(432,877,cs),
(432,235,ls),
(432,172,o),
(379,120,o),
(314,120,c),
(199,120,l),
(199,1341,l),
(317,1341,ls),
(379,1341,o),
(432,1289,o),
(432,1226,c),
(552,1226,l),
(552,1355,o),
(446,1461,o),
(317,1461,cs),
(79,1461,l),
(79,0,l),
(314,0,l)
);
}
);
width = 589;
}
);
unicode = 1041;
},
{
glyphname = "De-cy";
lastChange = "2024-04-18 14:55:36 +0000";
layers = (
{
hints = (
{
name = _corner.serif;
origin = (0,0);
type = Corner;
},
{
name = _corner.serif;
options = 1;
origin = (0,7);
scale = (-1,1);
type = Corner;
}
);
layerId = "2138459E-7720-4001-9A22-A006F68CB051";
shapes = (
{
closed = 1;
nodes = (
(66,0,l),
(186,0,l),
(275,1305,ls),
(277,1354,o),
(329,1354,o),
(330,1305,cs),
(417,0,l),
(537,0,l),
(445,1333,ls),
(428,1518,o),
(177,1518,o),
(161,1333,cs)
);
},
{
closed = 1;
nodes = (
(120,0,l),
(495,0,l),
(495,120,l),
(120,120,l)
);
}
);
width = 603;
}
);
unicode = 1044;
},
{
glyphname = "Zhe-cy";
lastChange = "2024-04-18 14:55:36 +0000";
layers = (
{
hints = (
{
name = _corner.serif;
options = 1;
origin = (1,0);
scale = (-1,1);
type = Corner;
},
{
name = _corner.serif;
origin = (5,2);
type = Corner;
}
);
layerId = "2138459E-7720-4001-9A22-A006F68CB051";
shapes = (
{
closed = 1;
nodes = (
(552,0,l),
(552,1461,l),
(432,1461,l),
(432,0,l)
);
},
{
closed = 1;
nodes = (
(904,0,l),
(904,366,l),
(784,366,l),
(784,0,l)
);
},
{
closed = 1;
nodes = (
(552,366,l),
(552,429,o),
(604,481,o),
(669,481,cs),
(732,481,o),
(784,429,o),
(784,366,c),
(904,366,l),
(904,495,o),
(799,601,o),
(669,601,cs),
(537,601,o),
(432,495,o),
(432,366,c)
);
},
{
closed = 1;
nodes = (
(799,481,o),
(904,586,o),
(904,716,c),
(784,716,l),
(784,653,o),
(732,601,o),
(669,601,c),
(669,481,l)
);
},
{
closed = 1;
nodes = (
(904,716,l),
(904,1461,l),
(784,1461,l),
(784,716,l)
);
},
{
closed = 1;
nodes = (
(199,366,l),
(79,366,l),
(79,0,l),
(199,0,l)
);
},
{
closed = 1;
nodes = (
(552,495,o),
(446,601,o),
(314,601,cs),
(185,601,o),
(79,495,o),
(79,366,c),
(199,366,l),
(199,429,o),
(251,481,o),
(314,481,cs),
(379,481,o),
(432,429,o),
(432,366,c),
(552,366,l)
);
},
{
closed = 1;
nodes = (
(314,601,l),
(251,601,o),
(199,653,o),
(199,716,c),
(79,716,l),
(79,586,o),
(185,481,o),
(314,481,c)
);
},
{
closed = 1;
nodes = (
(199,1461,l),
(79,1461,l),
(79,716,l),
(199,716,l)
);
}
);
width = 983;
}
);
unicode = 1046;
},
{
glyphname = "Ii-cy";
lastChange = "2024-04-18 14:55:36 +0000";
layers = (
{
hints = (
{
name = _corner.serif;
options = 1;
origin = (3,0);
scale = (-1,1);
type = Corner;
}
);
layerId = "2138459E-7720-4001-9A22-A006F68CB051";
shapes = (
{
closed = 1;
nodes = (
(158,0,l),
(158,1461,l),
(38,1461,l),
(38,0,l)
);
},
{
closed = 1;
nodes = (
(274,0,l),
(274,120,l),
(47,120,l),
(47,0,l)
);
},
{
closed = 1;
nodes = (
(405,0,o),
(510,106,o),
(510,235,c),
(390,235,l),
(390,172,o),
(338,120,o),
(274,120,c),
(274,0,l)
);
},
{
closed = 1;
nodes = (
(510,0,l),
(510,1461,l),
(390,1461,l),
(390,0,l)
);
}
);
width = 589;
}
);
unicode = 1048;
},
{
glyphname = "Iishort-cy";
lastChange = "2024-04-18 14:55:36 +0000";
layers = (
{
hints = (
{
name = _corner.serif;
options = 1;
origin = (3,0);
scale = (-1,1);
type = Corner;
}
);
layerId = "2138459E-7720-4001-9A22-A006F68CB051";
shapes = (
{
closed = 1;
nodes = (
(158,0,l),
(158,1461,l),
(38,1461,l),
(38,0,l)
);
},
{
closed = 1;
nodes = (
(274,0,l),
(274,120,l),
(47,120,l),
(47,0,l)
);
},
{
closed = 1;
nodes = (
(405,0,o),
(510,106,o),
(510,235,c),
(390,235,l),
(390,172,o),
(338,120,o),
(274,120,c),
(274,0,l)
);
},
{
closed = 1;
nodes = (
(510,0,l),
(510,1461,l),
(390,1461,l),
(390,0,l)
);
},
{
closed = 1;
nodes = (
(353,1639,o),
(421,1705,o),
(421,1784,c),
(350,1784,l),
(350,1744,o),
(315,1710,o),
(275,1710,cs),
(233,1710,o),
(198,1744,o),
(198,1784,c),
(127,1784,l),
(127,1705,o),
(193,1639,o),
(275,1639,cs)
);
}
);
width = 589;
}
);
unicode = 1049;
},
{
glyphname = "Em-cy";
lastChange = "2024-04-18 14:55:36 +0000";
layers = (
{
hints = (
{
name = _corner.serif;
options = 1;
origin = (0,0);
scale = (-1,1);
type = Corner;
},
{
name = _corner.serif;
origin = (1,3);
type = Corner;
}
);
layerId = "2138459E-7720-4001-9A22-A006F68CB051";
shapes = (
{
closed = 1;
nodes = (
(904,0,l),
(904,1461,l),
(784,1461,l),
(784,0,l)
);
},
{
closed = 1;
nodes = (
(199,0,l),
(199,1461,l),
(79,1461,l),
(79,0,l)
);
},
{
closed = 1;
nodes = (
(552,0,l),
(552,1226,l),
(432,1226,l),
(432,0,l)
);
},
{
closed = 1;
nodes = (
(317,1341,l),
(317,1461,l),
(124,1461,l),
(124,1341,l)
);
},
{
closed = 1;
nodes = (
(552,1226,l),
(552,1355,o),
(446,1461,o),
(317,1461,c),
(317,1341,l),
(379,1341,o),
(432,1289,o),
(432,1226,c)
);
},
{
closed = 1;
nodes = (
(552,1226,l),
(552,1289,o),
(604,1341,o),
(669,1341,c),
(669,1461,l),
(537,1461,o),
(432,1355,o),
(432,1226,c)
);
},
{
closed = 1;
nodes = (
(849,1341,l),
(849,1461,l),
(669,1461,l),
(669,1341,l)
);
}
);
width = 983;
}
);
unicode = 1052;
},
{
glyphname = "Pe-cy";
lastChange = "2024-04-18 14:55:36 +0000";
layers = (
{
anchors = (
{
name = top;
pos = (314,1546);
}
);
hints = (
{
name = _corner.serif;
options = 1;
origin = (0,7);
scale = (-1,1);
type = Corner;
},
{
name = _corner.serif;
origin = (0,13);
type = Corner;
}
);
layerId = "2138459E-7720-4001-9A22-A006F68CB051";
shapes = (
{
closed = 1;
nodes = (
(199,0,l),
(199,1341,l),
(317,1341,ls),
(379,1341,o),
(432,1289,o),
(432,1226,cs),
(432,0,l),
(552,0,l),
(552,1226,ls),
(552,1355,o),
(446,1461,o),
(317,1461,cs),
(79,1461,l),
(79,0,l)
);
}
);
width = 631;
}
);
unicode = 1055;
},
{
glyphname = "U-cy";
lastChange = "2024-04-18 14:55:36 +0000";
layers = (
{
anchors = (
{
name = top;
pos = (316,1546);
}
);
hints = (
{
name = _corner.serif;
options = 1;
origin = (1,3);
scale = (-1,1);
type = Corner;
},
{
name = _corner.serif;
origin = (3,2);
type = Corner;
}
);
layerId = "2138459E-7720-4001-9A22-A006F68CB051";
shapes = (
{
closed = 1;
nodes = (
(79,966,o),
(185,860,o),
(317,860,cs),
(446,860,o),
(552,966,o),
(552,1095,c),
(432,1095,l),
(432,1032,o),
(379,980,o),
(317,980,cs),
(251,980,o),
(199,1032,o),
(199,1095,c),
(79,1095,l)
);
},
{
closed = 1;
nodes = (
(79,1095,l),
(199,1095,l),
(199,1461,l),
(79,1461,l)
);
},
{
closed = 1;
nodes = (
(79,106,o),
(185,0,o),
(317,0,cs),
(446,0,o),
(552,106,o),
(552,235,c),
(432,235,l),
(432,172,o),
(379,120,o),
(317,120,cs),
(251,120,o),
(199,172,o),
(199,235,c),
(79,235,l)
);
},
{
closed = 1;
nodes = (
(432,235,l),
(552,235,l),
(552,1461,l),
(432,1461,l)
);
}
);
width = 631;
}
);
unicode = 1059;
},
{
glyphname = "Ef-cy";
lastChange = "2024-04-18 14:55:36 +0000";
layers = (
{
hints = (
{
name = _corner.serif;
options = 1;
origin = (0,0);
scale = (-1,1);
type = Corner;
},
{
name = _corner.serif;
origin = (0,28);
type = Corner;
}
);
layerId = "2138459E-7720-4001-9A22-A006F68CB051";
shapes = (
{
closed = 1;
nodes = (
(510,0,l),
(510,521,l),
(542,497,o),
(582,481,o),
(628,481,cs),
(757,481,o),
(863,586,o),
(863,716,cs),
(863,1226,ls),
(863,1355,o),
(757,1461,o),
(628,1461,cs),
(555,1461,o),
(492,1427,o),
(451,1377,c),
(409,1427,o),
(346,1461,o),
(272,1461,cs),
(143,1461,o),
(38,1355,o),
(38,1226,cs),
(38,716,ls),
(38,586,o),
(143,481,o),
(272,481,cs),
(319,481,o),
(359,497,o),
(390,521,c),
(390,0,l)
);
},
{
closed = 1;
nodes = (
(210,601,o),
(158,653,o),
(158,716,cs),
(158,1226,ls),
(158,1289,o),
(210,1341,o),
(272,1341,cs),
(338,1341,o),
(390,1289,o),
(390,1226,cs),
(390,716,ls),
(390,653,o),
(338,601,o),
(272,601,cs)
);
},
{
closed = 1;
nodes = (
(562,601,o),
(510,653,o),
(510,716,cs),
(510,1226,ls),
(510,1289,o),
(562,1341,o),
(628,1341,cs),
(691,1341,o),
(743,1289,o),
(743,1226,cs),
(743,716,ls),
(743,653,o),
(691,601,o),
(628,601,cs)
);
}
);
width = 901;
}
);
unicode = 1060;
},
{
glyphname = "Tse-cy";
lastChange = "2024-04-18 14:55:36 +0000";
layers = (
{
hints = (
{
name = _corner.serif;
options = 1;
origin = (0,2);
scale = (-1,1);
type = Corner;
},
{
name = _corner.serif;
origin = (3,1);
type = Corner;
}
);
layerId = "2138459E-7720-4001-9A22-A006F68CB051";
shapes = (
{
closed = 1;
nodes = (
(199,0,l),
(199,1461,l),
(79,1461,l),
(79,0,l)
);
},
{
closed = 1;
nodes = (
(316,0,l),
(316,120,l),
(88,120,l),
(88,0,l)
);
},
{
closed = 1;
nodes = (
(446,0,o),
(552,106,o),
(552,235,c),
(432,235,l),
(432,172,o),
(379,120,o),
(316,120,c),
(316,0,l)
);
},
{
closed = 1;
nodes = (
(552,120,l),
(552,1461,l),
(432,1461,l),
(432,120,l)
);
},
{
closed = 1;
nodes = (
(669,5,l),
(604,5,o),
(552,57,o),
(552,120,c),
(432,120,l),
(432,-9,o),
(537,-115,o),
(669,-115,c)
);
}
);
width = 707;
}
);
unicode = 1062;
},
{
glyphname = "Shcha-cy";
lastChange = "2024-04-18 14:55:36 +0000";
layers = (
{
anchors = (
{
name = top;
pos = (491,1546);
}
);
hints = (
{
name = _corner.serif;
options = 1;
origin = (0,26);
scale = (-1,1);
type = Corner;
},
{
name = _corner.serif;
origin = (1,4);
type = Corner;
}
);
layerId = "2138459E-7720-4001-9A22-A006F68CB051";
shapes = (
{
closed = 1;
nodes = (
(387,0,o),
(451,34,o),
(492,84,c),
(533,34,o),
(597,0,o),
(669,0,cs),
(799,0,o),
(904,106,o),
(904,235,c),
(784,235,l),
(784,172,o),
(732,120,o),
(669,120,cs),
(604,120,o),
(552,172,o),
(552,235,cs),
(552,1461,l),
(432,1461,l),
(432,235,ls),
(432,172,o),
(379,120,o),
(317,120,cs),
(251,120,o),
(199,172,o),
(199,235,cs),
(199,1461,l),
(79,1461,l),
(79,235,ls),
(79,106,o),
(185,0,o),
(317,0,cs)
);
},
{
closed = 1;
nodes = (
(1022,5,l),
(956,5,o),
(904,57,o),
(904,120,cs),
(904,1461,l),
(784,1461,l),
(784,120,ls),
(784,-9,o),
(890,-115,o),
(1022,-115,c)
);
}
);
width = 1060;
}
);
unicode = 1065;
},
{
glyphname = "Softsign-cy";
lastChange = "2024-04-18 14:55:36 +0000";
layers = (
{
hints = (
{
name = _corner.serif;
options = 1;
origin = (0,11);
scale = (-1,1);
type = Corner;
}
);
layerId = "2138459E-7720-4001-9A22-A006F68CB051";
shapes = (
{
closed = 1;
nodes = (
(446,0,o),
(552,106,o),
(552,235,cs),
(552,745,ls),
(552,875,o),
(446,980,o),
(317,980,cs),
(271,980,o),
(231,965,o),
(199,941,c),
(199,1461,l),
(79,1461,l),
(79,235,ls),
(79,106,o),
(185,0,o),
(317,0,cs)
);
},
{
closed = 1;
nodes = (
(251,120,o),
(199,172,o),
(199,235,cs),
(199,745,ls),
(199,808,o),
(251,860,o),
(317,860,cs),
(379,860,o),
(432,808,o),
(432,745,cs),
(432,235,ls),
(432,172,o),
(379,120,o),
(317,120,cs)
);
}
);
width = 589;
}
);
unicode = 1068;
},
{
glyphname = "Yeru-cy";
lastChange = "2024-04-18 14:55:36 +0000";
layers = (
{
anchors = (
{
name = top;
pos = (741,1546);
}
);
hints = (
{
name = _corner.serif;
options = 1;
origin = (0,11);
scale = (-1,1);
type = Corner;
},
{
name = _corner.serif;
options = 1;
origin = (2,0);
scale = (-1,1);
type = Corner;
},
{
name = _corner.serif;
options = 2;
origin = (2,1);
type = Corner;
}
);
layerId = "2138459E-7720-4001-9A22-A006F68CB051";
shapes = (
{
closed = 1;
nodes = (
(446,0,o),
(552,106,o),
(552,235,cs),
(552,745,ls),
(552,875,o),
(446,980,o),
(317,980,cs),
(271,980,o),
(231,965,o),
(199,941,c),
(199,1461,l),
(79,1461,l),
(79,235,ls),
(79,106,o),
(185,0,o),
(317,0,cs)
);
},
{
closed = 1;
nodes = (
(251,120,o),
(199,172,o),
(199,235,cs),
(199,745,ls),
(199,808,o),
(251,860,o),
(317,860,cs),
(379,860,o),
(432,808,o),
(432,745,cs),
(432,235,ls),
(432,172,o),
(379,120,o),
(317,120,cs)
);
},
{
closed = 1;
nodes = (
(801,0,l),
(801,1461,l),
(681,1461,l),
(681,0,l)
);
}
);
width = 880;
}
);
unicode = 1067;
},
{
glyphname = "Hardsign-cy";
lastChange = "2024-04-18 14:55:36 +0000";
layers = (
{
layerId = "2138459E-7720-4001-9A22-A006F68CB051";
shapes = (
{
closed = 1;
nodes = (
(275,235,l),
(275,1226,ls),
(275,1355,o),
(170,1461,o),
(38,1461,c),
(38,1341,l),
(103,1341,o),
(155,1289,o),
(155,1226,cs),
(155,235,l)
);
},
{
closed = 1;
nodes = (
(522,0,o),
(628,106,o),
(628,235,c),
(508,235,l),
(508,172,o),
(456,120,o),
(393,120,cs),
(328,120,o),
(275,172,o),
(275,235,c),
(155,235,l),
(155,106,o),
(261,0,o),
(393,0,cs)
);
},
{
closed = 1;
nodes = (
(628,235,l),
(628,745,l),
(508,745,l),
(508,235,l)
);
},
{
closed = 1;
nodes = (
(275,745,l),
(275,808,o),
(328,860,o),
(393,860,cs),
(456,860,o),
(508,808,o),
(508,745,c),
(628,745,l),
(628,875,o),
(522,980,o),
(393,980,cs),
(261,980,o),
(155,875,o),
(155,745,c)
);
}
);
width = 666;
}
);
unicode = 1066;
},
{
glyphname = "Ereversed-cy";
lastChange = "2024-04-18 14:55:36 +0000";
layers = (
{
anchors = (
{
name = top;
pos = (274,1546);
}
);
layerId = "2138459E-7720-4001-9A22-A006F68CB051";
shapes = (
{
closed = 1;
nodes = (
(510,235,l),
(510,1226,ls),
(510,1355,o),
(405,1461,o),
(272,1461,cs),
(143,1461,o),
(38,1355,o),
(38,1226,c),
(158,1226,l),
(158,1289,o),
(210,1341,o),
(272,1341,cs),
(338,1341,o),
(390,1289,o),
(390,1226,cs),
(390,235,l)
);
},
{
closed = 1;
nodes = (
(405,0,o),
(510,106,o),
(510,235,c),
(390,235,l),
(390,172,o),
(338,120,o),
(272,120,cs),
(210,120,o),
(158,172,o),
(158,235,c),
(38,235,l),
(38,106,o),
(143,0,o),
(272,0,cs)
);
},
{
closed = 1;
nodes = (
(491,672,l),
(491,791,l),
(238,791,l),
(238,672,l)
);
}
);
width = 548;
}
);
unicode = 1069;
},
{
glyphname = "Yu-cy";
lastChange = "2024-04-18 14:55:36 +0000";
layers = (
{
hints = (
{
name = _corner.serif;
origin = (0,3);
type = Corner;
}
);
layerId = "2138459E-7720-4001-9A22-A006F68CB051";
shapes = (
{
closed = 1;
nodes = (
(199,0,l),
(199,1461,l),
(79,1461,l),
(79,0,l)
);
},
{
closed = 1;
nodes = (
(552,1226,l),
(552,1289,o),
(604,1341,o),
(669,1341,cs),
(732,1341,o),
(784,1289,o),
(784,1226,c),
(904,1226,l),
(904,1355,o),
(799,1461,o),
(669,1461,cs),
(537,1461,o),
(432,1355,o),
(432,1226,c)
);
},
{
closed = 1;
nodes = (
(799,0,o),
(904,106,o),
(904,235,c),
(784,235,l),
(784,172,o),
(732,120,o),
(669,120,cs),
(604,120,o),
(552,172,o),
(552,235,c),
(432,235,l),
(432,106,o),
(537,0,o),
(669,0,cs)
);
},
{
closed = 1;
nodes = (
(552,235,l),
(552,1226,l),
(432,1226,l),
(432,235,l)
);
},
{
closed = 1;
nodes = (
(904,235,l),
(904,1226,l),
(784,1226,l),
(784,235,l)
);
},
{
closed = 1;
nodes = (
(199,235,l),
(199,297,o),
(251,350,o),
(317,350,cs),
(379,350,o),
(432,297,o),
(432,235,c),
(552,235,l),
(552,364,o),
(446,470,o),
(317,470,cs),
(185,470,o),
(79,364,o),
(79,235,c)
);
}
);
width = 942;
}
);
unicode = 1070;
},
{
glyphname = "be-cy";
lastChange = "2024-04-18 14:55:36 +0000";
layers = (
{
layerId = "2138459E-7720-4001-9A22-A006F68CB051";
shapes = (
{
closed = 1;
nodes = (
(158,216,l),
(158,1245,l),
(38,1245,l),
(38,216,l)
);
},
{
closed = 1;
nodes = (
(375,0,o),
(473,97,o),
(473,216,c),
(353,216,l),
(353,165,o),
(308,120,o),
(254,120,cs),
(202,120,o),
(158,165,o),
(158,216,c),
(38,216,l),
(38,97,o),
(135,0,o),
(254,0,cs)
);
},
{
closed = 1;
nodes = (
(473,216,l),
(473,767,l),
(353,767,l),
(353,216,l)
);
},
{
closed = 1;
nodes = (
(473,767,l),
(473,886,o),
(375,984,o),
(254,984,c),
(254,863,l),
(308,863,o),
(353,819,o),
(353,767,c)
);
},
{
closed = 1;
nodes = (
(158,1245,l),
(158,1296,o),
(202,1341,o),
(256,1341,c),
(256,1461,l),
(135,1461,o),
(38,1364,o),
(38,1245,c)
);
}
);
width = 510;
}
);
unicode = 1073;
},
{
glyphname = "ve-cy";
lastChange = "2024-04-18 14:55:36 +0000";
layers = (
{
layerId = "2138459E-7720-4001-9A22-A006F68CB051";
shapes = (
{
closed = 1;
nodes = (
(158,1245,l),
(158,1296,o),
(202,1341,o),
(254,1341,cs),
(308,1341,o),
(353,1296,o),
(353,1245,c),
(473,1245,l),
(473,1364,o),
(375,1461,o),
(254,1461,cs),
(135,1461,o),
(38,1364,o),
(38,1245,c)
);
},
{
closed = 1;
nodes = (
(375,0,o),
(473,97,o),
(473,216,c),
(353,216,l),
(353,165,o),
(308,120,o),
(254,120,cs),
(202,120,o),
(158,165,o),
(158,216,c),
(38,216,l),
(38,97,o),
(135,0,o),
(254,0,cs)
);
},
{
closed = 1;
nodes = (
(158,216,l),
(158,1245,l),
(38,1245,l),
(38,216,l)
);
},
{
closed = 1;
nodes = (
(473,216,l),
(473,767,l),
(353,767,l),
(353,216,l)
);
},
{
closed = 1;
nodes = (
(473,767,l),
(473,886,o),
(375,984,o),
(254,984,c),
(254,863,l),
(308,863,o),
(353,819,o),
(353,767,c)
);
},
{
closed = 1;
nodes = (
(375,863,o),
(473,960,o),
(473,1080,c),
(353,1080,l),
(353,1028,o),
(308,984,o),
(254,984,c),
(254,863,l)
);
},
{
closed = 1;
nodes = (
(473,1080,l),
(473,1245,l),
(353,1245,l),
(353,1080,l)
);
}
);
width = 510;
}
);
unicode = 1074;
},
{
glyphname = "ge-cy";
lastChange = "2024-04-18 14:55:36 +0000";
layers = (
{
hints = (
{
name = _corner.serif;
origin = (0,3);
type = Corner;
}
);
layerId = "2138459E-7720-4001-9A22-A006F68CB051";
shapes = (
{
closed = 1;
nodes = (
(199,0,l),
(199,767,l),
(79,767,l),
(79,0,l)
);
},
{
closed = 1;
nodes = (
(199,767,l),
(199,819,o),
(244,863,o),
(297,863,c),
(297,984,l),
(176,984,o),
(79,886,o),
(79,767,c)
);
}
);
width = 335;
}
);
unicode = 1075;
},
{
glyphname = "de-cy";
lastChange = "2024-04-18 14:55:36 +0000";
layers = (
{
layerId = "2138459E-7720-4001-9A22-A006F68CB051";
shapes = (
{
closed = 1;
nodes = (
(353,767,l),
(353,-261,l),
(473,-261,l),
(473,767,l)
);
},
{
closed = 1;
nodes = (
(135,984,o),
(38,886,o),
(38,767,c),
(158,767,l),
(158,819,o),
(202,863,o),
(256,863,cs),
(308,863,o),
(353,819,o),
(353,767,c),
(473,767,l),
(473,886,o),
(375,984,o),
(256,984,cs)
);
},
{
closed = 1;
nodes = (
(38,767,l),
(38,216,l),
(158,216,l),
(158,767,l)
);
},
{
closed = 1;
nodes = (
(38,216,l),
(38,97,o),
(135,0,o),
(256,0,c),
(256,120,l),
(202,120,o),
(158,165,o),
(158,216,c)
);
},
{
closed = 1;
nodes = (
(353,-261,l),
(353,-313,o),
(308,-358,o),
(254,-358,c),
(254,-478,l),
(375,-478,o),
(473,-381,o),
(473,-261,c)
);
}
);
width = 510;
}
);
unicode = 1076;
},
{
glyphname = "zhe-cy";
lastChange = "2024-04-18 14:55:36 +0000";
layers = (
{
hints = (
{
name = _corner.serif;
origin = (0,32);
type = Corner;
},
{
name = _corner.serif;
options = 2;
origin = (0,33);
scale = (-1,1);
type = Corner;
}
);
layerId = "2138459E-7720-4001-9A22-A006F68CB051";
shapes = (
{
closed = 1;
nodes = (
(158,0,l),
(158,54,o),
(202,98,o),
(254,98,cs),
(293,98,o),
(326,111,o),
(353,134,c),
(353,0,l),
(473,0,l),
(473,134,l),
(499,111,o),
(532,98,o),
(571,98,cs),
(622,98,o),
(667,54,o),
(667,0,c),
(787,0,l),
(787,64,o),
(757,121,o),
(713,159,c),
(757,195,o),
(787,252,o),
(787,315,cs),
(787,984,l),
(667,984,l),
(667,315,ls),
(667,263,o),
(622,218,o),
(571,218,cs),
(517,218,o),
(473,263,o),
(473,315,cs),
(473,1461,l),
(353,1461,l),
(353,315,ls),
(353,263,o),
(308,218,o),
(254,218,cs),
(202,218,o),
(158,263,o),
(158,315,cs),
(158,984,l),
(38,984,l),
(38,315,ls),
(38,252,o),
(68,195,o),
(112,159,c),
(68,121,o),
(38,64,o),
(38,0,c)
);
}
);
width = 825;
}
);
unicode = 1078;
},
{
glyphname = "ze-cy";
lastChange = "2024-04-18 14:55:36 +0000";
layers = (
{
layerId = "2138459E-7720-4001-9A22-A006F68CB051";
shapes = (
{
closed = 1;
nodes = (
(38,-381,o),
(135,-478,o),
(254,-478,cs),
(375,-478,o),
(473,-381,o),
(473,-261,c),
(353,-261,l),
(353,-313,o),
(308,-358,o),
(254,-358,cs),
(202,-358,o),
(158,-313,o),
(158,-261,c),
(38,-261,l)
);
},
{
closed = 1;
nodes = (
(135,984,o),
(38,886,o),
(38,767,c),
(158,767,l),
(158,819,o),
(202,863,o),
(254,863,cs),
(308,863,o),
(353,819,o),
(353,767,c),
(473,767,l),
(473,886,o),
(375,984,o),
(254,984,cs)
);
},
{
closed = 1;
nodes = (
(353,216,l),
(473,216,l),
(473,767,l),
(353,767,l)
);
},
{
closed = 1;
nodes = (
(353,165,o),
(308,120,o),
(254,120,c),
(254,0,l),
(375,0,o),
(473,97,o),
(473,216,c),
(353,216,l)
);
},
{
closed = 1;
nodes = (
(254,0,l),
(308,0,o),
(353,-45,o),
(353,-96,c),
(473,-96,l),
(473,23,o),
(375,120,o),
(254,120,c)
);
},
{
closed = 1;
nodes = (
(353,-261,l),
(473,-261,l),
(473,-96,l),
(353,-96,l)
);
}
);
width = 510;
}
);
unicode = 1079;
},
{
glyphname = "ii-cy";
lastChange = "2024-04-18 14:55:36 +0000";
layers = (
{
hints = (
{
name = _corner.serif;
options = 1;
origin = (2,0);
scale = (-1,1);
type = Corner;
}
);
layerId = "2138459E-7720-4001-9A22-A006F68CB051";
shapes = (
{
closed = 1;
nodes = (
(375,0,o),
(473,97,o),
(473,216,c),
(353,216,l),
(353,165,o),
(308,120,o),
(256,120,cs),
(202,120,o),
(158,165,o),
(158,216,c),
(38,216,l),
(38,97,o),
(135,0,o),
(256,0,cs)
);
},
{
closed = 1;
nodes = (
(158,216,l),
(158,984,l),
(38,984,l),
(38,216,l)
);
},
{
closed = 1;
nodes = (
(473,0,l),
(473,984,l),
(353,984,l),
(353,0,l)
);
}
);
width = 552;
}
);
unicode = 1080;
},
{
glyphname = "iishort-cy";
lastChange = "2024-04-18 14:55:36 +0000";
layers = (
{
hints = (
{
name = _corner.serif;
options = 1;
origin = (2,0);
scale = (-1,1);
type = Corner;
}
);
layerId = "2138459E-7720-4001-9A22-A006F68CB051";
shapes = (
{
closed = 1;
nodes = (
(375,0,o),
(473,97,o),
(473,216,c),
(353,216,l),
(353,165,o),
(308,120,o),
(256,120,cs),
(202,120,o),
(158,165,o),
(158,216,c),
(38,216,l),
(38,97,o),
(135,0,o),
(256,0,cs)
);
},
{
closed = 1;
nodes = (
(158,216,l),
(158,984,l),
(38,984,l),
(38,216,l)
);
},
{
closed = 1;
nodes = (
(473,0,l),
(473,984,l),
(353,984,l),
(353,0,l)
);
},
{
closed = 1;
nodes = (
(335,1163,o),
(402,1229,o),
(402,1308,c),
(332,1308,l),
(332,1269,o),
(297,1233,o),
(257,1233,cs),
(214,1233,o),
(179,1269,o),
(179,1308,c),
(109,1308,l),
(109,1229,o),
(175,1163,o),
(257,1163,cs)
);
}
);
width = 552;
}
);
unicode = 1081;
},
{
glyphname = "ka-cy";
lastChange = "2024-04-18 14:55:36 +0000";
layers = (
{
hints = (
{
name = _corner.serif;
options = 1;
origin = (0,25);
scale = (-1,1);
type = Corner;
}
);
layerId = "2138459E-7720-4001-9A22-A006F68CB051";
shapes = (
{
closed = 1;
nodes = (
(199,0,l),
(199,134,l),
(226,111,o),
(259,98,o),
(297,98,cs),
(349,98,o),
(394,54,o),
(394,0,c),
(514,0,l),
(514,64,o),
(484,121,o),
(440,159,c),
(484,195,o),
(514,252,o),
(514,315,cs),
(514,984,l),
(394,984,l),
(394,315,ls),
(394,263,o),
(349,218,o),
(297,218,cs),
(244,218,o),
(199,263,o),
(199,315,cs),
(199,1461,l),
(79,1461,l),
(79,0,l)
);
}
);
width = 552;
}
);
unicode = 1082;
},
{
glyphname = "el-cy";
lastChange = "2024-04-18 14:55:36 +0000";
layers = (
{
hints = (
{
name = _corner.serif;
options = 1;
origin = (0,4);
scale = (-1,1);
type = Corner;
},
{
name = _corner.serif;
origin = (0,9);
type = Corner;
}
);
layerId = "2138459E-7720-4001-9A22-A006F68CB051";
shapes = (
{
closed = 1;
nodes = (
(247,879,o),
(319,879,o),
(322,824,cs),
(379,0,l),
(499,0,l),
(433,842,ls),
(415,1031,o),
(150,1031,o),
(132,842,cs),
(64,0,l),
(184,0,l),
(243,824,ls)
);
}
);
width = 563;
}
);
unicode = 1083;
},
{
glyphname = "em-cy";
lastChange = "2024-04-18 14:55:36 +0000";
layers = (
{
hints = (
{
name = _corner.serif;
origin = (0,9);
type = Corner;
},
{
name = _corner.serif;
options = 1;
origin = (1,4);
scale = (-1,1);
type = Corner;
}
);
layerId = "2138459E-7720-4001-9A22-A006F68CB051";
shapes = (
{
closed = 1;
nodes = (
(247,879,o),
(319,879,o),
(321,824,cs),
(379,0,l),
(499,0,l),
(433,842,ls),
(415,1031,o),
(149,1031,o),
(132,842,cs),
(64,0,l),
(184,0,l),
(243,824,ls)
);
},
{
closed = 1;
nodes = (
(562,879,o),
(634,879,o),
(636,824,cs),
(693,0,l),
(813,0,l),
(747,842,ls),
(730,1031,o),
(464,1031,o),
(446,842,cs),
(379,0,l),
(499,0,l),
(558,824,ls)
);
}
);
width = 877;
}
);
unicode = 1084;
},
{
glyphname = "en-cy";
lastChange = "2024-04-18 14:55:36 +0000";
layers = (
{
hints = (
{
name = _corner.serif;
options = 1;
origin = (0,2);
scale = (-1,1);
type = Corner;
},
{
name = _corner.serif;
origin = (2,1);
type = Corner;
}
);
layerId = "2138459E-7720-4001-9A22-A006F68CB051";
shapes = (
{
closed = 1;
nodes = (
(199,0,l),
(199,984,l),
(79,984,l),
(79,0,l)
);
},
{
closed = 1;
nodes = (
(417,325,o),
(514,422,o),
(514,542,c),
(394,542,l),
(394,490,o),
(349,445,o),
(297,445,cs),
(244,445,o),
(199,490,o),
(199,542,c),
(79,542,l),
(79,422,o),
(176,325,o),
(297,325,cs)
);
},
{
closed = 1;
nodes = (
(514,0,l),
(514,984,l),
(394,984,l),
(394,0,l)
);
}
);
width = 593;
}
);
unicode = 1085;
},
{
glyphname = "te-cy";
lastChange = "2024-04-18 14:55:36 +0000";
layers = (
{
hints = (
{
name = _corner.serif;
origin = (0,3);
type = Corner;
}
);
layerId = "2138459E-7720-4001-9A22-A006F68CB051";
shapes = (
{
closed = 1;
nodes = (
(315,0,l),
(315,767,l),
(195,767,l),
(195,0,l)
);
},
{
closed = 1;
nodes = (
(315,767,l),
(315,819,o),
(359,863,o),
(413,863,c),
(413,984,l),
(292,984,o),
(195,886,o),
(195,767,c)
);
},
{
closed = 1;
nodes = (
(38,863,l),
(473,863,l),
(473,984,l),
(38,984,l)
);
}
);
width = 510;
}
);
unicode = 1090;
},
{
glyphname = "ef-cy";
lastChange = "2024-04-18 14:55:36 +0000";
layers = (
{
hints = (
{
name = _corner.serif;
options = 1;
origin = (0,0);
scale = (-1,1);
type = Corner;
},
{
name = _corner.serif;
origin = (0,44);
type = Corner;
}
);
layerId = "2138459E-7720-4001-9A22-A006F68CB051";
shapes = (
{
closed = 1;
nodes = (
(473,-478,l),
(473,767,ls),
(473,819,o),
(517,863,o),
(569,863,cs),
(622,863,o),
(667,819,o),
(667,767,cs),
(667,216,ls),
(667,165,o),
(622,120,o),
(569,120,c),
(569,0,l),
(690,0,o),
(787,97,o),
(787,216,cs),
(787,767,ls),
(787,886,o),
(690,984,o),
(569,984,cs),
(507,984,o),
(450,954,o),
(413,909,c),
(376,954,o),
(319,984,o),
(256,984,cs),
(135,984,o),
(38,886,o),
(38,767,cs),
(38,216,ls),
(38,97,o),
(135,0,o),
(256,0,c),
(256,120,l),
(202,120,o),
(158,165,o),
(158,216,cs),
(158,767,ls),
(158,819,o),
(202,863,o),
(256,863,cs),
(308,863,o),
(353,819,o),
(353,767,cs),
(353,-478,l)
);
}
);
width = 825;
}
);
unicode = 1092;
},
{
glyphname = "ha-cy";
lastChange = "2024-04-18 14:55:36 +0000";
layers = (
{
hints = (
{
name = _corner.serif;
options = 1;
origin = (2,2);
scale = (-1,1);
type = Corner;
},
{
name = _corner.serif;
origin = (3,1);
type = Corner;
}
);
layerId = "2138459E-7720-4001-9A22-A006F68CB051";
shapes = (
{
closed = 1;
nodes = (
(417,96,o),
(514,193,o),
(514,313,c),
(394,313,l),
(394,261,o),
(349,216,o),
(297,216,cs),
(244,216,o),
(199,261,o),
(199,313,c),
(79,313,l),
(79,193,o),
(176,96,o),
(297,96,cs)
);
},
{
closed = 1;
nodes = (
(199,0,l),
(199,52,o),
(244,96,o),
(297,96,cs),
(349,96,o),
(394,52,o),
(394,0,c),
(514,0,l),
(514,120,o),
(417,216,o),
(297,216,cs),
(176,216,o),
(79,120,o),
(79,0,c)
);
},
{
closed = 1;
nodes = (
(199,313,l),
(199,984,l),
(79,984,l),
(79,313,l)
);
},
{
closed = 1;
nodes = (
(514,313,l),
(514,984,l),
(394,984,l),
(394,313,l)
);
}
);
width = 593;
}
);
unicode = 1093;
},
{
glyphname = "che-cy";
lastChange = "2024-04-18 14:55:36 +0000";
layers = (
{
hints = (
{
name = _corner.serif;
options = 1;
origin = (1,2);
scale = (-1,1);
type = Corner;
},
{
name = _corner.serif;
origin = (2,1);
type = Corner;
}
);
layerId = "2138459E-7720-4001-9A22-A006F68CB051";
shapes = (
{
closed = 1;
nodes = (
(417,96,o),
(514,193,o),
(514,313,c),
(394,313,l),
(394,261,o),
(349,216,o),
(297,216,cs),
(244,216,o),
(199,261,o),
(199,313,c),
(79,313,l),
(79,193,o),
(176,96,o),
(297,96,cs)
);
},
{
closed = 1;
nodes = (
(199,313,l),
(199,984,l),
(79,984,l),
(79,313,l)
);
},
{
closed = 1;
nodes = (
(514,0,l),
(514,984,l),
(394,984,l),
(394,0,l)
);
}
);
width = 593;
}
);
unicode = 1095;
userData = {
KernOnName = "che-cy";
};
},
{
glyphname = "tse-cy";
lastChange = "2024-04-18 14:55:36 +0000";
layers = (
{
hints = (
{
name = _corner.serif;
options = 1;
origin = (1,2);
scale = (-1,1);
type = Corner;
},
{
name = _corner.serif;
origin = (2,1);
type = Corner;
}
);
layerId = "2138459E-7720-4001-9A22-A006F68CB051";
shapes = (
{
closed = 1;
nodes = (
(417,0,o),
(514,97,o),
(514,216,c),
(394,216,l),
(394,165,o),
(349,120,o),
(297,120,cs),
(244,120,o),
(199,165,o),
(199,216,c),
(79,216,l),
(79,97,o),
(176,0,o),
(297,0,cs)
);
},
{
closed = 1;
nodes = (
(199,216,l),
(199,984,l),
(79,984,l),
(79,216,l)
);
},
{
closed = 1;
nodes = (
(514,216,l),
(514,984,l),
(394,984,l),
(394,216,l)
);
},
{
closed = 1;
nodes = (
(514,-96,l),
(514,23,o),
(417,120,o),
(297,120,c),
(297,0,l),
(349,0,o),
(394,-45,o),
(394,-96,c)
);
}
);
width = 593;
}
);
unicode = 1094;
},
{
glyphname = "sha-cy";
lastChange = "2024-04-18 14:55:36 +0000";
layers = (
{
hints = (
{
name = _corner.serif;
options = 1;
origin = (2,2);
scale = (-1,1);
type = Corner;
},
{
name = _corner.serif;
origin = (4,1);
type = Corner;
}
);
layerId = "2138459E-7720-4001-9A22-A006F68CB051";
shapes = (
{
closed = 1;
nodes = (
(732,0,o),
(828,97,o),
(828,216,c),
(708,216,l),
(708,165,o),
(664,120,o),
(612,120,cs),
(558,120,o),
(514,165,o),
(514,216,c),
(394,216,l),
(394,97,o),
(491,0,o),
(612,0,cs)
);
},
{
closed = 1;
nodes = (
(417,0,o),
(514,97,o),
(514,216,c),
(394,216,l),
(394,165,o),
(349,120,o),
(297,120,cs),
(244,120,o),
(199,165,o),
(199,216,c),
(79,216,l),
(79,97,o),
(176,0,o),
(297,0,cs)
);
},
{
closed = 1;
nodes = (
(199,216,l),
(199,984,l),
(79,984,l),
(79,216,l)
);
},
{
closed = 1;
nodes = (
(514,216,l),
(514,984,l),
(394,984,l),
(394,216,l)
);
},
{
closed = 1;
nodes = (
(828,216,l),
(828,984,l),
(708,984,l),
(708,216,l)
);
}
);
width = 907;
}
);
unicode = 1096;
},
{
glyphname = "shcha-cy";
lastChange = "2024-04-18 14:55:36 +0000";
layers = (
{
hints = (
{
name = _corner.serif;
options = 1;
origin = (2,2);
scale = (-1,1);
type = Corner;
},
{
name = _corner.serif;
origin = (4,1);
type = Corner;
}
);
layerId = "2138459E-7720-4001-9A22-A006F68CB051";
shapes = (
{
closed = 1;
nodes = (
(732,0,o),
(828,97,o),
(828,216,c),
(708,216,l),
(708,165,o),
(664,120,o),
(612,120,cs),
(558,120,o),
(514,165,o),
(514,216,c),
(394,216,l),
(394,97,o),
(491,0,o),
(612,0,cs)
);
},
{
closed = 1;
nodes = (
(417,0,o),
(514,97,o),
(514,216,c),
(394,216,l),
(394,165,o),
(349,120,o),
(297,120,cs),
(244,120,o),
(199,165,o),
(199,216,c),
(79,216,l),
(79,97,o),
(176,0,o),
(297,0,cs)
);
},
{
closed = 1;
nodes = (
(199,216,l),
(199,984,l),
(79,984,l),
(79,216,l)
);
},
{
closed = 1;
nodes = (
(514,216,l),
(514,984,l),
(394,984,l),
(394,216,l)
);
},
{
closed = 1;
nodes = (
(828,216,l),
(828,984,l),
(708,984,l),
(708,216,l)
);
},
{
closed = 1;
nodes = (
(828,-96,l),
(828,23,o),
(732,120,o),
(612,120,c),
(612,0,l),
(664,0,o),
(708,-45,o),
(708,-96,c)
);
}
);
width = 907;
}
);
unicode = 1097;
userData = {
KernOnName = "shcha-cy";
};
},
{
glyphname = "softsign-cy";
lastChange = "2024-04-18 14:55:36 +0000";
layers = (
{
anchors = (
{
name = bottom;
pos = (297,-84);
}
);
hints = (
{
name = _corner.serif;
options = 1;
origin = (1,3);
scale = (-1,1);
type = Corner;
}
);
layerId = "2138459E-7720-4001-9A22-A006F68CB051";
shapes = (
{
closed = 1;
nodes = (
(79,97,o),
(176,0,o),
(297,0,cs),
(417,0,o),
(514,97,o),
(514,216,c),
(394,216,l),
(394,165,o),
(349,120,o),
(297,120,cs),
(244,120,o),
(199,165,o),
(199,216,c),
(79,216,l)
);
},
{
closed = 1;
nodes = (
(79,216,l),
(199,216,l),
(199,984,l),
(79,984,l)
);
},
{
closed = 1;
nodes = (
(301,216,l),
(514,216,l),
(514,336,l),
(301,336,l)
);
}
);
width = 552;
}
);
unicode = 1100;
},
{
glyphname = "yeru-cy";
lastChange = "2024-04-18 14:55:36 +0000";
layers = (
{
hints = (
{
name = _corner.serif;
options = 1;
origin = (1,3);
scale = (-1,1);
type = Corner;
},
{
name = _corner.serif;
options = 1;
origin = (3,1);
scale = (-1,1);
type = Corner;
},
{
name = _corner.serif;
options = 2;
origin = (3,2);
type = Corner;
}
);
layerId = "2138459E-7720-4001-9A22-A006F68CB051";
shapes = (
{
closed = 1;
nodes = (
(79,97,o),
(176,0,o),
(297,0,cs),
(417,0,o),
(514,97,o),
(514,216,c),
(394,216,l),
(394,165,o),
(349,120,o),
(297,120,cs),
(244,120,o),
(199,165,o),
(199,216,c),
(79,216,l)
);
},
{
closed = 1;
nodes = (
(79,216,l),
(199,216,l),
(199,984,l),
(79,984,l)
);
},
{
closed = 1;
nodes = (
(301,216,l),
(514,216,l),
(514,336,l),
(301,336,l)
);
},
{
closed = 1;
nodes = (
(629,0,l),
(749,0,l),
(749,984,l),
(629,984,l)
);
}
);
width = 828;
}
);
unicode = 1099;
},
{
glyphname = "hardsign-cy";
lastChange = "2024-04-18 14:55:36 +0000";
layers = (
{
layerId = "2138459E-7720-4001-9A22-A006F68CB051";
shapes = (
{
closed = 1;
nodes = (
(134,97,o),
(231,0,o),
(353,0,cs),
(472,0,o),
(569,97,o),
(569,216,c),
(449,216,l),
(449,165,o),
(404,120,o),
(353,120,cs),
(299,120,o),
(254,165,o),
(254,216,c),
(134,216,l)
);
},
{
closed = 1;
nodes = (
(134,216,l),
(254,216,l),
(254,767,l),
(134,767,l)
);
},
{
closed = 1;
nodes = (
(356,216,l),
(569,216,l),
(569,336,l),
(356,336,l)
);
},
{
closed = 1;
nodes = (
(254,767,l),
(254,886,o),
(157,984,o),
(38,984,c),
(38,863,l),
(89,863,o),
(134,819,o),
(134,767,c)
);
}
);
width = 607;
}
);
unicode = 1098;
},
{
glyphname = "ereversed-cy";
lastChange = "2024-04-18 14:55:36 +0000";
layers = (
{
layerId = "2138459E-7720-4001-9A22-A006F68CB051";
shapes = (
{
closed = 1;
nodes = (
(473,886,o),
(375,984,o),
(254,984,cs),
(135,984,o),
(38,886,o),
(38,767,c),
(158,767,l),
(158,819,o),
(202,863,o),
(254,863,cs),
(308,863,o),
(353,819,o),
(353,767,c),
(473,767,l)
);
},
{
closed = 1;
nodes = (
(375,0,o),
(473,97,o),
(473,216,c),
(353,216,l),
(353,165,o),
(308,120,o),
(254,120,c),
(254,0,l)
);
},
{
closed = 1;
nodes = (
(473,767,l),
(353,767,l),
(353,216,l),
(473,216,l)
);
},
{
closed = 1;
nodes = (
(254,336,l),
(254,216,l),
(462,216,l),
(462,336,l)
);
}
);
width = 510;
}
);
unicode = 1101;
},
{
glyphname = "yu-cy";
lastChange = "2024-04-18 14:55:36 +0000";
layers = (
{
hints = (
{
name = _corner.serif;
options = 1;
origin = (0,2);
scale = (-1,1);
type = Corner;
},
{
name = _corner.serif;
options = 2;
origin = (0,3);
type = Corner;
}
);
layerId = "2138459E-7720-4001-9A22-A006F68CB051";
shapes = (
{
closed = 1;
nodes = (
(199,0,l),
(199,984,l),
(79,984,l),
(79,0,l)
);
},
{
closed = 1;
nodes = (
(514,767,l),
(514,819,o),
(558,863,o),
(612,863,cs),
(664,863,o),
(708,819,o),
(708,767,c),
(828,767,l),
(828,886,o),
(732,984,o),
(612,984,cs),
(491,984,o),
(394,886,o),
(394,767,c)
);
},
{
closed = 1;
nodes = (
(732,0,o),
(828,97,o),
(828,216,c),
(708,216,l),
(708,165,o),
(664,120,o),
(612,120,cs),
(558,120,o),
(514,165,o),
(514,216,c),
(394,216,l),
(394,97,o),
(491,0,o),
(612,0,cs)
);
},
{
closed = 1;
nodes = (
(514,216,l),
(514,767,l),
(394,767,l),
(394,216,l)
);
},
{
closed = 1;
nodes = (
(828,216,l),
(828,767,l),
(708,767,l),
(708,216,l)
);
},
{
closed = 1;
nodes = (
(417,96,o),
(514,193,o),
(514,313,c),
(394,313,l),
(394,261,o),
(349,216,o),
(297,216,cs),
(244,216,o),
(199,261,o),
(199,313,c),
(79,313,l),
(79,193,o),
(176,96,o),
(297,96,cs)
);
}
);
width = 866;
}
);
unicode = 1102;
},
{
glyphname = "ya-cy";
lastChange = "2024-04-18 14:55:36 +0000";
layers = (
{
hints = (
{
name = _corner.serif;
options = 1;
origin = (0,16);
scale = (-1,1);
type = Corner;
}
);
layerId = "2138459E-7720-4001-9A22-A006F68CB051";
shapes = (
{
closed = 1;
nodes = (
(160,0,l),
(160,54,o),
(204,98,o),
(256,98,c),
(256,218,l),
(202,218,o),
(158,263,o),
(158,315,cs),
(158,767,ls),
(158,819,o),
(202,863,o),
(256,863,cs),
(308,863,o),
(353,819,o),
(353,767,cs),
(353,0,l),
(473,0,l),
(473,767,ls),
(473,886,o),
(375,984,o),
(256,984,cs),
(135,984,o),
(38,886,o),
(38,767,cs),
(38,315,ls),
(38,250,o),
(68,194,o),
(114,159,c),
(68,121,o),
(40,64,o),
(40,0,c)
);
}
);
width = 552;
}
);
unicode = 1103;
},
{
glyphname = zero;
kernLeft = "20";
kernRight = "20";
lastChange = "2024-04-18 14:55:36 +0000";
layers = (
{
layerId = "2138459E-7720-4001-9A22-A006F68CB051";
shapes = (
{
closed = 1;
nodes = (
(158,1226,l),
(158,1289,o),
(210,1341,o),
(275,1341,cs),
(338,1341,o),
(390,1289,o),
(390,1226,c),
(510,1226,l),
(510,1355,o),
(405,1461,o),
(275,1461,cs),
(143,1461,o),
(38,1355,o),
(38,1226,c)
);
},
{
closed = 1;
nodes = (
(405,0,o),
(510,106,o),
(510,235,c),
(390,235,l),
(390,172,o),
(338,120,o),
(275,120,cs),
(210,120,o),
(158,172,o),
(158,235,c),
(38,235,l),
(38,106,o),
(143,0,o),
(275,0,cs)
);
},
{
closed = 1;
nodes = (
(158,235,l),
(158,1226,l),
(38,1226,l),
(38,235,l)
);
},
{
closed = 1;
nodes = (
(510,235,l),
(510,1226,l),
(390,1226,l),
(390,235,l)
);
}
);
width = 548;
}
);
unicode = 48;
},
{
glyphname = one;
kernLeft = "20";
kernRight = "20";
lastChange = "2024-04-18 14:55:36 +0000";
layers = (
{
hints = (
{
name = _corner.serif;
options = 1;
origin = (1,0);
scale = (-1,1);
type = Corner;
}
);
layerId = "2138459E-7720-4001-9A22-A006F68CB051";
shapes = (
{
closed = 1;
nodes = (
(38,1341,l),
(100,1341,o),
(152,1289,o),
(152,1226,c),
(272,1226,l),
(272,1355,o),
(167,1461,o),
(38,1461,c)
);
},
{
closed = 1;
nodes = (
(272,0,l),
(272,1226,l),
(152,1226,l),
(152,0,l)
);
}
);
width = 352;
}
);
unicode = 49;
},
{
glyphname = two;
kernLeft = "20";
kernRight = "20";
lastChange = "2024-04-18 14:55:36 +0000";
layers = (
{
layerId = "2138459E-7720-4001-9A22-A006F68CB051";
shapes = (
{
closed = 1;
nodes = (
(158,1226,l),
(158,1289,o),
(210,1341,o),
(275,1341,cs),
(338,1341,o),
(390,1289,o),
(390,1226,c),
(510,1226,l),
(510,1355,o),
(405,1461,o),
(275,1461,cs),
(143,1461,o),
(38,1355,o),
(38,1226,c)
);
},
{
closed = 1;
nodes = (
(510,0,l),
(510,120,l),
(41,120,l),
(41,0,l)
);
},
{
closed = 1;
nodes = (
(161,120,l),
(161,183,o),
(213,235,o),
(275,235,c),
(275,355,l),
(146,355,o),
(41,249,o),
(41,120,c)
);
},
{
closed = 1;
nodes = (
(405,235,o),
(510,340,o),
(510,470,c),
(390,470,l),
(390,407,o),
(338,355,o),
(275,355,c),
(275,235,l)
);
},
{
closed = 1;
nodes = (
(510,470,l),
(510,1226,l),
(390,1226,l),
(390,470,l)
);
}
);
width = 548;
}
);
unicode = 50;
},
{
glyphname = three;
kernLeft = "20";
kernRight = "20";
lastChange = "2024-04-18 14:55:36 +0000";
layers = (
{
layerId = "2138459E-7720-4001-9A22-A006F68CB051";
shapes = (
{
closed = 1;
nodes = (
(158,1226,l),
(158,1289,o),
(210,1341,o),
(275,1341,cs),
(338,1341,o),
(390,1289,o),
(390,1226,c),
(510,1226,l),
(510,1355,o),
(405,1461,o),
(275,1461,cs),
(143,1461,o),
(38,1355,o),
(38,1226,c)
);
},
{
closed = 1;
nodes = (
(510,235,l),
(510,877,l),
(390,877,l),
(390,235,l)
);
},
{
closed = 1;
nodes = (
(510,877,l),
(510,1006,o),
(405,1111,o),
(275,1111,c),
(275,991,l),
(338,991,o),
(390,939,o),
(390,877,c)
);
},
{
closed = 1;
nodes = (
(405,991,o),
(510,1097,o),
(510,1226,c),
(390,1226,l),
(390,1164,o),
(338,1111,o),
(275,1111,c),
(275,991,l)
);
},
{
closed = 1;
nodes = (
(405,0,o),
(510,106,o),
(510,235,c),
(390,235,l),
(390,172,o),
(338,120,o),
(275,120,cs),
(210,120,o),
(158,172,o),
(158,235,c),
(38,235,l),
(38,106,o),
(143,0,o),
(275,0,cs)
);
}
);
width = 548;
}
);
unicode = 51;
},
{
glyphname = four;
kernLeft = "20";
kernRight = "20";
lastChange = "2024-04-18 14:55:36 +0000";
layers = (
{
hints = (
{
name = _corner.serif;
options = 1;
origin = (2,0);
scale = (-1,1);
type = Corner;
}
);
layerId = "2138459E-7720-4001-9A22-A006F68CB051";
shapes = (
{
closed = 1;
nodes = (
(405,481,o),
(510,586,o),
(510,716,c),
(390,716,l),
(390,653,o),
(338,601,o),
(275,601,cs),
(210,601,o),
(158,653,o),
(158,716,c),
(38,716,l),
(38,586,o),
(143,481,o),
(275,481,cs)
);
},
{
closed = 1;
nodes = (
(158,716,l),
(158,1461,l),
(38,1461,l),
(38,716,l)
);
},
{
closed = 1;
nodes = (
(510,0,l),
(510,1461,l),
(390,1461,l),
(390,0,l)
);
}
);
width = 589;
}
);
unicode = 52;
},
{
glyphname = five;
kernLeft = "20";
kernRight = "20";
lastChange = "2024-04-18 14:55:36 +0000";
layers = (
{
layerId = "2138459E-7720-4001-9A22-A006F68CB051";
shapes = (
{
closed = 1;
nodes = (
(402,0,o),
(507,106,o),
(507,235,cs),
(507,991,ls),
(507,1121,o),
(402,1226,o),
(272,1226,cs),
(229,1226,o),
(190,1211,o),
(158,1187,c),
(158,1341,l),
(387,1341,l),
(387,1461,l),
(38,1461,l),
(38,991,l),
(158,991,l),
(158,1054,o),
(210,1106,o),
(272,1106,cs),
(335,1106,o),
(387,1054,o),
(387,991,cs),
(387,235,ls),
(387,172,o),
(335,120,o),
(272,120,cs),
(231,120,o),
(193,136,o),
(166,165,c),
(82,80,l),
(130,30,o),
(198,0,o),
(272,0,cs)
);
}
);
width = 545;
}
);
unicode = 53;
},
{
glyphname = six;
kernLeft = "20";
kernRight = "20";
lastChange = "2024-04-18 14:55:36 +0000";
layers = (
{
layerId = "2138459E-7720-4001-9A22-A006F68CB051";
shapes = (
{
closed = 1;
nodes = (
(158,235,l),
(158,297,o),
(210,350,o),
(272,350,cs),
(338,350,o),
(390,297,o),
(390,235,c),
(510,235,l),
(510,364,o),
(405,470,o),
(272,470,cs),
(143,470,o),
(38,364,o),
(38,235,c)
);
},
{
closed = 1;
nodes = (
(405,0,o),
(510,106,o),
(510,235,c),
(390,235,l),
(390,172,o),
(338,120,o),
(272,120,cs),
(210,120,o),
(158,172,o),
(158,235,c),
(38,235,l),
(38,106,o),
(143,0,o),
(272,0,cs)
);
},
{
closed = 1;
nodes = (
(158,235,l),
(158,1226,l),
(38,1226,l),
(38,235,l)
);
},
{
closed = 1;
nodes = (
(158,1226,l),
(158,1289,o),
(210,1341,o),
(272,1341,c),
(272,1461,l),
(143,1461,o),
(38,1355,o),
(38,1226,c)
);
}
);
width = 548;
}
);
unicode = 54;
},
{
glyphname = seven;
kernLeft = "20";
kernRight = "20";
lastChange = "2024-04-18 14:55:36 +0000";
layers = (
{
hints = (
{
name = _corner.serif;
options = 1;
origin = (3,2);
scale = (-1,1);
type = Corner;
}
);
layerId = "2138459E-7720-4001-9A22-A006F68CB051";
shapes = (
{
closed = 1;
nodes = (
(38,1461,l),
(38,1341,l),
(507,1341,l),
(507,1461,l)
);
},
{
closed = 1;
nodes = (
(387,1341,l),
(387,1278,o),
(335,1226,o),
(272,1226,c),
(272,1106,l),
(402,1106,o),
(507,1212,o),
(507,1341,c)
);
},
{
closed = 1;
nodes = (
(143,1226,o),
(38,1121,o),
(38,991,c),
(158,991,l),
(158,1054,o),
(210,1106,o),
(272,1106,c),
(272,1226,l)
);
},
{
closed = 1;
nodes = (
(38,991,l),
(38,0,l),
(158,0,l),
(158,991,l)
);
}
);
width = 545;
}
);
unicode = 55;
},
{
glyphname = eight;
kernLeft = "20";
kernRight = "20";
lastChange = "2024-04-18 14:55:36 +0000";
layers = (
{
layerId = "2138459E-7720-4001-9A22-A006F68CB051";
shapes = (
{
closed = 1;
nodes = (
(405,0,o),
(510,106,o),
(510,235,cs),
(510,877,ls),
(510,947,o),
(476,1010,o),
(426,1052,c),
(476,1093,o),
(510,1157,o),
(510,1226,cs),
(510,1355,o),
(405,1461,o),
(275,1461,cs),
(143,1461,o),
(38,1355,o),
(38,1226,cs),
(38,1157,o),
(72,1093,o),
(121,1052,c),
(72,1010,o),
(38,947,o),
(38,877,cs),
(38,235,ls),
(38,106,o),
(143,0,o),
(275,0,cs)
);
},
{
closed = 1;
nodes = (
(210,120,o),
(158,172,o),
(158,235,cs),
(158,877,ls),
(158,939,o),
(210,991,o),
(275,991,cs),
(338,991,o),
(390,939,o),
(390,877,cs),
(390,235,ls),
(390,172,o),
(338,120,o),
(275,120,cs)
);
},
{
closed = 1;
nodes = (
(210,1111,o),
(158,1164,o),
(158,1226,cs),
(158,1289,o),
(210,1341,o),
(275,1341,cs),
(338,1341,o),
(390,1289,o),
(390,1226,cs),
(390,1164,o),
(338,1111,o),
(275,1111,cs)
);
}
);
width = 548;
}
);
unicode = 56;
},
{
glyphname = nine;
kernLeft = "20";
kernRight = "20";
lastChange = "2024-04-18 14:55:36 +0000";
layers = (
{
layerId = "2138459E-7720-4001-9A22-A006F68CB051";
shapes = (
{
closed = 1;
nodes = (
(158,1226,l),
(158,1289,o),
(210,1341,o),
(275,1341,cs),
(338,1341,o),
(390,1289,o),
(390,1226,c),
(510,1226,l),
(510,1355,o),
(405,1461,o),
(275,1461,cs),
(143,1461,o),
(38,1355,o),
(38,1226,c)
);
},
{
closed = 1;
nodes = (
(405,0,o),
(510,106,o),
(510,235,c),
(390,235,l),
(390,172,o),
(338,120,o),
(275,120,c),
(275,0,l)
);
},
{
closed = 1;
nodes = (
(510,235,l),
(510,1226,l),
(390,1226,l),
(390,235,l)
);
},
{
closed = 1;
nodes = (
(405,991,o),
(510,1097,o),
(510,1226,c),
(390,1226,l),
(390,1164,o),
(338,1111,o),
(275,1111,cs),
(210,1111,o),
(158,1164,o),
(158,1226,c),
(38,1226,l),
(38,1097,o),
(143,991,o),
(275,991,cs)
);
}
);
width = 548;
}
);
unicode = 57;
},
{
glyphname = onesuperior;
kernLeft = "20";
kernRight = "20";
lastChange = "2024-04-18 14:55:36 +0000";
layers = (
{
layerId = "2138459E-7720-4001-9A22-A006F68CB051";
shapes = (
{
closed = 1;
nodes = (
(38,1699,l),
(84,1699,o),
(122,1661,o),
(122,1616,c),
(180,1616,l),
(180,1694,o),
(117,1759,o),
(38,1759,c)
);
},
{
closed = 1;
nodes = (
(180,1164,l),
(180,1616,l),
(122,1616,l),
(122,1164,l)
);
}
);
width = 218;
}
);
unicode = 185;
userData = {
KernOnSpecialSpacing = {
L = superiors;
R = superiors;
};
};
},
{
glyphname = twosuperior;
kernLeft = "20";
kernRight = "20";
lastChange = "2024-04-18 14:55:36 +0000";
layers = (
{
layerId = "2138459E-7720-4001-9A22-A006F68CB051";
shapes = (
{
closed = 1;
nodes = (
(96,1616,l),
(96,1662,o),
(134,1701,o),
(182,1701,cs),
(228,1701,o),
(267,1662,o),
(267,1616,c),
(325,1616,l),
(325,1694,o),
(261,1759,o),
(182,1759,cs),
(101,1759,o),
(38,1694,o),
(38,1616,c)
);
},
{
closed = 1;
nodes = (
(325,1164,l),
(325,1222,l),
(40,1222,l),
(40,1164,l)
);
},
{
closed = 1;
nodes = (
(98,1222,l),
(98,1268,o),
(136,1307,o),
(182,1307,c),
(182,1365,l),
(104,1365,o),
(40,1301,o),
(40,1222,c)
);
},
{
closed = 1;
nodes = (
(261,1307,o),
(325,1370,o),
(325,1450,c),
(267,1450,l),
(267,1403,o),
(228,1365,o),
(182,1365,c),
(182,1307,l)
);
},
{
closed = 1;
nodes = (
(325,1450,l),
(325,1616,l),
(267,1616,l),
(267,1450,l)
);
}
);
width = 363;
}
);
unicode = 178;
userData = {
KernOnSpecialSpacing = {
L = superiors;
R = superiors;
};
};
},
{
glyphname = threesuperior;
kernLeft = "20";
kernRight = "20";
lastChange = "2024-04-18 14:55:36 +0000";
layers = (
{
layerId = "2138459E-7720-4001-9A22-A006F68CB051";
shapes = (
{
closed = 1;
nodes = (
(96,1616,l),
(96,1662,o),
(134,1701,o),
(182,1701,cs),
(228,1701,o),
(267,1662,o),
(267,1616,c),
(325,1616,l),
(325,1694,o),
(261,1759,o),
(182,1759,cs),
(101,1759,o),
(38,1694,o),
(38,1616,c)
);
},
{
closed = 1;
nodes = (
(325,1307,l),
(325,1390,l),
(267,1390,l),
(267,1307,l)
);
},
{
closed = 1;
nodes = (
(325,1390,l),
(325,1468,o),
(261,1531,o),
(182,1531,c),
(182,1473,l),
(228,1473,o),
(267,1435,o),
(267,1390,c)
);
},
{
closed = 1;
nodes = (
(261,1473,o),
(325,1537,o),
(325,1616,c),
(267,1616,l),
(267,1571,o),
(228,1531,o),
(182,1531,c),
(182,1473,l)
);
},
{
closed = 1;
nodes = (
(261,1164,o),
(325,1228,o),
(325,1307,c),
(267,1307,l),
(267,1260,o),
(228,1222,o),
(182,1222,cs),
(134,1222,o),
(96,1260,o),
(96,1307,c),
(38,1307,l),
(38,1228,o),
(101,1164,o),
(182,1164,cs)
);
}
);
width = 363;
}
);
unicode = 179;
userData = {
KernOnSpecialSpacing = {
L = superiors;
R = superiors;
};
};
},
{
glyphname = .notdef;
lastChange = "2024-04-18 14:55:36 +0000";
layers = (
{
layerId = "2138459E-7720-4001-9A22-A006F68CB051";
shapes = (
{
closed = 1;
nodes = (
(226,610,o),
(283,663,o),
(283,731,cs),
(283,798,o),
(226,851,o),
(159,851,cs),
(92,851,o),
(38,798,o),
(38,731,cs),
(38,663,o),
(92,610,o),
(159,610,cs)
);
},
{
closed = 1;
nodes = (
(117,655,o),
(83,688,o),
(83,731,cs),
(83,773,o),
(117,806,o),
(159,806,cs),
(201,806,o),
(238,773,o),
(238,731,cs),
(238,688,o),
(201,655,o),
(159,655,cs)
);
},
{
closed = 1;
nodes = (
(395,610,o),
(415,618,o),
(429,632,c),
(398,663,l),
(392,658,o),
(381,655,o),
(373,655,cs),
(353,655,o),
(333,672,o),
(333,691,cs),
(333,711,o),
(353,728,o),
(373,728,cs),
(381,728,o),
(392,725,o),
(398,719,c),
(429,750,l),
(415,764,o),
(395,773,o),
(373,773,cs),
(328,773,o),
(288,736,o),
(288,691,cs),
(288,646,o),
(328,610,o),
(373,610,cs)
);
},
{
closed = 1;
nodes = (
(491,610,l),
(491,691,ls),
(491,711,o),
(507,728,o),
(530,728,cs),
(550,728,o),
(566,711,o),
(566,691,cs),
(566,610,l),
(611,610,l),
(611,691,ls),
(611,736,o),
(572,773,o),
(530,773,cs),
(513,773,o),
(502,770,o),
(491,764,c),
(491,851,l),
(446,851,l),
(446,610,l)
);
},
{
closed = 1;
nodes = (
(704,655,l),
(685,655,o),
(668,672,o),
(668,691,cs),
(668,711,o),
(685,728,o),
(704,728,cs),
(724,728,o),
(744,711,o),
(744,691,cs),
(744,610,l),
(788,610,l),
(788,691,ls),
(788,736,o),
(749,773,o),
(704,773,cs),
(659,773,o),
(623,736,o),
(623,691,cs),
(623,646,o),
(659,610,o),
(704,610,c)
);
},
{
closed = 1;
nodes = (
(850,610,l),
(850,641,l),
(859,632,o),
(873,632,o),
(887,632,cs),
(895,632,o),
(904,632,o),
(912,635,c),
(921,629,o),
(923,618,o),
(923,610,c),
(968,610,l),
(968,629,o),
(963,646,o),
(949,660,c),
(963,677,o),
(968,694,o),
(968,714,cs),
(968,773,l),
(923,773,l),
(923,714,ls),
(923,694,o),
(906,677,o),
(887,677,cs),
(867,677,o),
(850,694,o),
(850,714,cs),
(850,851,l),
(805,851,l),
(805,610,l)
);
},
{
closed = 1;
nodes = (
(1106,610,o),
(1143,646,o),
(1143,691,cs),
(1143,736,o),
(1106,773,o),
(1061,773,cs),
(1016,773,o),
(980,736,o),
(980,691,cs),
(980,646,o),
(1016,610,o),
(1061,610,cs)
);
},
{
closed = 1;
nodes = (
(1041,655,o),
(1025,672,o),
(1025,691,cs),
(1025,711,o),
(1041,728,o),
(1061,728,cs),
(1081,728,o),
(1098,711,o),
(1098,691,cs),
(1098,672,o),
(1081,655,o),
(1061,655,cs)
);
},
{
closed = 1;
nodes = (
(1230,610,o),
(1241,610,o),
(1249,613,c),
(1303,773,l),
(1258,773,l),
(1221,663,l),
(1182,773,l),
(1140,773,l),
(1193,613,l),
(1202,610,o),
(1210,610,o),
(1221,610,cs)
);
}
);
width = 1340;
}
);
},
{
glyphname = period;
kernLeft = "20";
kernRight = "20";
lastChange = "2024-04-18 14:55:36 +0000";
layers = (
{
layerId = "2138459E-7720-4001-9A22-A006F68CB051";
shapes = (
{
closed = 1;
nodes = (
(158,0,l),
(158,120,l),
(38,120,l),
(38,0,l)
);
}
);
width = 195;
}
);
unicode = 46;
userData = {
KernOnSpecialSpacing = {
L = period;
R = period;
};
};
},
{
glyphname = comma;
kernLeft = "20";
kernRight = "20";
lastChange = "2024-04-18 14:55:36 +0000";
layers = (
{
layerId = "2138459E-7720-4001-9A22-A006F68CB051";
shapes = (
{
closed = 1;
nodes = (
(177,-132,o),
(206,-63,o),
(205,10,cs),
(205,120,l),
(85,120,l),
(85,10,ls),
(85,-31,o),
(67,-70,o),
(38,-100,c),
(124,-183,l)
);
}
);
width = 242;
}
);
unicode = 44;
userData = {
KernOnSpecialSpacing = {
L = period;
R = period;
};
};
},
{
glyphname = colon;
kernLeft = "20";
kernRight = "20";
lastChange = "2024-04-18 14:55:36 +0000";
layers = (
{
layerId = "2138459E-7720-4001-9A22-A006F68CB051";
shapes = (
{
closed = 1;
nodes = (
(158,790,l),
(158,910,l),
(38,910,l),
(38,790,l)
);
},
{
closed = 1;
nodes = (
(158,0,l),
(158,120,l),
(38,120,l),
(38,0,l)
);
}
);
width = 195;
}
);
unicode = 58;
userData = {
KernOnSpecialSpacing = {
L = "spaced-off";
R = "spaced-off";
};
};
},
{
glyphname = semicolon;
kernLeft = "20";
kernRight = "20";
lastChange = "2024-04-18 14:55:36 +0000";
layers = (
{
layerId = "2138459E-7720-4001-9A22-A006F68CB051";
shapes = (
{
closed = 1;
nodes = (
(177,-132,o),
(206,-63,o),
(205,10,cs),
(205,120,l),
(85,120,l),
(85,10,ls),
(85,-31,o),
(67,-70,o),
(38,-100,c),
(124,-183,l)
);
},
{
closed = 1;
nodes = (
(205,790,l),
(205,910,l),
(85,910,l),
(85,790,l)
);
}
);
width = 242;
}
);
unicode = 59;
userData = {
KernOnSpecialSpacing = {
L = "spaced-off";
R = "spaced-off";
};
};
},
{
glyphname = ellipsis;
kernLeft = "20";
kernRight = "20";
lastChange = "2024-04-18 14:55:36 +0000";
layers = (
{
layerId = "2138459E-7720-4001-9A22-A006F68CB051";
shapes = (
{
closed = 1;
nodes = (
(567,0,l),
(567,120,l),
(447,120,l),
(447,0,l)
);
},
{
closed = 1;
nodes = (
(158,0,l),
(158,120,l),
(38,120,l),
(38,0,l)
);
},
{
closed = 1;
nodes = (
(362,0,l),
(362,120,l),
(242,120,l),
(242,0,l)
);
}
);
width = 604;
}
);
unicode = 8230;
},
{
glyphname = exclam;
kernLeft = "20";
kernRight = "20";
lastChange = "2024-04-18 14:55:36 +0000";
layers = (
{
layerId = "2138459E-7720-4001-9A22-A006F68CB051";
shapes = (
{
closed = 1;
nodes = (
(158,266,l),
(158,1461,l),
(38,1461,l),
(38,266,l)
);
},
{
closed = 1;
nodes = (
(158,0,l),
(158,120,l),
(38,120,l),
(38,0,l)
);
}
);
width = 195;
}
);
unicode = 33;
userData = {
KernOnSpecialSpacing = {
L = "spaced-off";
};
};
},
{
glyphname = exclamdown;
kernLeft = "20";
kernRight = "20";
lastChange = "2024-04-18 14:55:36 +0000";
layers = (
{
layerId = "2138459E-7720-4001-9A22-A006F68CB051";
shapes = (
{
closed = 1;
nodes = (
(158,0,l),
(158,1196,l),
(38,1196,l),
(38,0,l)
);
},
{
closed = 1;
nodes = (
(158,1341,l),
(158,1461,l),
(38,1461,l),
(38,1341,l)
);
}
);
width = 195;
}
);
unicode = 161;
userData = {
KernOnSpecialSpacing = {
R = "spaced-off";
};
};
},
{
glyphname = question;
kernLeft = "20";
kernRight = "20";
lastChange = "2024-04-18 14:55:36 +0000";
layers = (
{
layerId = "2138459E-7720-4001-9A22-A006F68CB051";
shapes = (
{
closed = 1;
nodes = (
(158,1226,l),
(158,1289,o),
(210,1341,o),
(275,1341,cs),
(338,1341,o),
(390,1289,o),
(390,1226,c),
(510,1226,l),
(510,1355,o),
(405,1461,o),
(275,1461,cs),
(143,1461,o),
(38,1355,o),
(38,1226,c)
);
},
{
closed = 1;
nodes = (
(336,0,l),
(336,120,l),
(216,120,l),
(216,0,l)
);
},
{
closed = 1;
nodes = (
(336,266,l),
(336,598,l),
(216,598,l),
(216,266,l)
);
},
{
closed = 1;
nodes = (
(405,478,o),
(510,584,o),
(510,713,c),
(390,713,l),
(390,650,o),
(338,598,o),
(275,598,c),
(275,478,l)
);
},
{
closed = 1;
nodes = (
(510,713,l),
(510,1226,l),
(390,1226,l),
(390,713,l)
);
}
);
width = 548;
}
);
unicode = 63;
userData = {
KernOnSpecialSpacing = {
L = "spaced-off";
};
};
},
{
glyphname = questiondown;
kernLeft = "20";
kernRight = "20";
lastChange = "2024-04-18 14:55:36 +0000";
layers = (
{
layerId = "2138459E-7720-4001-9A22-A006F68CB051";
shapes = (
{
closed = 1;
nodes = (
(405,0,o),
(510,106,o),
(510,235,c),
(390,235,l),
(390,172,o),
(338,120,o),
(272,120,cs),
(210,120,o),
(158,172,o),
(158,235,c),
(38,235,l),
(38,106,o),
(143,0,o),
(272,0,cs)
);
},
{
closed = 1;
nodes = (
(158,235,l),
(158,748,l),
(38,748,l),
(38,235,l)
);
},
{
closed = 1;
nodes = (
(158,748,l),
(158,812,o),
(210,863,o),
(272,863,c),
(272,984,l),
(143,984,o),
(38,878,o),
(38,748,c)
);
},
{
closed = 1;
nodes = (
(332,863,l),
(332,1196,l),
(212,1196,l),
(212,863,l)
);
},
{
closed = 1;
nodes = (
(332,1341,l),
(332,1461,l),
(212,1461,l),
(212,1341,l)
);
}
);
width = 548;
}
);
unicode = 191;
userData = {
KernOnSpecialSpacing = {
R = "spaced-off";
};
};
},
{
glyphname = bullet;
kernLeft = "20";
kernRight = "20";
lastChange = "2024-04-18 14:55:36 +0000";
layers = (
{
layerId = "2138459E-7720-4001-9A22-A006F68CB051";
shapes = (
{
closed = 1;
nodes = (
(183,399,o),
(225,440,o),
(225,493,cs),
(225,544,o),
(183,586,o),
(132,586,cs),
(80,586,o),
(38,544,o),
(38,493,cs),
(38,440,o),
(80,399,o),
(132,399,cs)
);
}
);
width = 263;
}
);
unicode = 8226;
userData = {
KernOnSpecialSpacing = {
L = NoKerning;
R = NoKerning;
};
};
},
{
glyphname = asterisk;
kernLeft = "20";
kernRight = "20";
lastChange = "2024-04-18 14:55:36 +0000";
layers = (
{
layerId = "2138459E-7720-4001-9A22-A006F68CB051";
shapes = (
{
closed = 1;
nodes = (
(407,1509,l),
(366,1568,l),
(48,1415,l),
(90,1356,l)
);
},
{
closed = 1;
nodes = (
(333,1325,l),
(181,1643,l),
(121,1600,l),
(274,1284,l)
);
},
{
closed = 1;
nodes = (
(388,1368,l),
(399,1440,l),
(67,1555,l),
(55,1484,l)
);
},
{
closed = 1;
nodes = (
(205,1291,l),
(320,1624,l),
(250,1636,l),
(134,1303,l)
);
}
);
width = 456;
}
);
unicode = 42;
userData = {
KernOnSpecialSpacing = {
L = quotes;
R = quotes;
};
};
},
{
glyphname = numbersign;
kernLeft = "20";
kernRight = "20";
lastChange = "2024-04-18 14:55:36 +0000";
layers = (
{
layerId = "2138459E-7720-4001-9A22-A006F68CB051";
shapes = (
{
closed = 1;
nodes = (
(432,0,l),
(921,1461,l),
(801,1461,l),
(312,0,l)
);
},
{
closed = 1;
nodes = (
(728,533,l),
(768,653,l),
(136,653,l),
(97,533,l)
);
},
{
closed = 1;
nodes = (
(158,0,l),
(647,1461,l),
(527,1461,l),
(38,0,l)
);
},
{
closed = 1;
nodes = (
(818,809,l),
(857,929,l),
(226,929,l),
(187,809,l)
);
}
);
width = 959;
}
);
unicode = 35;
},
{
glyphname = slash;
kernLeft = "20";
kernRight = "20";
lastChange = "2024-04-18 14:55:36 +0000";
layers = (
{
layerId = "2138459E-7720-4001-9A22-A006F68CB051";
shapes = (
{
closed = 1;
nodes = (
(158,0,l),
(647,1461,l),
(527,1461,l),
(38,0,l)
);
}
);
width = 684;
}
);
unicode = 47;
userData = {
KernOnSpecialSpacing = {
L = slash;
R = slash;
};
};
},
{
glyphname = backslash;
kernLeft = "20";
kernRight = "20";
lastChange = "2024-04-18 14:55:36 +0000";
layers = (
{
layerId = "2138459E-7720-4001-9A22-A006F68CB051";
shapes = (
{
closed = 1;
nodes = (
(647,0,l),
(158,1461,l),
(38,1461,l),
(527,0,l)
);
}
);
width = 684;
}
);
unicode = 92;
userData = {
KernOnSpecialSpacing = {
L = "spaced-off";
R = "spaced-off";
};
};
},
{
glyphname = hyphen;
kernLeft = "20";
kernRight = "20";
lastChange = "2024-04-18 14:55:36 +0000";
layers = (
{
layerId = "2138459E-7720-4001-9A22-A006F68CB051";
shapes = (
{
closed = 1;
nodes = (
(341,672,l),
(341,791,l),
(38,791,l),
(38,672,l)
);
}
);
width = 378;
}
);
unicode = 45;
userData = {
KernOnSpecialSpacing = {
L = hyphen;
R = hyphen;
};
};
},
{
glyphname = endash;
kernLeft = "20";
kernRight = "20";
lastChange = "2024-04-18 14:55:36 +0000";
layers = (
{
layerId = "2138459E-7720-4001-9A22-A006F68CB051";
shapes = (
{
closed = 1;
nodes = (
(510,672,l),
(510,791,l),
(38,791,l),
(38,672,l)
);
}
);
width = 548;
}
);
unicode = 8211;
userData = {
KernOnSpecialSpacing = {
L = dashes;
R = dashes;
};
};
},
{
glyphname = emdash;
kernLeft = "20";
kernRight = "20";
lastChange = "2024-04-18 14:55:36 +0000";
layers = (
{
layerId = "2138459E-7720-4001-9A22-A006F68CB051";
shapes = (
{
closed = 1;
nodes = (
(704,672,l),
(704,791,l),
(38,791,l),
(38,672,l)
);
}
);
width = 742;
}
);
unicode = 8212;
userData = {
KernOnSpecialSpacing = {
L = dashes;
R = dashes;
};
};
},
{
glyphname = parenleft;
kernLeft = "20";
kernRight = "20";
lastChange = "2024-04-18 14:55:36 +0000";
layers = (
{
layerId = "2138459E-7720-4001-9A22-A006F68CB051";
shapes = (
{
closed = 1;
nodes = (
(310,120,l),
(226,120,o),
(158,188,o),
(158,271,cs),
(158,1190,ls),
(158,1273,o),
(226,1341,o),
(310,1341,c),
(310,1461,l),
(159,1461,o),
(38,1339,o),
(38,1190,cs),
(38,271,ls),
(38,122,o),
(159,0,o),
(310,0,c)
);
}
);
width = 348;
}
);
unicode = 40;
userData = {
KernOnSpecialSpacing = {
R = parenthesis;
};
};
},
{
glyphname = parenright;
kernLeft = "20";
kernRight = "20";
lastChange = "2024-04-18 14:55:36 +0000";
layers = (
{
layerId = "2138459E-7720-4001-9A22-A006F68CB051";
shapes = (
{
closed = 1;
nodes = (
(188,0,o),
(310,122,o),
(310,271,cs),
(310,1190,ls),
(310,1339,o),
(188,1461,o),
(38,1461,c),
(38,1341,l),
(122,1341,o),
(190,1273,o),
(190,1190,cs),
(190,271,ls),
(190,188,o),
(122,120,o),
(38,120,c),
(38,0,l)
);
}
);
width = 348;
}
);
unicode = 41;
userData = {
KernOnSpecialSpacing = {
L = parenthesis;
};
};
},
{
glyphname = braceleft;
kernLeft = "20";
kernRight = "20";
lastChange = "2024-04-18 14:55:36 +0000";
layers = (
{
layerId = "2138459E-7720-4001-9A22-A006F68CB051";
shapes = (
{
closed = 1;
nodes = (
(435,120,l),
(351,120,o),
(283,188,o),
(283,271,cs),
(283,1190,ls),
(283,1273,o),
(351,1341,o),
(435,1341,c),
(435,1461,l),
(285,1461,o),
(163,1339,o),
(163,1190,cs),
(163,792,l),
(38,792,l),
(38,673,l),
(163,673,l),
(163,271,ls),
(163,122,o),
(285,0,o),
(435,0,c)
);
}
);
width = 473;
}
);
unicode = 123;
userData = {
KernOnSpecialSpacing = {
R = parenthesis;
};
};
},
{
glyphname = braceright;
kernLeft = "20";
kernRight = "20";
lastChange = "2024-04-18 14:55:36 +0000";
layers = (
{
layerId = "2138459E-7720-4001-9A22-A006F68CB051";
shapes = (
{
closed = 1;
nodes = (
(188,0,o),
(310,122,o),
(310,271,cs),
(310,673,l),
(435,673,l),
(435,792,l),
(310,792,l),
(310,1190,ls),
(310,1339,o),
(188,1461,o),
(38,1461,c),
(38,1341,l),
(122,1341,o),
(190,1273,o),
(190,1190,cs),
(190,271,ls),
(190,188,o),
(122,120,o),
(38,120,c),
(38,0,l)
);
}
);
width = 473;
}
);
unicode = 125;
userData = {
KernOnSpecialSpacing = {
L = parenthesis;
};
};
},
{
glyphname = bracketleft;
kernLeft = "20";
kernRight = "20";
lastChange = "2024-04-18 14:55:36 +0000";
layers = (
{
layerId = "2138459E-7720-4001-9A22-A006F68CB051";
shapes = (
{
closed = 1;
nodes = (
(158,0,l),
(158,1461,l),
(38,1461,l),
(38,0,l)
);
},
{
closed = 1;
nodes = (
(391,0,l),
(391,120,l),
(38,120,l),
(38,0,l)
);
},
{
closed = 1;
nodes = (
(391,1341,l),
(391,1461,l),
(38,1461,l),
(38,1341,l)
);
}
);
width = 429;
}
);
unicode = 91;
userData = {
KernOnSpecialSpacing = {
L = NoKerning;
R = parenthesis;
};
};
},
{
glyphname = bracketright;
kernLeft = "20";
kernRight = "20";
lastChange = "2024-04-18 14:55:36 +0000";
layers = (
{
layerId = "2138459E-7720-4001-9A22-A006F68CB051";
shapes = (
{
closed = 1;
nodes = (
(391,0,l),
(391,1461,l),
(271,1461,l),
(271,0,l)
);
},
{
closed = 1;
nodes = (
(391,0,l),
(391,120,l),
(38,120,l),
(38,0,l)
);
},
{
closed = 1;
nodes = (
(391,1341,l),
(391,1461,l),
(38,1461,l),
(38,1341,l)
);
}
);
width = 429;
}
);
unicode = 93;
userData = {
KernOnSpecialSpacing = {
L = parenthesis;
R = NoKerning;
};
};
},
{
glyphname = guillemetleft;
kernLeft = "20";
kernRight = "20";
lastChange = "2024-04-18 14:55:36 +0000";
layers = (
{
layerId = "2138459E-7720-4001-9A22-A006F68CB051";
shapes = (
{
closed = 1;
nodes = (
(187,433,o),
(308,554,o),
(308,703,c),
(188,703,l),
(188,621,o),
(120,553,o),
(38,553,c),
(38,433,l)
);
},
{
closed = 1;
nodes = (
(308,282,l),
(308,431,o),
(187,553,o),
(38,553,c),
(38,433,l),
(120,433,o),
(188,364,o),
(188,282,c)
);
},
{
closed = 1;
nodes = (
(485,284,l),
(485,384,o),
(451,475,o),
(392,547,c),
(280,493,l),
(333,439,o),
(365,365,o),
(365,284,c)
);
},
{
closed = 1;
nodes = (
(451,509,o),
(485,602,o),
(485,703,c),
(365,703,l),
(365,621,o),
(333,549,o),
(280,493,c),
(391,437,l)
);
}
);
width = 523;
}
);
unicode = 171;
userData = {
KernOnSpecialSpacing = {
L = quotes;
R = quotes;
};
};
},
{
glyphname = guillemetright;
kernLeft = "20";
kernRight = "20";
lastChange = "2024-04-18 14:55:36 +0000";
layers = (
{
layerId = "2138459E-7720-4001-9A22-A006F68CB051";
shapes = (
{
closed = 1;
nodes = (
(485,553,l),
(403,553,o),
(334,621,o),
(334,703,c),
(215,703,l),
(215,554,o),
(336,433,o),
(485,433,c)
);
},
{
closed = 1;
nodes = (
(158,284,l),
(158,365,o),
(191,439,o),
(243,493,c),
(132,547,l),
(73,475,o),
(38,384,o),
(38,284,c)
);
},
{
closed = 1;
nodes = (
(334,282,l),
(334,364,o),
(403,433,o),
(485,433,c),
(485,553,l),
(336,553,o),
(215,431,o),
(215,282,c)
);
},
{
closed = 1;
nodes = (
(243,493,l),
(191,549,o),
(158,621,o),
(158,703,c),
(38,703,l),
(38,602,o),
(73,509,o),
(133,437,c)
);
}
);
width = 523;
}
);
unicode = 187;
userData = {
KernOnSpecialSpacing = {
L = quotes;
R = quotes;
};
};
},
{
glyphname = guilsinglleft;
kernLeft = "20";
kernRight = "20";
lastChange = "2024-04-18 14:55:36 +0000";
layers = (
{
layerId = "2138459E-7720-4001-9A22-A006F68CB051";
shapes = (
{
closed = 1;
nodes = (
(187,433,o),
(308,554,o),
(308,703,c),
(188,703,l),
(188,621,o),
(120,553,o),
(38,553,c),
(38,433,l)
);
},
{
closed = 1;
nodes = (
(308,282,l),
(308,431,o),
(187,553,o),
(38,553,c),
(38,433,l),
(120,433,o),
(188,364,o),
(188,282,c)
);
}
);
width = 346;
}
);
unicode = 8249;
userData = {
KernOnSpecialSpacing = {
L = quotes;
R = quotes;
};
};
},
{
glyphname = guilsinglright;
kernLeft = "20";
kernRight = "20";
lastChange = "2024-04-18 14:55:36 +0000";
layers = (
{
layerId = "2138459E-7720-4001-9A22-A006F68CB051";
shapes = (
{
closed = 1;
nodes = (
(308,553,l),
(226,553,o),
(158,621,o),
(158,703,c),
(38,703,l),
(38,554,o),
(159,433,o),
(308,433,c)
);
},
{
closed = 1;
nodes = (
(158,282,l),
(158,364,o),
(226,433,o),
(308,433,c),
(308,553,l),
(159,553,o),
(38,431,o),
(38,282,c)
);
}
);
width = 346;
}
);
unicode = 8250;
userData = {
KernOnSpecialSpacing = {
L = quotes;
R = quotes;
};
};
},
{
glyphname = quotesingle;
kernLeft = "20";
kernRight = "20";
lastChange = "2024-04-18 14:55:36 +0000";
layers = (
{
layerId = "2138459E-7720-4001-9A22-A006F68CB051";
shapes = (
{
closed = 1;
nodes = (
(158,1240,l),
(158,1683,l),
(38,1683,l),
(38,1240,l)
);
}
);
width = 195;
}
);
unicode = 39;
userData = {
KernOnSpecialSpacing = {
L = quotes;
R = quotes;
};
};
},
{
glyphname = at;
kernLeft = "20";
kernRight = "20";
lastChange = "2024-04-18 14:55:36 +0000";
layers = (
{
layerId = "2138459E-7720-4001-9A22-A006F68CB051";
shapes = (
{
closed = 1;
nodes = (
(158,731,l),
(158,935,o),
(325,1102,o),
(530,1102,cs),
(735,1102,o),
(902,935,o),
(902,731,c),
(1022,731,l),
(1022,1000,o),
(800,1222,o),
(530,1222,cs),
(260,1222,o),
(38,1000,o),
(38,731,c)
);
},
{
closed = 1;
nodes = (
(530,-119,l),
(325,-119,o),
(158,48,o),
(158,253,c),
(38,253,l),
(38,-17,o),
(260,-239,o),
(530,-239,c)
);
},
{
closed = 1;
nodes = (
(158,253,l),
(158,731,l),
(38,731,l),
(38,253,l)
);
},
{
closed = 1;
nodes = (
(530,136,l),
(465,136,o),
(412,189,o),
(412,253,c),
(333,253,l),
(333,146,o),
(420,56,o),
(530,56,c)
);
},
{
closed = 1;
nodes = (
(412,253,l),
(412,731,l),
(333,731,l),
(333,253,l)
);
},
{
closed = 1;
nodes = (
(412,731,l),
(412,794,o),
(465,847,o),
(530,847,cs),
(593,847,o),
(647,794,o),
(647,731,c),
(727,731,l),
(727,837,o),
(637,927,o),
(530,927,cs),
(420,927,o),
(333,837,o),
(333,731,c)
);
},
{
closed = 1;
nodes = (
(1022,-239,l),
(1022,731,l),
(902,731,l),
(902,-239,l)
);
},
{
closed = 1;
nodes = (
(647,-239,l),
(727,-239,l),
(727,731,l),
(647,731,l)
);
}
);
width = 1059;
}
);
unicode = 64;
userData = {
KernOnSpecialSpacing = {
L = symbols;
R = symbols;
};
};
},
{
glyphname = ampersand;
kernLeft = "20";
kernRight = "20";
lastChange = "2024-04-18 14:55:36 +0000";
layers = (
{
layerId = "2138459E-7720-4001-9A22-A006F68CB051";
shapes = (
{
closed = 1;
nodes = (
(38,222,o),
(260,0,o),
(530,0,cs),
(800,0,o),
(1022,222,o),
(1022,492,c),
(902,492,l),
(902,287,o),
(735,120,o),
(530,120,cs),
(325,120,o),
(158,287,o),
(158,492,c),
(38,492,l)
);
},
{
closed = 1;
nodes = (
(896,0,l),
(1022,0,l),
(913,222,l),
(795,207,l)
);
},
{
closed = 1;
nodes = (
(260,986,o),
(35,764,o),
(38,495,cs),
(38,222,o),
(260,0,o),
(530,0,c),
(530,120,l),
(325,120,o),
(158,288,o),
(158,495,cs),
(158,699,o),
(325,866,o),
(530,866,c),
(530,986,l)
);
},
{
closed = 1;
nodes = (
(692,866,o),
(826,1001,o),
(826,1164,cs),
(826,1327,o),
(692,1461,o),
(530,1461,cs),
(366,1461,o),
(231,1327,o),
(231,1164,cs),
(231,1001,o),
(366,866,o),
(530,866,cs)
);
},
{
closed = 1;
nodes = (
(432,986,o),
(351,1067,o),
(351,1164,cs),
(351,1260,o),
(432,1341,o),
(530,1341,cs),
(626,1341,o),
(706,1260,o),
(706,1164,cs),
(706,1067,o),
(626,986,o),
(530,986,cs)
);
}
);
width = 1059;
}
);
unicode = 38;
userData = {
KernOnSpecialSpacing = {
L = symbols;
R = symbols;
};
};
},
{
glyphname = section;
kernLeft = "20";
kernRight = "20";
lastChange = "2024-04-18 14:55:36 +0000";
layers = (
{
layerId = "2138459E-7720-4001-9A22-A006F68CB051";
shapes = (
{
closed = 1;
nodes = (
(614,360,o),
(780,525,o),
(780,731,cs),
(780,936,o),
(614,1102,o),
(409,1102,cs),
(204,1102,o),
(38,936,o),
(38,731,cs),
(38,525,o),
(204,360,o),
(409,360,cs)
);
},
{
closed = 1;
nodes = (
(611,-104,o),
(774,59,o),
(774,261,cs),
(774,398,o),
(689,516,o),
(573,556,c),
(562,437,l),
(616,399,o),
(654,334,o),
(654,261,cs),
(654,129,o),
(542,16,o),
(409,16,cs),
(344,16,o),
(282,44,o),
(238,87,c),
(151,3,l),
(218,-65,o),
(308,-104,o),
(409,-104,cs)
);
},
{
closed = 1;
nodes = (
(273,480,o),
(158,595,o),
(158,731,cs),
(158,866,o),
(273,981,o),
(409,981,cs),
(545,981,o),
(660,866,o),
(660,731,cs),
(660,595,o),
(545,480,o),
(409,480,cs)
);
},
{
closed = 1;
nodes = (
(253,1028,l),
(200,1064,o),
(164,1128,o),
(164,1200,cs),
(164,1333,o),
(276,1445,o),
(409,1445,cs),
(474,1445,o),
(535,1417,o),
(580,1374,c),
(668,1458,l),
(600,1526,o),
(510,1565,o),
(409,1565,cs),
(207,1565,o),
(44,1402,o),
(44,1200,cs),
(44,1065,o),
(129,949,o),
(241,909,c)
);
}
);
width = 817;
}
);
unicode = 167;
userData = {
KernOnSpecialSpacing = {
R = symbols;
};
};
},
{
glyphname = copyright;
kernLeft = "20";
kernRight = "20";
lastChange = "2024-04-18 14:55:36 +0000";
layers = (
{
layerId = "2138459E-7720-4001-9A22-A006F68CB051";
shapes = (
{
closed = 1;
nodes = (
(158,731,l),
(158,935,o),
(325,1102,o),
(530,1102,cs),
(735,1102,o),
(902,935,o),
(902,731,c),
(1022,731,l),
(1022,1000,o),
(800,1222,o),
(530,1222,cs),
(260,1222,o),
(38,1000,o),
(38,731,c)
);
},
{
closed = 1;
nodes = (
(800,-239,o),
(1022,-17,o),
(1022,253,c),
(902,253,l),
(902,48,o),
(735,-119,o),
(530,-119,cs),
(325,-119,o),
(158,48,o),
(158,253,c),
(38,253,l),
(38,-17,o),
(260,-239,o),
(530,-239,cs)
);
},
{
closed = 1;
nodes = (
(158,253,l),
(158,731,l),
(38,731,l),
(38,253,l)
);
},
{
closed = 1;
nodes = (
(637,56,o),
(727,146,o),
(727,253,c),
(647,253,l),
(647,189,o),
(593,136,o),
(530,136,cs),
(465,136,o),
(412,189,o),
(412,253,c),
(333,253,l),
(333,146,o),
(420,56,o),
(530,56,cs)
);
},
{
closed = 1;
nodes = (
(412,253,l),
(412,731,l),
(333,731,l),
(333,253,l)
);
},
{
closed = 1;
nodes = (
(412,731,l),
(412,794,o),
(465,847,o),
(530,847,cs),
(593,847,o),
(647,794,o),
(647,731,c),
(727,731,l),
(727,837,o),
(637,927,o),
(530,927,cs),
(420,927,o),
(333,837,o),
(333,731,c)
);
},
{
closed = 1;
nodes = (
(1022,253,l),
(1022,731,l),
(902,731,l),
(902,253,l)
);
}
);
width = 1059;
}
);
unicode = 169;
userData = {
KernOnSpecialSpacing = {
R = symbols;
};
};
},
{
glyphname = registered;
kernLeft = "20";
kernRight = "20";
lastChange = "2024-04-18 14:55:36 +0000";
layers = (
{
layerId = "2138459E-7720-4001-9A22-A006F68CB051";
shapes = (
{
closed = 1;
nodes = (
(521,882,o),
(659,1021,o),
(659,1189,cs),
(659,1624,ls),
(659,1793,o),
(521,1931,o),
(352,1931,cs),
(178,1931,o),
(38,1793,o),
(38,1624,cs),
(38,1189,ls),
(38,1021,o),
(178,882,o),
(352,882,cs)
);
},
{
closed = 1;
nodes = (
(489,1143,l),
(489,1221,ls),
(489,1266,o),
(465,1308,o),
(429,1333,c),
(465,1356,o),
(489,1398,o),
(489,1445,c),
(433,1445,l),
(433,1399,o),
(395,1361,o),
(349,1361,c),
(349,1304,l),
(395,1304,o),
(433,1266,o),
(433,1221,cs),
(433,1143,l)
);
},
{
closed = 1;
nodes = (
(218,957,o),
(113,1062,o),
(113,1191,cs),
(113,1624,ls),
(113,1752,o),
(218,1857,o),
(351,1857,cs),
(480,1857,o),
(585,1752,o),
(585,1624,cs),
(585,1189,ls),
(585,1061,o),
(480,957,o),
(351,957,cs)
);
},
{
closed = 1;
nodes = (
(263,1143,l),
(263,1621,ls),
(263,1667,o),
(301,1704,o),
(349,1704,cs),
(395,1704,o),
(433,1667,o),
(433,1621,cs),
(433,1445,l),
(489,1445,l),
(489,1621,ls),
(489,1698,o),
(427,1762,o),
(349,1762,cs),
(269,1762,o),
(207,1698,o),
(207,1621,cs),
(207,1143,l)
);
}
);
width = 697;
}
);
unicode = 174;
userData = {
KernOnSpecialSpacing = {
L = superiors;
};
};
},
{
glyphname = degree;
kernLeft = "20";
kernRight = "20";
lastChange = "2024-04-18 14:55:36 +0000";
layers = (
{
layerId = "2138459E-7720-4001-9A22-A006F68CB051";
shapes = (
{
closed = 1;
nodes = (
(283,1162,o),
(354,1233,o),
(354,1319,cs),
(354,1605,ls),
(354,1691,o),
(283,1762,o),
(197,1762,cs),
(109,1762,o),
(38,1691,o),
(38,1605,cs),
(38,1319,ls),
(38,1233,o),
(109,1162,o),
(197,1162,cs)
);
},
{
closed = 1;
nodes = (
(141,1221,o),
(96,1265,o),
(96,1319,cs),
(96,1605,ls),
(96,1659,o),
(141,1704,o),
(197,1704,cs),
(250,1704,o),
(295,1659,o),
(295,1605,cs),
(295,1319,ls),
(295,1265,o),
(250,1221,o),
(197,1221,cs)
);
}
);
width = 391;
}
);
unicode = 176;
userData = {
KernOnSpecialSpacing = {
L = superiors;
R = superiors;
};
};
},
{
glyphname = bar;
kernLeft = "20";
kernRight = "20";
lastChange = "2024-04-18 14:55:36 +0000";
layers = (
{
layerId = "2138459E-7720-4001-9A22-A006F68CB051";
shapes = (
{
closed = 1;
nodes = (
(158,-183,l),
(158,1644,l),
(38,1644,l),
(38,-183,l)
);
}
);
width = 195;
}
);
unicode = 124;
userData = {
KernOnSpecialSpacing = {
L = NoKerning;
R = NoKerning;
};
};
},
{
glyphname = dagger;
lastChange = "2024-04-18 14:55:36 +0000";
layers = (
{
layerId = "2138459E-7720-4001-9A22-A006F68CB051";
shapes = (
{
closed = 1;
nodes = (
(286,745,l),
(286,1644,l),
(166,1644,l),
(166,745,l)
);
},
{
closed = 1;
nodes = (
(418,1271,l),
(418,1391,l),
(38,1391,l),
(38,1271,l)
);
}
);
width = 456;
}
);
unicode = 8224;
},
{
glyphname = cent;
kernLeft = "20";
kernRight = "20";
lastChange = "2024-04-18 14:55:36 +0000";
layers = (
{
layerId = "2138459E-7720-4001-9A22-A006F68CB051";
shapes = (
{
closed = 1;
nodes = (
(158,1005,l),
(158,1056,o),
(202,1101,o),
(256,1101,cs),
(308,1101,o),
(353,1056,o),
(353,1005,c),
(473,1005,l),
(473,1124,o),
(375,1221,o),
(256,1221,cs),
(135,1221,o),
(38,1124,o),
(38,1005,c)
);
},
{
closed = 1;
nodes = (
(316,0,l),
(316,264,l),
(196,264,l),
(196,0,l)
);
},
{
closed = 1;
nodes = (
(375,238,o),
(473,335,o),
(473,454,c),
(353,454,l),
(353,402,o),
(308,358,o),
(256,358,cs),
(202,358,o),
(158,402,o),
(158,454,c),
(38,454,l),
(38,335,o),
(135,238,o),
(256,238,cs)
);
},
{
closed = 1;
nodes = (
(158,454,l),
(158,1005,l),
(38,1005,l),
(38,454,l)
);
},
{
closed = 1;
nodes = (
(316,1197,l),
(316,1461,l),
(196,1461,l),
(196,1197,l)
);
}
);
width = 510;
}
);
unicode = 162;
userData = {
KernOnSpecialSpacing = {
L = symbols;
R = symbols;
};
};
},
{
glyphname = dollar;
kernLeft = "20";
kernRight = "20";
lastChange = "2024-04-18 14:55:36 +0000";
layers = (
{
layerId = "2138459E-7720-4001-9A22-A006F68CB051";
shapes = (
{
closed = 1;
nodes = (
(335,-183,l),
(335,8,l),
(436,35,o),
(510,127,o),
(510,235,cs),
(510,877,ls),
(510,1006,o),
(405,1111,o),
(275,1111,cs),
(210,1111,o),
(158,1164,o),
(158,1226,cs),
(158,1289,o),
(210,1341,o),
(275,1341,cs),
(338,1341,o),
(390,1289,o),
(390,1226,c),
(510,1226,l),
(510,1335,o),
(436,1426,o),
(335,1453,c),
(335,1644,l),
(215,1644,l),
(215,1453,l),
(113,1426,o),
(38,1334,o),
(38,1226,cs),
(38,1097,o),
(143,991,o),
(275,991,cs),
(338,991,o),
(390,939,o),
(390,877,cs),
(390,235,ls),
(390,172,o),
(338,120,o),
(275,120,cs),
(210,120,o),
(158,172,o),
(158,235,cs),
(158,877,l),
(38,877,l),
(38,235,ls),
(38,128,o),
(113,35,o),
(215,8,c),
(215,-183,l)
);
}
);
width = 548;
}
);
unicode = 36;
userData = {
KernOnSpecialSpacing = {
L = symbols;
R = symbols;
};
};
},
{
glyphname = euro;
kernLeft = "20";
kernRight = "20";
lastChange = "2024-04-18 14:55:36 +0000";
layers = (
{
layerId = "2138459E-7720-4001-9A22-A006F68CB051";
shapes = (
{
closed = 1;
nodes = (
(354,511,l),
(354,631,l),
(38,631,l),
(38,511,l)
);
},
{
closed = 1;
nodes = (
(354,830,l),
(354,950,l),
(38,950,l),
(38,830,l)
);
},
{
closed = 1;
nodes = (
(238,0,l),
(238,1226,l),
(118,1226,l),
(118,0,l)
);
},
{
closed = 1;
nodes = (
(356,0,l),
(356,120,l),
(129,120,l),
(129,0,l)
);
},
{
closed = 1;
nodes = (
(485,0,o),
(591,106,o),
(591,235,c),
(471,235,l),
(471,172,o),
(419,120,o),
(356,120,c),
(356,0,l)
);
},
{
closed = 1;
nodes = (
(238,1226,l),
(238,1289,o),
(290,1341,o),
(356,1341,cs),
(419,1341,o),
(471,1289,o),
(471,1226,c),
(591,1226,l),
(591,1355,o),
(485,1461,o),
(356,1461,cs),
(224,1461,o),
(118,1355,o),
(118,1226,c)
);
}
);
width = 629;
}
);
unicode = 8364;
userData = {
KernOnSpecialSpacing = {
L = symbols;
R = symbols;
};
};
},
{
glyphname = sterling;
kernLeft = "20";
kernRight = "20";
lastChange = "2024-04-18 14:55:36 +0000";
layers = (
{
layerId = "2138459E-7720-4001-9A22-A006F68CB051";
shapes = (
{
closed = 1;
nodes = (
(510,0,l),
(510,120,l),
(158,120,l),
(158,433,l),
(275,433,l),
(275,553,l),
(158,553,l),
(158,1226,ls),
(158,1289,o),
(210,1341,o),
(275,1341,cs),
(338,1341,o),
(390,1289,o),
(390,1226,c),
(510,1226,l),
(510,1355,o),
(405,1461,o),
(275,1461,cs),
(143,1461,o),
(38,1355,o),
(38,1226,cs),
(38,0,l)
);
}
);
width = 548;
}
);
unicode = 163;
userData = {
KernOnSpecialSpacing = {
L = symbols;
R = symbols;
};
};
},
{
glyphname = yen;
kernLeft = "20";
kernRight = "20";
lastChange = "2024-04-18 14:55:36 +0000";
layers = (
{
layerId = "2138459E-7720-4001-9A22-A006F68CB051";
shapes = (
{
closed = 1;
nodes = (
(510,202,l),
(510,322,l),
(38,322,l),
(38,202,l)
);
},
{
closed = 1;
nodes = (
(510,480,l),
(510,600,l),
(38,600,l),
(38,480,l)
);
},
{
closed = 1;
nodes = (
(335,0,l),
(335,581,l),
(216,581,l),
(216,0,l)
);
},
{
closed = 1;
nodes = (
(405,480,o),
(510,586,o),
(510,715,c),
(390,715,l),
(390,652,o),
(338,600,o),
(275,600,cs),
(210,600,o),
(158,652,o),
(158,715,c),
(38,715,l),
(38,586,o),
(143,480,o),
(275,480,cs)
);
},
{
closed = 1;
nodes = (
(158,715,l),
(158,1461,l),
(38,1461,l),
(38,715,l)
);
},
{
closed = 1;
nodes = (
(510,715,l),
(510,1461,l),
(390,1461,l),
(390,715,l)
);
}
);
width = 548;
}
);
unicode = 165;
userData = {
KernOnSpecialSpacing = {
L = symbols;
R = symbols;
};
};
},
{
glyphname = plus;
kernLeft = "20";
kernRight = "20";
lastChange = "2024-04-18 14:55:36 +0000";
layers = (
{
layerId = "2138459E-7720-4001-9A22-A006F68CB051";
shapes = (
{
closed = 1;
nodes = (
(342,487,l),
(342,975,l),
(222,975,l),
(222,487,l)
);
},
{
closed = 1;
nodes = (
(526,672,l),
(526,791,l),
(38,791,l),
(38,672,l)
);
}
);
width = 564;
}
);
unicode = 43;
userData = {
KernOnSpecialSpacing = {
L = math;
R = math;
};
};
},
{
glyphname = multiply;
kernLeft = "20";
kernRight = "20";
lastChange = "2024-04-18 14:55:36 +0000";
layers = (
{
layerId = "2138459E-7720-4001-9A22-A006F68CB051";
shapes = (
{
closed = 1;
nodes = (
(467,862,l),
(383,946,l),
(38,601,l),
(122,517,l)
);
},
{
closed = 1;
nodes = (
(467,601,l),
(122,946,l),
(38,862,l),
(383,517,l)
);
}
);
width = 505;
}
);
unicode = 215;
userData = {
KernOnSpecialSpacing = {
L = math;
R = math;
};
};
},
{
glyphname = equal;
kernLeft = "20";
kernRight = "20";
lastChange = "2024-04-18 14:55:36 +0000";
layers = (
{
layerId = "2138459E-7720-4001-9A22-A006F68CB051";
shapes = (
{
closed = 1;
nodes = (
(526,781,l),
(526,901,l),
(38,901,l),
(38,781,l)
);
},
{
closed = 1;
nodes = (
(526,561,l),
(526,681,l),
(38,681,l),
(38,561,l)
);
}
);
width = 564;
}
);
unicode = 61;
userData = {
KernOnSpecialSpacing = {
L = math;
R = math;
};
};
},
{
glyphname = percent;
kernLeft = "20";
kernRight = "20";
lastChange = "2024-04-18 14:55:36 +0000";
layers = (
{
layerId = "2138459E-7720-4001-9A22-A006F68CB051";
shapes = (
{
closed = 1;
nodes = (
(340,0,l),
(829,1461,l),
(730,1461,l),
(241,0,l)
);
},
{
closed = 1;
nodes = (
(319,697,o),
(402,780,o),
(402,879,cs),
(402,1279,ls),
(402,1378,o),
(319,1461,o),
(222,1461,cs),
(121,1461,o),
(38,1378,o),
(38,1279,cs),
(38,879,ls),
(38,780,o),
(121,697,o),
(222,697,cs)
);
},
{
closed = 1;
nodes = (
(950,0,o),
(1032,83,o),
(1032,182,cs),
(1032,582,ls),
(1032,681,o),
(950,764,o),
(852,764,cs),
(751,764,o),
(668,681,o),
(668,582,cs),
(668,182,ls),
(668,83,o),
(751,0,o),
(852,0,cs)
);
},
{
closed = 1;
nodes = (
(172,792,o),
(133,830,o),
(133,878,cs),
(133,1281,ls),
(133,1329,o),
(172,1367,o),
(222,1367,cs),
(268,1367,o),
(308,1329,o),
(308,1281,cs),
(308,878,ls),
(308,830,o),
(268,792,o),
(222,792,cs)
);
},
{
closed = 1;
nodes = (
(803,94,o),
(763,132,o),
(763,180,cs),
(763,583,ls),
(763,631,o),
(803,669,o),
(852,669,cs),
(898,669,o),
(938,631,o),
(938,583,cs),
(938,180,ls),
(938,132,o),
(898,94,o),
(852,94,cs)
);
}
);
width = 1070;
}
);
unicode = 37;
userData = {
KernOnSpecialSpacing = {
L = "spaced-off";
};
};
},
{
glyphname = dieresiscomb;
kernLeft = "20";
kernRight = "20";
lastChange = "2024-04-18 14:55:36 +0000";
layers = (
{
anchors = (
{
name = _top;
pos = (191,984);
}
);
layerId = "2138459E-7720-4001-9A22-A006F68CB051";
shapes = (
{
closed = 1;
nodes = (
(318,1090,o),
(345,1116,o),
(345,1149,cs),
(345,1184,o),
(318,1210,o),
(285,1210,cs),
(251,1210,o),
(225,1184,o),
(225,1149,cs),
(225,1116,o),
(251,1090,o),
(285,1090,c)
);
},
{
closed = 1;
nodes = (
(131,1090,o),
(158,1116,o),
(158,1149,cs),
(158,1184,o),
(131,1210,o),
(97,1210,cs),
(64,1210,o),
(38,1184,o),
(38,1149,cs),
(38,1116,o),
(64,1090,o),
(97,1090,c)
);
}
);
width = 383;
}
);
unicode = 776;
userData = {
KernOnSpecialSpacing = {
L = NoKerning;
R = NoKerning;
};
};
},
{
glyphname = dotaccentcomb;
kernLeft = "20";
kernRight = "20";
lastChange = "2024-04-18 14:55:36 +0000";
layers = (
{
anchors = (
{
name = _top;
pos = (96,984);
}
);
layerId = "2138459E-7720-4001-9A22-A006F68CB051";
shapes = (
{
closed = 1;
nodes = (
(130,1090,o),
(157,1115,o),
(157,1148,cs),
(157,1183,o),
(130,1208,o),
(96,1208,cs),
(63,1208,o),
(38,1183,o),
(38,1148,cs),
(38,1115,o),
(63,1090,o),
(96,1090,c)
);
}
);
width = 194;
}
);
unicode = 775;
userData = {
KernOnSpecialSpacing = {
L = NoKerning;
R = NoKerning;
};
};
},
{
glyphname = gravecomb;
kernLeft = "20";
kernRight = "20";
lastChange = "2024-04-18 14:55:36 +0000";
layers = (
{
anchors = (
{
name = _top;
pos = (142,984);
}
);
layerId = "2138459E-7720-4001-9A22-A006F68CB051";
shapes = (
{
closed = 1;
nodes = (
(248,984,l),
(147,1321,l),
(38,1321,l),
(178,984,l)
);
}
);
width = 286;
}
);
unicode = 768;
userData = {
KernOnSpecialSpacing = {
L = NoKerning;
R = NoKerning;
};
};
},
{
glyphname = acutecomb;
kernLeft = "20";
kernRight = "20";
lastChange = "2024-04-18 14:55:36 +0000";
layers = (
{
anchors = (
{
name = _top;
pos = (144,984);
}
);
layerId = "2138459E-7720-4001-9A22-A006F68CB051";
shapes = (
{
closed = 1;
nodes = (
(108,984,l),
(248,1321,l),
(139,1321,l),
(38,984,l)
);
}
);
width = 286;
}
);
unicode = 769;
userData = {
KernOnSpecialSpacing = {
L = NoKerning;
R = NoKerning;
};
};
},
{
glyphname = circumflexcomb;
kernLeft = "20";
kernRight = "20";
lastChange = "2024-04-18 14:55:36 +0000";
layers = (
{
anchors = (
{
name = _top;
pos = (221,984);
}
);
layerId = "2138459E-7720-4001-9A22-A006F68CB051";
shapes = (
{
closed = 1;
nodes = (
(403,1145,l),
(335,1145,o),
(270,1173,o),
(221,1218,c),
(162,1144,l),
(229,1088,o),
(315,1058,o),
(403,1058,c)
);
},
{
closed = 1;
nodes = (
(126,1058,o),
(213,1088,o),
(279,1143,c),
(221,1218,l),
(173,1173,o),
(106,1145,o),
(38,1145,c),
(38,1058,l)
);
}
);
width = 441;
}
);
unicode = 770;
userData = {
KernOnSpecialSpacing = {
L = NoKerning;
R = NoKerning;
};
};
},
{
glyphname = ringcomb;
kernLeft = "20";
kernRight = "20";
lastChange = "2024-04-18 14:55:36 +0000";
layers = (
{
anchors = (
{
name = _top;
pos = (197,984);
}
);
layerId = "2138459E-7720-4001-9A22-A006F68CB051";
shapes = (
{
closed = 1;
nodes = (
(283,1029,o),
(354,1099,o),
(354,1186,cs),
(354,1272,o),
(283,1343,o),
(197,1343,cs),
(109,1343,o),
(38,1272,o),
(38,1186,cs),
(38,1099,o),
(109,1029,o),
(197,1029,cs)
);
},
{
closed = 1;
nodes = (
(147,1098,o),
(107,1137,o),
(107,1186,cs),
(107,1233,o),
(147,1273,o),
(197,1273,cs),
(244,1273,o),
(284,1233,o),
(284,1186,cs),
(284,1137,o),
(244,1098,o),
(197,1098,cs)
);
}
);
width = 391;
}
);
unicode = 778;
userData = {
KernOnSpecialSpacing = {
L = NoKerning;
R = NoKerning;
};
};
},
{
glyphname = tildecomb;
kernLeft = "20";
kernRight = "20";
lastChange = "2024-04-18 14:55:36 +0000";
layers = (
{
anchors = (
{
name = _top;
pos = (222,984);
}
);
layerId = "2138459E-7720-4001-9A22-A006F68CB051";
shapes = (
{
closed = 1;
nodes = (
(110,1133,o),
(129,1144,o),
(152,1147,cs),
(169,1148,o),
(188,1143,o),
(204,1132,cs),
(234,1112,o),
(274,1104,o),
(309,1112,cs),
(349,1118,o),
(385,1143,o),
(407,1175,c),
(347,1212,l),
(336,1193,o),
(316,1183,o),
(295,1180,cs),
(278,1178,o),
(257,1182,o),
(241,1194,cs),
(211,1214,o),
(172,1220,o),
(137,1213,cs),
(97,1207,o),
(61,1185,o),
(38,1151,c),
(98,1113,l)
);
}
);
width = 445;
}
);
unicode = 771;
userData = {
KernOnSpecialSpacing = {
L = NoKerning;
R = NoKerning;
};
};
},
{
glyphname = cedillacomb;
kernLeft = "20";
kernRight = "20";
lastChange = "2024-04-18 14:55:36 +0000";
layers = (
{
anchors = (
{
name = _bottom;
pos = (147,0);
}
);
layerId = "2138459E-7720-4001-9A22-A006F68CB051";
shapes = (
{
closed = 1;
nodes = (
(164,-395,o),
(235,-324,o),
(235,-236,cs),
(235,-150,o),
(164,-79,o),
(78,-79,c),
(78,-148,l),
(126,-148,o),
(166,-189,o),
(166,-236,cs),
(166,-285,o),
(126,-326,o),
(78,-326,c),
(78,-395,l)
);
},
{
closed = 1;
nodes = (
(78,-395,l),
(78,-326,l),
(38,-326,l),
(38,-395,l)
);
},
{
closed = 1;
nodes = (
(108,-148,l),
(108,15,l),
(38,15,l),
(38,-148,l)
);
}
);
width = 273;
}
);
unicode = 807;
userData = {
KernOnSpecialSpacing = {
L = NoKerning;
R = NoKerning;
};
};
},
{
glyphname = hungarumlaut;
kernLeft = "20";
kernRight = "20";
lastChange = "2024-04-18 14:55:36 +0000";
layers = (
{
anchors = (
{
name = _top;
pos = (340,984);
}
);
layerId = "2138459E-7720-4001-9A22-A006F68CB051";
shapes = (
{
closed = 1;
nodes = (
(502,984,l),
(642,1362,l),
(522,1362,l),
(382,984,l)
);
},
{
closed = 1;
nodes = (
(158,984,l),
(298,1362,l),
(178,1362,l),
(38,984,l)
);
}
);
width = 680;
}
);
unicode = 733;
},
{
glyphname = caron;
kernLeft = "20";
kernRight = "20";
lastChange = "2024-04-18 14:55:36 +0000";
layers = (
{
anchors = (
{
name = _top;
pos = (220,984);
}
);
layerId = "2138459E-7720-4001-9A22-A006F68CB051";
shapes = (
{
closed = 1;
nodes = (
(270,1104,o),
(335,1131,o),
(403,1131,c),
(403,1218,l),
(315,1218,o),
(229,1189,o),
(162,1132,c),
(221,1058,l)
);
},
{
closed = 1;
nodes = (
(279,1134,l),
(213,1189,o),
(126,1218,o),
(38,1218,c),
(38,1131,l),
(106,1131,o),
(173,1104,o),
(221,1058,c)
);
}
);
width = 441;
}
);
unicode = 711;
},
{
glyphname = breve;
kernLeft = "20";
kernRight = "20";
lastChange = "2024-04-18 14:55:36 +0000";
layers = (
{
anchors = (
{
name = _top;
pos = (186,984);
}
);
layerId = "2138459E-7720-4001-9A22-A006F68CB051";
shapes = (
{
closed = 1;
nodes = (
(263,1038,o),
(331,1103,o),
(331,1182,c),
(261,1182,l),
(261,1142,o),
(226,1107,o),
(186,1107,cs),
(143,1107,o),
(108,1142,o),
(108,1182,c),
(38,1182,l),
(38,1103,o),
(103,1038,o),
(186,1038,cs)
);
}
);
width = 369;
}
);
unicode = 728;
},
{
glyphname = macron;
kernLeft = "20";
kernRight = "20";
lastChange = "2024-04-18 14:55:36 +0000";
layers = (
{
anchors = (
{
name = _top;
pos = (243,984);
}
);
layerId = "2138459E-7720-4001-9A22-A006F68CB051";
shapes = (
{
closed = 1;
nodes = (
(451,1101,l),
(451,1199,l),
(38,1199,l),
(38,1101,l)
);
}
);
width = 489;
}
);
unicode = 175;
},
